G04 EAGLE Gerber RS-274X export*
G75*
%MOMM*%
%FSLAX34Y34*%
%LPD*%
%INTop Copper*%
%IPPOS*%
%AMOC8*
5,1,8,0,0,1.08239X$1,22.5*%
G01*
%ADD10C,1.320800*%
%ADD11R,1.676400X1.676400*%
%ADD12P,1.814519X8X22.500000*%
%ADD13C,3.048000*%
%ADD14P,1.429621X8X22.500000*%
%ADD15P,1.429621X8X202.500000*%
%ADD16P,1.732040X8X22.500000*%
%ADD17C,1.600200*%
%ADD18P,1.429621X8X112.500000*%
%ADD19P,1.732040X8X202.500000*%
%ADD20P,1.732040X8X292.500000*%
%ADD21P,1.539592X8X22.500000*%
%ADD22P,1.732040X8X112.500000*%
%ADD23C,0.406400*%
%ADD24C,0.609600*%
%ADD25C,1.016000*%

G36*
X56505Y10172D02*
X56505Y10172D01*
X56577Y10174D01*
X56626Y10192D01*
X56677Y10200D01*
X56740Y10234D01*
X56808Y10259D01*
X56848Y10291D01*
X56894Y10316D01*
X56944Y10368D01*
X57000Y10412D01*
X57028Y10456D01*
X57064Y10494D01*
X57094Y10559D01*
X57133Y10619D01*
X57145Y10670D01*
X57167Y10717D01*
X57175Y10788D01*
X57193Y10858D01*
X57189Y10910D01*
X57194Y10961D01*
X57179Y11032D01*
X57174Y11103D01*
X57153Y11151D01*
X57142Y11202D01*
X57105Y11263D01*
X57077Y11329D01*
X57032Y11385D01*
X57016Y11413D01*
X56998Y11428D01*
X56972Y11460D01*
X55357Y13076D01*
X52727Y19424D01*
X52727Y56776D01*
X55357Y63124D01*
X60216Y67983D01*
X65315Y70095D01*
X65415Y70157D01*
X65515Y70217D01*
X65519Y70222D01*
X65524Y70225D01*
X65599Y70315D01*
X65675Y70404D01*
X65677Y70410D01*
X65681Y70415D01*
X65723Y70523D01*
X65767Y70632D01*
X65768Y70640D01*
X65769Y70644D01*
X65770Y70662D01*
X65785Y70799D01*
X65785Y71534D01*
X80866Y86615D01*
X131351Y86615D01*
X131441Y86629D01*
X131532Y86637D01*
X131562Y86649D01*
X131594Y86654D01*
X131674Y86697D01*
X131758Y86733D01*
X131790Y86759D01*
X131811Y86770D01*
X131833Y86793D01*
X131889Y86838D01*
X169766Y124715D01*
X175685Y124715D01*
X175775Y124729D01*
X175866Y124737D01*
X175896Y124749D01*
X175928Y124754D01*
X176009Y124797D01*
X176093Y124833D01*
X176125Y124859D01*
X176145Y124870D01*
X176168Y124893D01*
X176224Y124938D01*
X180573Y129287D01*
X187727Y129287D01*
X192787Y124227D01*
X192787Y117073D01*
X187727Y112013D01*
X180573Y112013D01*
X176224Y116362D01*
X176150Y116415D01*
X176080Y116475D01*
X176050Y116487D01*
X176024Y116506D01*
X175937Y116533D01*
X175852Y116567D01*
X175811Y116571D01*
X175789Y116578D01*
X175757Y116577D01*
X175685Y116585D01*
X173449Y116585D01*
X173359Y116571D01*
X173268Y116563D01*
X173238Y116551D01*
X173206Y116546D01*
X173126Y116503D01*
X173042Y116467D01*
X173010Y116441D01*
X172989Y116430D01*
X172967Y116407D01*
X172911Y116362D01*
X135034Y78485D01*
X84549Y78485D01*
X84459Y78471D01*
X84368Y78463D01*
X84338Y78451D01*
X84306Y78446D01*
X84226Y78403D01*
X84142Y78367D01*
X84110Y78341D01*
X84089Y78330D01*
X84067Y78307D01*
X84011Y78262D01*
X76310Y70562D01*
X76283Y70524D01*
X76249Y70493D01*
X76212Y70425D01*
X76166Y70362D01*
X76153Y70318D01*
X76131Y70278D01*
X76117Y70201D01*
X76094Y70127D01*
X76095Y70081D01*
X76087Y70036D01*
X76098Y69959D01*
X76100Y69881D01*
X76116Y69838D01*
X76123Y69792D01*
X76158Y69723D01*
X76185Y69650D01*
X76214Y69614D01*
X76234Y69573D01*
X76290Y69519D01*
X76339Y69458D01*
X76377Y69433D01*
X76410Y69401D01*
X76530Y69335D01*
X76545Y69325D01*
X76550Y69324D01*
X76557Y69320D01*
X79784Y67983D01*
X84643Y63124D01*
X87273Y56776D01*
X87273Y19424D01*
X84643Y13076D01*
X83028Y11460D01*
X82986Y11402D01*
X82936Y11350D01*
X82914Y11303D01*
X82884Y11261D01*
X82863Y11192D01*
X82833Y11127D01*
X82827Y11075D01*
X82812Y11025D01*
X82814Y10954D01*
X82806Y10883D01*
X82817Y10832D01*
X82818Y10780D01*
X82843Y10712D01*
X82858Y10642D01*
X82885Y10597D01*
X82903Y10549D01*
X82947Y10493D01*
X82984Y10431D01*
X83024Y10397D01*
X83056Y10357D01*
X83117Y10318D01*
X83171Y10271D01*
X83219Y10252D01*
X83263Y10224D01*
X83333Y10206D01*
X83399Y10179D01*
X83471Y10171D01*
X83502Y10163D01*
X83525Y10165D01*
X83566Y10161D01*
X114434Y10161D01*
X114505Y10172D01*
X114577Y10174D01*
X114626Y10192D01*
X114677Y10200D01*
X114740Y10234D01*
X114808Y10259D01*
X114848Y10291D01*
X114894Y10316D01*
X114944Y10368D01*
X115000Y10412D01*
X115028Y10456D01*
X115064Y10494D01*
X115094Y10559D01*
X115133Y10619D01*
X115145Y10670D01*
X115167Y10717D01*
X115175Y10788D01*
X115193Y10858D01*
X115189Y10910D01*
X115194Y10961D01*
X115179Y11032D01*
X115174Y11103D01*
X115153Y11151D01*
X115142Y11202D01*
X115105Y11263D01*
X115077Y11329D01*
X115032Y11385D01*
X115016Y11413D01*
X114998Y11428D01*
X114972Y11460D01*
X113357Y13076D01*
X110727Y19424D01*
X110727Y56776D01*
X113357Y63124D01*
X118216Y67983D01*
X124564Y70613D01*
X131436Y70613D01*
X137784Y67983D01*
X142643Y63124D01*
X145273Y56776D01*
X145273Y19424D01*
X142643Y13076D01*
X141028Y11460D01*
X140986Y11402D01*
X140936Y11350D01*
X140914Y11303D01*
X140884Y11261D01*
X140863Y11192D01*
X140833Y11127D01*
X140827Y11075D01*
X140812Y11025D01*
X140814Y10954D01*
X140806Y10883D01*
X140817Y10832D01*
X140818Y10780D01*
X140843Y10712D01*
X140858Y10642D01*
X140885Y10597D01*
X140903Y10549D01*
X140947Y10493D01*
X140984Y10431D01*
X141024Y10397D01*
X141056Y10357D01*
X141117Y10318D01*
X141171Y10271D01*
X141219Y10252D01*
X141263Y10224D01*
X141333Y10206D01*
X141399Y10179D01*
X141471Y10171D01*
X141502Y10163D01*
X141525Y10165D01*
X141566Y10161D01*
X497078Y10161D01*
X497098Y10164D01*
X497117Y10162D01*
X497219Y10184D01*
X497321Y10200D01*
X497338Y10210D01*
X497358Y10214D01*
X497447Y10267D01*
X497538Y10316D01*
X497552Y10330D01*
X497569Y10340D01*
X497636Y10419D01*
X497708Y10494D01*
X497716Y10512D01*
X497729Y10527D01*
X497768Y10623D01*
X497811Y10717D01*
X497813Y10737D01*
X497821Y10755D01*
X497839Y10922D01*
X497839Y64433D01*
X497828Y64504D01*
X497826Y64576D01*
X497808Y64625D01*
X497800Y64676D01*
X497766Y64739D01*
X497741Y64807D01*
X497709Y64847D01*
X497684Y64893D01*
X497632Y64943D01*
X497588Y64999D01*
X497544Y65027D01*
X497506Y65063D01*
X497441Y65093D01*
X497381Y65132D01*
X497330Y65144D01*
X497283Y65166D01*
X497212Y65174D01*
X497142Y65192D01*
X497090Y65188D01*
X497039Y65193D01*
X496968Y65178D01*
X496897Y65173D01*
X496849Y65152D01*
X496798Y65141D01*
X496737Y65104D01*
X496671Y65076D01*
X496615Y65032D01*
X496587Y65015D01*
X496572Y64997D01*
X496540Y64972D01*
X494096Y62528D01*
X490922Y61213D01*
X474278Y61213D01*
X471104Y62528D01*
X468674Y64958D01*
X467359Y68132D01*
X467359Y71568D01*
X468674Y74742D01*
X471104Y77172D01*
X474278Y78487D01*
X490922Y78487D01*
X494096Y77172D01*
X496540Y74728D01*
X496598Y74687D01*
X496650Y74637D01*
X496697Y74615D01*
X496739Y74585D01*
X496808Y74564D01*
X496873Y74534D01*
X496925Y74528D01*
X496975Y74513D01*
X497046Y74514D01*
X497117Y74507D01*
X497168Y74518D01*
X497220Y74519D01*
X497288Y74544D01*
X497358Y74559D01*
X497403Y74585D01*
X497451Y74603D01*
X497507Y74648D01*
X497569Y74685D01*
X497603Y74725D01*
X497643Y74757D01*
X497682Y74817D01*
X497729Y74872D01*
X497748Y74920D01*
X497776Y74964D01*
X497794Y75033D01*
X497821Y75100D01*
X497829Y75171D01*
X497837Y75203D01*
X497835Y75226D01*
X497839Y75267D01*
X497839Y90087D01*
X497828Y90158D01*
X497826Y90230D01*
X497808Y90279D01*
X497800Y90330D01*
X497766Y90393D01*
X497741Y90461D01*
X497709Y90501D01*
X497684Y90547D01*
X497632Y90597D01*
X497588Y90653D01*
X497544Y90681D01*
X497506Y90717D01*
X497441Y90747D01*
X497381Y90786D01*
X497330Y90798D01*
X497283Y90820D01*
X497212Y90828D01*
X497142Y90846D01*
X497090Y90842D01*
X497039Y90848D01*
X496968Y90832D01*
X496897Y90827D01*
X496849Y90806D01*
X496798Y90795D01*
X496737Y90758D01*
X496671Y90730D01*
X496615Y90686D01*
X496587Y90669D01*
X496572Y90651D01*
X496540Y90626D01*
X492527Y86613D01*
X485373Y86613D01*
X480313Y91673D01*
X480313Y97823D01*
X480299Y97913D01*
X480291Y98004D01*
X480279Y98034D01*
X480274Y98066D01*
X480231Y98146D01*
X480195Y98230D01*
X480169Y98262D01*
X480158Y98283D01*
X480135Y98305D01*
X480090Y98361D01*
X465835Y112616D01*
X465835Y131351D01*
X465821Y131441D01*
X465813Y131532D01*
X465801Y131562D01*
X465796Y131594D01*
X465753Y131674D01*
X465717Y131758D01*
X465691Y131790D01*
X465680Y131811D01*
X465657Y131833D01*
X465612Y131889D01*
X453135Y144366D01*
X453135Y244348D01*
X453132Y244368D01*
X453134Y244387D01*
X453112Y244489D01*
X453096Y244591D01*
X453086Y244608D01*
X453082Y244628D01*
X453029Y244717D01*
X452980Y244808D01*
X452966Y244822D01*
X452956Y244839D01*
X452877Y244906D01*
X452802Y244978D01*
X452784Y244986D01*
X452769Y244999D01*
X452673Y245038D01*
X452579Y245081D01*
X452559Y245083D01*
X452541Y245091D01*
X452374Y245109D01*
X449132Y245109D01*
X445958Y246424D01*
X443528Y248854D01*
X442213Y252028D01*
X442213Y268672D01*
X443528Y271846D01*
X445958Y274276D01*
X449132Y275591D01*
X452568Y275591D01*
X455742Y274276D01*
X458172Y271846D01*
X459487Y268672D01*
X459487Y264127D01*
X459501Y264037D01*
X459509Y263946D01*
X459521Y263916D01*
X459526Y263884D01*
X459569Y263804D01*
X459605Y263720D01*
X459631Y263688D01*
X459642Y263667D01*
X459665Y263645D01*
X459710Y263589D01*
X461265Y262034D01*
X461265Y148049D01*
X461279Y147959D01*
X461287Y147868D01*
X461299Y147838D01*
X461304Y147806D01*
X461347Y147726D01*
X461383Y147642D01*
X461409Y147610D01*
X461420Y147589D01*
X461443Y147567D01*
X461488Y147511D01*
X473965Y135034D01*
X473965Y116299D01*
X473979Y116209D01*
X473987Y116118D01*
X473999Y116088D01*
X474004Y116056D01*
X474047Y115976D01*
X474083Y115892D01*
X474109Y115860D01*
X474120Y115839D01*
X474143Y115817D01*
X474188Y115761D01*
X485839Y104110D01*
X485913Y104057D01*
X485982Y103997D01*
X486012Y103985D01*
X486038Y103966D01*
X486125Y103939D01*
X486210Y103905D01*
X486251Y103901D01*
X486274Y103894D01*
X486306Y103895D01*
X486377Y103887D01*
X492527Y103887D01*
X496540Y99874D01*
X496598Y99833D01*
X496650Y99783D01*
X496697Y99761D01*
X496739Y99731D01*
X496808Y99710D01*
X496873Y99680D01*
X496925Y99674D01*
X496975Y99659D01*
X497046Y99660D01*
X497117Y99652D01*
X497168Y99664D01*
X497220Y99665D01*
X497288Y99690D01*
X497358Y99705D01*
X497403Y99731D01*
X497451Y99749D01*
X497507Y99794D01*
X497569Y99831D01*
X497603Y99870D01*
X497643Y99903D01*
X497682Y99963D01*
X497729Y100018D01*
X497748Y100066D01*
X497776Y100110D01*
X497794Y100179D01*
X497821Y100246D01*
X497829Y100317D01*
X497837Y100348D01*
X497835Y100372D01*
X497839Y100413D01*
X497839Y114769D01*
X497828Y114840D01*
X497826Y114911D01*
X497808Y114960D01*
X497800Y115012D01*
X497766Y115075D01*
X497741Y115142D01*
X497709Y115183D01*
X497684Y115229D01*
X497632Y115278D01*
X497588Y115334D01*
X497544Y115363D01*
X497506Y115398D01*
X497441Y115429D01*
X497381Y115467D01*
X497330Y115480D01*
X497283Y115502D01*
X497212Y115510D01*
X497142Y115527D01*
X497090Y115523D01*
X497039Y115529D01*
X496968Y115514D01*
X496897Y115508D01*
X496849Y115488D01*
X496798Y115477D01*
X496737Y115440D01*
X496671Y115412D01*
X496615Y115367D01*
X496587Y115351D01*
X496572Y115333D01*
X496540Y115307D01*
X492738Y111505D01*
X490473Y111505D01*
X490473Y119888D01*
X490470Y119908D01*
X490472Y119927D01*
X490450Y120029D01*
X490433Y120131D01*
X490424Y120148D01*
X490420Y120168D01*
X490367Y120257D01*
X490318Y120348D01*
X490304Y120362D01*
X490294Y120379D01*
X490215Y120446D01*
X490140Y120517D01*
X490122Y120526D01*
X490107Y120539D01*
X490011Y120577D01*
X489917Y120621D01*
X489897Y120623D01*
X489879Y120631D01*
X489712Y120649D01*
X488949Y120649D01*
X488949Y120651D01*
X489712Y120651D01*
X489732Y120654D01*
X489751Y120652D01*
X489853Y120674D01*
X489955Y120691D01*
X489972Y120700D01*
X489992Y120704D01*
X490081Y120757D01*
X490172Y120806D01*
X490186Y120820D01*
X490203Y120830D01*
X490270Y120909D01*
X490341Y120984D01*
X490350Y121002D01*
X490363Y121017D01*
X490402Y121113D01*
X490445Y121207D01*
X490447Y121227D01*
X490455Y121245D01*
X490473Y121412D01*
X490473Y129795D01*
X492738Y129795D01*
X496540Y125993D01*
X496598Y125951D01*
X496650Y125902D01*
X496697Y125880D01*
X496739Y125849D01*
X496808Y125828D01*
X496873Y125798D01*
X496925Y125792D01*
X496975Y125777D01*
X497046Y125779D01*
X497117Y125771D01*
X497168Y125782D01*
X497220Y125783D01*
X497288Y125808D01*
X497358Y125823D01*
X497403Y125850D01*
X497451Y125868D01*
X497507Y125913D01*
X497569Y125949D01*
X497603Y125989D01*
X497643Y126021D01*
X497682Y126082D01*
X497729Y126136D01*
X497748Y126185D01*
X497776Y126228D01*
X497794Y126298D01*
X497821Y126364D01*
X497829Y126436D01*
X497837Y126467D01*
X497835Y126490D01*
X497839Y126531D01*
X497839Y140887D01*
X497828Y140958D01*
X497826Y141030D01*
X497808Y141079D01*
X497800Y141130D01*
X497766Y141193D01*
X497741Y141261D01*
X497709Y141301D01*
X497684Y141347D01*
X497632Y141397D01*
X497588Y141453D01*
X497544Y141481D01*
X497506Y141517D01*
X497441Y141547D01*
X497381Y141586D01*
X497330Y141598D01*
X497283Y141620D01*
X497212Y141628D01*
X497142Y141646D01*
X497090Y141642D01*
X497039Y141648D01*
X496968Y141632D01*
X496897Y141627D01*
X496849Y141606D01*
X496798Y141595D01*
X496737Y141558D01*
X496671Y141530D01*
X496615Y141486D01*
X496587Y141469D01*
X496572Y141451D01*
X496540Y141426D01*
X492527Y137413D01*
X485373Y137413D01*
X480313Y142473D01*
X480313Y149627D01*
X484662Y153976D01*
X484715Y154050D01*
X484775Y154120D01*
X484787Y154150D01*
X484806Y154176D01*
X484833Y154263D01*
X484867Y154348D01*
X484871Y154389D01*
X484878Y154411D01*
X484877Y154443D01*
X484885Y154515D01*
X484885Y162985D01*
X484871Y163075D01*
X484863Y163166D01*
X484851Y163196D01*
X484846Y163228D01*
X484803Y163309D01*
X484767Y163393D01*
X484741Y163425D01*
X484730Y163445D01*
X484707Y163468D01*
X484662Y163524D01*
X480313Y167873D01*
X480313Y175027D01*
X484662Y179376D01*
X484715Y179450D01*
X484723Y179459D01*
X484754Y179491D01*
X484757Y179499D01*
X484775Y179520D01*
X484787Y179550D01*
X484806Y179576D01*
X484831Y179659D01*
X484857Y179714D01*
X484859Y179728D01*
X484867Y179748D01*
X484871Y179789D01*
X484878Y179811D01*
X484877Y179843D01*
X484885Y179915D01*
X484885Y188385D01*
X484871Y188475D01*
X484863Y188566D01*
X484851Y188596D01*
X484846Y188628D01*
X484803Y188709D01*
X484767Y188793D01*
X484741Y188825D01*
X484730Y188845D01*
X484707Y188868D01*
X484662Y188924D01*
X480313Y193273D01*
X480313Y200427D01*
X484662Y204776D01*
X484715Y204850D01*
X484775Y204920D01*
X484787Y204950D01*
X484806Y204976D01*
X484833Y205063D01*
X484867Y205148D01*
X484871Y205189D01*
X484878Y205211D01*
X484877Y205243D01*
X484885Y205315D01*
X484885Y213785D01*
X484871Y213875D01*
X484863Y213966D01*
X484851Y213996D01*
X484846Y214028D01*
X484803Y214109D01*
X484767Y214193D01*
X484741Y214225D01*
X484730Y214245D01*
X484707Y214268D01*
X484662Y214324D01*
X480313Y218673D01*
X480313Y225827D01*
X485373Y230887D01*
X492527Y230887D01*
X496540Y226874D01*
X496598Y226833D01*
X496650Y226783D01*
X496697Y226761D01*
X496739Y226731D01*
X496808Y226710D01*
X496873Y226680D01*
X496925Y226674D01*
X496975Y226659D01*
X497046Y226660D01*
X497117Y226652D01*
X497168Y226664D01*
X497220Y226665D01*
X497288Y226690D01*
X497358Y226705D01*
X497403Y226731D01*
X497451Y226749D01*
X497507Y226794D01*
X497569Y226831D01*
X497603Y226870D01*
X497643Y226903D01*
X497682Y226963D01*
X497729Y227018D01*
X497748Y227066D01*
X497776Y227110D01*
X497794Y227179D01*
X497821Y227246D01*
X497829Y227317D01*
X497837Y227348D01*
X497835Y227372D01*
X497839Y227413D01*
X497839Y979678D01*
X497836Y979698D01*
X497838Y979717D01*
X497816Y979819D01*
X497800Y979921D01*
X497790Y979938D01*
X497786Y979958D01*
X497733Y980047D01*
X497684Y980138D01*
X497670Y980152D01*
X497660Y980169D01*
X497581Y980236D01*
X497506Y980308D01*
X497488Y980316D01*
X497473Y980329D01*
X497377Y980368D01*
X497283Y980411D01*
X497263Y980413D01*
X497245Y980421D01*
X497078Y980439D01*
X10922Y980439D01*
X10902Y980436D01*
X10883Y980438D01*
X10781Y980416D01*
X10679Y980400D01*
X10662Y980390D01*
X10642Y980386D01*
X10553Y980333D01*
X10462Y980284D01*
X10448Y980270D01*
X10431Y980260D01*
X10364Y980181D01*
X10292Y980106D01*
X10284Y980088D01*
X10271Y980073D01*
X10232Y979977D01*
X10189Y979883D01*
X10187Y979863D01*
X10179Y979845D01*
X10161Y979678D01*
X10161Y299492D01*
X10168Y299447D01*
X10166Y299401D01*
X10188Y299326D01*
X10200Y299249D01*
X10222Y299209D01*
X10235Y299165D01*
X10279Y299101D01*
X10316Y299032D01*
X10349Y299000D01*
X10375Y298963D01*
X10437Y298916D01*
X10494Y298863D01*
X10536Y298843D01*
X10573Y298816D01*
X10647Y298792D01*
X10717Y298759D01*
X10763Y298754D01*
X10806Y298740D01*
X10884Y298740D01*
X10961Y298732D01*
X11006Y298742D01*
X11052Y298742D01*
X11183Y298780D01*
X11202Y298784D01*
X11206Y298787D01*
X11213Y298789D01*
X11272Y298813D01*
X13524Y299416D01*
X15477Y299674D01*
X15477Y267462D01*
X15480Y267443D01*
X15478Y267424D01*
X15478Y267423D01*
X15500Y267321D01*
X15517Y267219D01*
X15526Y267202D01*
X15530Y267182D01*
X15583Y267093D01*
X15632Y267002D01*
X15646Y266988D01*
X15656Y266971D01*
X15735Y266904D01*
X15810Y266833D01*
X15828Y266824D01*
X15843Y266811D01*
X15939Y266773D01*
X16033Y266729D01*
X16053Y266727D01*
X16071Y266719D01*
X16238Y266701D01*
X17001Y266701D01*
X17001Y266699D01*
X16238Y266699D01*
X16218Y266696D01*
X16199Y266698D01*
X16097Y266676D01*
X15995Y266659D01*
X15978Y266650D01*
X15958Y266646D01*
X15869Y266593D01*
X15778Y266544D01*
X15764Y266530D01*
X15747Y266520D01*
X15680Y266441D01*
X15609Y266366D01*
X15600Y266348D01*
X15587Y266333D01*
X15548Y266237D01*
X15505Y266143D01*
X15503Y266123D01*
X15495Y266105D01*
X15477Y265938D01*
X15477Y233726D01*
X13524Y233984D01*
X11272Y234587D01*
X11213Y234611D01*
X11169Y234622D01*
X11127Y234641D01*
X11050Y234650D01*
X10974Y234667D01*
X10928Y234663D01*
X10883Y234668D01*
X10806Y234652D01*
X10729Y234644D01*
X10687Y234626D01*
X10642Y234616D01*
X10575Y234576D01*
X10504Y234544D01*
X10470Y234513D01*
X10431Y234490D01*
X10380Y234431D01*
X10323Y234378D01*
X10301Y234338D01*
X10271Y234303D01*
X10242Y234231D01*
X10205Y234163D01*
X10196Y234117D01*
X10179Y234075D01*
X10164Y233939D01*
X10161Y233921D01*
X10162Y233915D01*
X10161Y233908D01*
X10161Y185192D01*
X10168Y185147D01*
X10166Y185101D01*
X10188Y185026D01*
X10200Y184949D01*
X10222Y184909D01*
X10235Y184865D01*
X10279Y184801D01*
X10316Y184732D01*
X10349Y184700D01*
X10375Y184663D01*
X10437Y184616D01*
X10494Y184563D01*
X10536Y184543D01*
X10573Y184516D01*
X10647Y184492D01*
X10717Y184459D01*
X10763Y184454D01*
X10806Y184440D01*
X10884Y184440D01*
X10961Y184432D01*
X11006Y184442D01*
X11052Y184442D01*
X11183Y184480D01*
X11202Y184484D01*
X11206Y184487D01*
X11213Y184489D01*
X11272Y184513D01*
X13524Y185116D01*
X15477Y185374D01*
X15477Y153162D01*
X15480Y153142D01*
X15478Y153123D01*
X15500Y153021D01*
X15517Y152919D01*
X15526Y152902D01*
X15530Y152882D01*
X15583Y152793D01*
X15632Y152702D01*
X15646Y152688D01*
X15656Y152671D01*
X15735Y152604D01*
X15810Y152533D01*
X15828Y152524D01*
X15843Y152511D01*
X15939Y152473D01*
X16033Y152429D01*
X16053Y152427D01*
X16071Y152419D01*
X16238Y152401D01*
X17001Y152401D01*
X17001Y152399D01*
X16238Y152399D01*
X16218Y152396D01*
X16199Y152398D01*
X16097Y152376D01*
X15995Y152359D01*
X15978Y152350D01*
X15958Y152346D01*
X15869Y152293D01*
X15778Y152244D01*
X15764Y152230D01*
X15747Y152220D01*
X15680Y152141D01*
X15609Y152066D01*
X15600Y152048D01*
X15587Y152033D01*
X15548Y151937D01*
X15505Y151843D01*
X15503Y151823D01*
X15495Y151805D01*
X15477Y151638D01*
X15477Y119426D01*
X13524Y119684D01*
X11272Y120287D01*
X11213Y120311D01*
X11169Y120322D01*
X11127Y120341D01*
X11050Y120350D01*
X10974Y120367D01*
X10928Y120363D01*
X10883Y120368D01*
X10806Y120352D01*
X10729Y120344D01*
X10687Y120326D01*
X10642Y120316D01*
X10575Y120276D01*
X10504Y120244D01*
X10470Y120213D01*
X10431Y120190D01*
X10380Y120131D01*
X10323Y120078D01*
X10301Y120038D01*
X10271Y120003D01*
X10242Y119931D01*
X10205Y119863D01*
X10196Y119817D01*
X10179Y119775D01*
X10164Y119639D01*
X10161Y119621D01*
X10162Y119615D01*
X10161Y119608D01*
X10161Y70892D01*
X10168Y70847D01*
X10166Y70801D01*
X10188Y70726D01*
X10200Y70649D01*
X10222Y70609D01*
X10235Y70565D01*
X10279Y70501D01*
X10316Y70432D01*
X10349Y70400D01*
X10375Y70363D01*
X10438Y70316D01*
X10494Y70263D01*
X10536Y70243D01*
X10572Y70216D01*
X10646Y70192D01*
X10717Y70159D01*
X10763Y70154D01*
X10806Y70140D01*
X10884Y70140D01*
X10961Y70132D01*
X11006Y70142D01*
X11052Y70142D01*
X11184Y70180D01*
X11202Y70184D01*
X11206Y70187D01*
X11213Y70189D01*
X11272Y70213D01*
X13524Y70816D01*
X15477Y71074D01*
X15477Y38862D01*
X15480Y38842D01*
X15478Y38823D01*
X15500Y38721D01*
X15517Y38619D01*
X15526Y38602D01*
X15530Y38582D01*
X15583Y38493D01*
X15632Y38402D01*
X15646Y38388D01*
X15656Y38371D01*
X15735Y38304D01*
X15810Y38233D01*
X15828Y38224D01*
X15843Y38211D01*
X15939Y38173D01*
X16033Y38129D01*
X16053Y38127D01*
X16071Y38119D01*
X16238Y38101D01*
X17001Y38101D01*
X17001Y37338D01*
X17004Y37318D01*
X17002Y37299D01*
X17024Y37197D01*
X17041Y37095D01*
X17050Y37078D01*
X17054Y37058D01*
X17107Y36969D01*
X17156Y36878D01*
X17170Y36864D01*
X17180Y36847D01*
X17259Y36780D01*
X17334Y36709D01*
X17352Y36700D01*
X17367Y36687D01*
X17463Y36648D01*
X17557Y36605D01*
X17577Y36603D01*
X17595Y36595D01*
X17762Y36577D01*
X34781Y36577D01*
X34781Y21695D01*
X34476Y19384D01*
X33873Y17132D01*
X32981Y14979D01*
X31816Y12960D01*
X30607Y11385D01*
X30597Y11366D01*
X30582Y11350D01*
X30539Y11258D01*
X30491Y11169D01*
X30487Y11147D01*
X30478Y11127D01*
X30467Y11026D01*
X30450Y10926D01*
X30453Y10904D01*
X30451Y10883D01*
X30473Y10783D01*
X30488Y10683D01*
X30499Y10664D01*
X30503Y10642D01*
X30555Y10555D01*
X30602Y10465D01*
X30618Y10450D01*
X30629Y10431D01*
X30707Y10365D01*
X30780Y10295D01*
X30800Y10285D01*
X30816Y10271D01*
X30911Y10233D01*
X31002Y10190D01*
X31024Y10187D01*
X31045Y10179D01*
X31211Y10161D01*
X56434Y10161D01*
X56505Y10172D01*
G37*
%LPC*%
G36*
X358373Y658113D02*
X358373Y658113D01*
X353313Y663173D01*
X353313Y670327D01*
X357662Y674676D01*
X357715Y674750D01*
X357775Y674820D01*
X357787Y674850D01*
X357806Y674876D01*
X357833Y674963D01*
X357867Y675048D01*
X357871Y675089D01*
X357878Y675111D01*
X357877Y675143D01*
X357885Y675215D01*
X357885Y680974D01*
X357882Y680994D01*
X357884Y681013D01*
X357862Y681115D01*
X357846Y681217D01*
X357836Y681234D01*
X357832Y681254D01*
X357779Y681343D01*
X357730Y681434D01*
X357716Y681448D01*
X357706Y681465D01*
X357627Y681532D01*
X357552Y681604D01*
X357534Y681612D01*
X357519Y681625D01*
X357423Y681664D01*
X357329Y681707D01*
X357309Y681709D01*
X357291Y681717D01*
X357124Y681735D01*
X344899Y681735D01*
X344809Y681721D01*
X344718Y681713D01*
X344688Y681701D01*
X344656Y681696D01*
X344576Y681653D01*
X344492Y681617D01*
X344460Y681591D01*
X344439Y681580D01*
X344417Y681557D01*
X344361Y681512D01*
X338234Y675385D01*
X317285Y675385D01*
X317214Y675374D01*
X317143Y675372D01*
X317094Y675354D01*
X317042Y675346D01*
X316979Y675312D01*
X316912Y675287D01*
X316871Y675255D01*
X316825Y675230D01*
X316776Y675178D01*
X316720Y675134D01*
X316691Y675090D01*
X316656Y675052D01*
X316625Y674987D01*
X316587Y674927D01*
X316574Y674876D01*
X316552Y674829D01*
X316544Y674758D01*
X316527Y674688D01*
X316531Y674636D01*
X316525Y674585D01*
X316540Y674514D01*
X316546Y674443D01*
X316566Y674395D01*
X316577Y674344D01*
X316614Y674283D01*
X316642Y674217D01*
X316687Y674161D01*
X316703Y674133D01*
X316721Y674118D01*
X316747Y674086D01*
X320295Y670538D01*
X320295Y668273D01*
X311912Y668273D01*
X311892Y668270D01*
X311873Y668272D01*
X311771Y668250D01*
X311669Y668233D01*
X311652Y668224D01*
X311632Y668220D01*
X311543Y668167D01*
X311452Y668118D01*
X311438Y668104D01*
X311421Y668094D01*
X311354Y668015D01*
X311283Y667940D01*
X311274Y667922D01*
X311261Y667907D01*
X311223Y667811D01*
X311179Y667717D01*
X311177Y667697D01*
X311169Y667679D01*
X311151Y667512D01*
X311151Y666749D01*
X311149Y666749D01*
X311149Y667512D01*
X311146Y667532D01*
X311148Y667551D01*
X311126Y667653D01*
X311109Y667755D01*
X311100Y667772D01*
X311096Y667792D01*
X311043Y667881D01*
X310994Y667972D01*
X310980Y667986D01*
X310970Y668003D01*
X310891Y668070D01*
X310816Y668141D01*
X310798Y668150D01*
X310783Y668163D01*
X310687Y668202D01*
X310593Y668245D01*
X310573Y668247D01*
X310555Y668255D01*
X310388Y668273D01*
X302005Y668273D01*
X302005Y670538D01*
X305553Y674086D01*
X305595Y674144D01*
X305644Y674196D01*
X305666Y674243D01*
X305697Y674285D01*
X305718Y674354D01*
X305748Y674419D01*
X305754Y674471D01*
X305769Y674521D01*
X305767Y674592D01*
X305775Y674663D01*
X305764Y674714D01*
X305763Y674766D01*
X305738Y674834D01*
X305723Y674904D01*
X305696Y674949D01*
X305678Y674997D01*
X305633Y675053D01*
X305597Y675115D01*
X305557Y675149D01*
X305525Y675189D01*
X305464Y675228D01*
X305410Y675275D01*
X305361Y675294D01*
X305318Y675322D01*
X305248Y675340D01*
X305182Y675367D01*
X305110Y675375D01*
X305079Y675383D01*
X305056Y675381D01*
X305015Y675385D01*
X226916Y675385D01*
X211835Y690466D01*
X211835Y734601D01*
X211821Y734691D01*
X211813Y734782D01*
X211801Y734812D01*
X211796Y734844D01*
X211753Y734924D01*
X211717Y735008D01*
X211691Y735041D01*
X211680Y735061D01*
X211657Y735083D01*
X211612Y735139D01*
X208564Y738187D01*
X208506Y738229D01*
X208454Y738279D01*
X208407Y738301D01*
X208365Y738331D01*
X208296Y738352D01*
X208231Y738382D01*
X208179Y738388D01*
X208129Y738403D01*
X208058Y738401D01*
X207987Y738409D01*
X207936Y738398D01*
X207884Y738397D01*
X207816Y738372D01*
X207746Y738357D01*
X207701Y738330D01*
X207653Y738312D01*
X207597Y738268D01*
X207535Y738231D01*
X207501Y738191D01*
X207461Y738159D01*
X207422Y738098D01*
X207375Y738044D01*
X207356Y737996D01*
X207328Y737952D01*
X207310Y737882D01*
X207283Y737816D01*
X207275Y737744D01*
X207267Y737713D01*
X207269Y737690D01*
X207265Y737649D01*
X207265Y696816D01*
X204661Y694212D01*
X198534Y688085D01*
X192615Y688085D01*
X192525Y688071D01*
X192434Y688063D01*
X192404Y688051D01*
X192372Y688046D01*
X192291Y688003D01*
X192207Y687967D01*
X192175Y687941D01*
X192155Y687930D01*
X192132Y687907D01*
X192076Y687862D01*
X187727Y683513D01*
X180573Y683513D01*
X175513Y688573D01*
X175513Y695727D01*
X180573Y700787D01*
X187727Y700787D01*
X192076Y696438D01*
X192150Y696385D01*
X192220Y696325D01*
X192250Y696313D01*
X192276Y696294D01*
X192363Y696267D01*
X192448Y696233D01*
X192489Y696229D01*
X192511Y696222D01*
X192543Y696223D01*
X192615Y696215D01*
X194851Y696215D01*
X194941Y696229D01*
X195032Y696237D01*
X195062Y696249D01*
X195094Y696254D01*
X195174Y696297D01*
X195258Y696333D01*
X195291Y696359D01*
X195311Y696370D01*
X195333Y696393D01*
X195389Y696438D01*
X198912Y699961D01*
X198965Y700035D01*
X199025Y700104D01*
X199037Y700134D01*
X199056Y700160D01*
X199083Y700247D01*
X199117Y700332D01*
X199121Y700373D01*
X199128Y700395D01*
X199127Y700428D01*
X199135Y700499D01*
X199135Y734601D01*
X199121Y734691D01*
X199113Y734782D01*
X199101Y734812D01*
X199096Y734844D01*
X199053Y734924D01*
X199017Y735008D01*
X198991Y735040D01*
X198980Y735061D01*
X198957Y735083D01*
X198912Y735139D01*
X195389Y738662D01*
X195315Y738715D01*
X195246Y738775D01*
X195216Y738787D01*
X195190Y738806D01*
X195103Y738833D01*
X195018Y738867D01*
X194977Y738871D01*
X194954Y738878D01*
X194922Y738877D01*
X194851Y738885D01*
X192615Y738885D01*
X192525Y738871D01*
X192434Y738863D01*
X192404Y738851D01*
X192372Y738846D01*
X192291Y738803D01*
X192207Y738767D01*
X192175Y738741D01*
X192155Y738730D01*
X192132Y738707D01*
X192076Y738662D01*
X187727Y734313D01*
X180573Y734313D01*
X176224Y738662D01*
X176150Y738715D01*
X176080Y738775D01*
X176050Y738787D01*
X176024Y738806D01*
X175937Y738833D01*
X175852Y738867D01*
X175811Y738871D01*
X175789Y738878D01*
X175757Y738877D01*
X175685Y738885D01*
X131666Y738885D01*
X116585Y753966D01*
X116585Y784065D01*
X116566Y784179D01*
X116549Y784296D01*
X116547Y784301D01*
X116546Y784307D01*
X116491Y784410D01*
X116438Y784515D01*
X116433Y784519D01*
X116430Y784525D01*
X116346Y784605D01*
X116262Y784687D01*
X116256Y784691D01*
X116252Y784694D01*
X116235Y784702D01*
X116115Y784768D01*
X114966Y785244D01*
X112144Y788066D01*
X110616Y791754D01*
X110616Y795746D01*
X112144Y799434D01*
X114966Y802256D01*
X118654Y803784D01*
X122646Y803784D01*
X126334Y802256D01*
X129156Y799434D01*
X130684Y795746D01*
X130684Y791754D01*
X129156Y788066D01*
X126334Y785244D01*
X125185Y784768D01*
X125085Y784706D01*
X124985Y784646D01*
X124981Y784642D01*
X124976Y784638D01*
X124901Y784549D01*
X124825Y784459D01*
X124823Y784454D01*
X124819Y784449D01*
X124777Y784340D01*
X124733Y784231D01*
X124732Y784224D01*
X124731Y784219D01*
X124730Y784201D01*
X124715Y784065D01*
X124715Y757649D01*
X124729Y757559D01*
X124737Y757468D01*
X124749Y757438D01*
X124754Y757406D01*
X124797Y757326D01*
X124833Y757242D01*
X124859Y757210D01*
X124870Y757189D01*
X124893Y757167D01*
X124938Y757111D01*
X134811Y747238D01*
X134885Y747185D01*
X134954Y747125D01*
X134984Y747113D01*
X135010Y747094D01*
X135097Y747067D01*
X135182Y747033D01*
X135223Y747029D01*
X135246Y747022D01*
X135278Y747023D01*
X135349Y747015D01*
X175685Y747015D01*
X175775Y747029D01*
X175866Y747037D01*
X175896Y747049D01*
X175928Y747054D01*
X176008Y747097D01*
X176093Y747133D01*
X176125Y747159D01*
X176145Y747170D01*
X176167Y747193D01*
X176224Y747238D01*
X179272Y750286D01*
X179313Y750344D01*
X179363Y750396D01*
X179385Y750443D01*
X179415Y750485D01*
X179436Y750554D01*
X179466Y750619D01*
X179472Y750671D01*
X179487Y750721D01*
X179486Y750792D01*
X179494Y750863D01*
X179482Y750914D01*
X179481Y750966D01*
X179456Y751034D01*
X179441Y751104D01*
X179415Y751149D01*
X179397Y751197D01*
X179352Y751253D01*
X179315Y751315D01*
X179276Y751349D01*
X179243Y751389D01*
X179183Y751428D01*
X179128Y751475D01*
X179080Y751494D01*
X179036Y751522D01*
X178967Y751540D01*
X178900Y751567D01*
X178829Y751575D01*
X178798Y751583D01*
X178774Y751581D01*
X178733Y751585D01*
X169766Y751585D01*
X148335Y773016D01*
X148335Y925101D01*
X148321Y925191D01*
X148313Y925282D01*
X148301Y925312D01*
X148296Y925344D01*
X148253Y925424D01*
X148217Y925508D01*
X148191Y925540D01*
X148180Y925561D01*
X148157Y925583D01*
X148112Y925639D01*
X143674Y930077D01*
X143579Y930146D01*
X143486Y930215D01*
X143480Y930217D01*
X143475Y930221D01*
X143363Y930255D01*
X143252Y930291D01*
X143246Y930291D01*
X143240Y930293D01*
X143123Y930290D01*
X143006Y930289D01*
X142999Y930287D01*
X142994Y930287D01*
X142976Y930280D01*
X142845Y930242D01*
X141696Y929766D01*
X137704Y929766D01*
X134016Y931294D01*
X131194Y934116D01*
X129666Y937804D01*
X129666Y941796D01*
X131194Y945484D01*
X134016Y948306D01*
X137704Y949834D01*
X141696Y949834D01*
X145384Y948306D01*
X148206Y945484D01*
X149734Y941796D01*
X149734Y937804D01*
X149258Y936655D01*
X149231Y936542D01*
X149203Y936428D01*
X149203Y936422D01*
X149202Y936416D01*
X149213Y936299D01*
X149222Y936183D01*
X149224Y936177D01*
X149225Y936171D01*
X149273Y936063D01*
X149318Y935957D01*
X149323Y935951D01*
X149325Y935946D01*
X149338Y935932D01*
X149423Y935826D01*
X153861Y931388D01*
X156465Y928784D01*
X156465Y776699D01*
X156479Y776609D01*
X156487Y776518D01*
X156499Y776488D01*
X156504Y776456D01*
X156547Y776376D01*
X156583Y776292D01*
X156609Y776260D01*
X156620Y776239D01*
X156643Y776217D01*
X156688Y776161D01*
X172911Y759938D01*
X172985Y759885D01*
X173054Y759825D01*
X173084Y759813D01*
X173110Y759794D01*
X173197Y759767D01*
X173282Y759733D01*
X173323Y759729D01*
X173346Y759722D01*
X173378Y759723D01*
X173449Y759715D01*
X178733Y759715D01*
X178804Y759726D01*
X178876Y759728D01*
X178925Y759746D01*
X178976Y759754D01*
X179039Y759788D01*
X179107Y759813D01*
X179147Y759845D01*
X179193Y759870D01*
X179243Y759922D01*
X179299Y759966D01*
X179327Y760010D01*
X179363Y760048D01*
X179393Y760113D01*
X179432Y760173D01*
X179444Y760224D01*
X179466Y760271D01*
X179474Y760342D01*
X179492Y760412D01*
X179488Y760464D01*
X179494Y760515D01*
X179478Y760586D01*
X179473Y760657D01*
X179452Y760705D01*
X179441Y760756D01*
X179404Y760817D01*
X179376Y760883D01*
X179332Y760939D01*
X179315Y760967D01*
X179297Y760982D01*
X179272Y761014D01*
X175513Y764773D01*
X175513Y771927D01*
X179862Y776276D01*
X179915Y776350D01*
X179975Y776420D01*
X179987Y776450D01*
X180006Y776476D01*
X180033Y776563D01*
X180067Y776648D01*
X180071Y776689D01*
X180078Y776711D01*
X180077Y776743D01*
X180085Y776815D01*
X180085Y810685D01*
X180071Y810775D01*
X180063Y810866D01*
X180051Y810896D01*
X180046Y810928D01*
X180003Y811009D01*
X179967Y811093D01*
X179941Y811125D01*
X179930Y811145D01*
X179907Y811168D01*
X179862Y811224D01*
X175513Y815573D01*
X175513Y822727D01*
X179862Y827076D01*
X179915Y827150D01*
X179975Y827220D01*
X179987Y827250D01*
X180006Y827276D01*
X180033Y827363D01*
X180067Y827448D01*
X180071Y827489D01*
X180078Y827511D01*
X180077Y827543D01*
X180085Y827615D01*
X180085Y861485D01*
X180071Y861575D01*
X180063Y861666D01*
X180051Y861696D01*
X180046Y861728D01*
X180003Y861809D01*
X179967Y861893D01*
X179941Y861925D01*
X179930Y861945D01*
X179907Y861968D01*
X179862Y862024D01*
X175513Y866373D01*
X175513Y873527D01*
X179862Y877876D01*
X179915Y877950D01*
X179975Y878020D01*
X179987Y878050D01*
X180006Y878076D01*
X180033Y878163D01*
X180067Y878248D01*
X180071Y878289D01*
X180078Y878311D01*
X180077Y878343D01*
X180085Y878415D01*
X180085Y886885D01*
X180071Y886975D01*
X180063Y887066D01*
X180051Y887096D01*
X180046Y887128D01*
X180003Y887209D01*
X179967Y887293D01*
X179941Y887325D01*
X179930Y887345D01*
X179907Y887368D01*
X179862Y887424D01*
X175513Y891773D01*
X175513Y898927D01*
X180573Y903987D01*
X187727Y903987D01*
X192787Y898927D01*
X192787Y891773D01*
X188438Y887424D01*
X188385Y887350D01*
X188325Y887280D01*
X188313Y887250D01*
X188294Y887224D01*
X188267Y887137D01*
X188233Y887052D01*
X188229Y887011D01*
X188222Y886989D01*
X188223Y886957D01*
X188215Y886885D01*
X188215Y878415D01*
X188229Y878325D01*
X188237Y878234D01*
X188249Y878204D01*
X188254Y878172D01*
X188297Y878091D01*
X188333Y878007D01*
X188359Y877975D01*
X188370Y877955D01*
X188393Y877932D01*
X188438Y877876D01*
X192787Y873527D01*
X192787Y866373D01*
X188438Y862024D01*
X188385Y861950D01*
X188325Y861880D01*
X188313Y861850D01*
X188294Y861824D01*
X188267Y861737D01*
X188233Y861652D01*
X188229Y861611D01*
X188222Y861589D01*
X188223Y861557D01*
X188215Y861485D01*
X188215Y827615D01*
X188229Y827525D01*
X188237Y827434D01*
X188249Y827404D01*
X188254Y827372D01*
X188297Y827291D01*
X188333Y827207D01*
X188359Y827175D01*
X188370Y827155D01*
X188393Y827132D01*
X188438Y827076D01*
X192787Y822727D01*
X192787Y815573D01*
X188438Y811224D01*
X188385Y811150D01*
X188325Y811080D01*
X188313Y811050D01*
X188294Y811024D01*
X188267Y810937D01*
X188233Y810852D01*
X188229Y810811D01*
X188222Y810789D01*
X188223Y810757D01*
X188215Y810685D01*
X188215Y776815D01*
X188229Y776725D01*
X188237Y776634D01*
X188249Y776604D01*
X188254Y776572D01*
X188297Y776491D01*
X188333Y776407D01*
X188359Y776375D01*
X188370Y776355D01*
X188393Y776332D01*
X188438Y776276D01*
X192787Y771927D01*
X192787Y764773D01*
X189028Y761014D01*
X188987Y760956D01*
X188937Y760904D01*
X188915Y760857D01*
X188885Y760815D01*
X188864Y760746D01*
X188834Y760681D01*
X188828Y760629D01*
X188813Y760579D01*
X188814Y760508D01*
X188806Y760437D01*
X188818Y760386D01*
X188819Y760334D01*
X188844Y760266D01*
X188859Y760196D01*
X188885Y760151D01*
X188903Y760103D01*
X188948Y760047D01*
X188985Y759985D01*
X189024Y759951D01*
X189057Y759911D01*
X189117Y759872D01*
X189172Y759825D01*
X189220Y759806D01*
X189264Y759778D01*
X189333Y759760D01*
X189400Y759733D01*
X189471Y759725D01*
X189502Y759717D01*
X189526Y759719D01*
X189567Y759715D01*
X198534Y759715D01*
X219965Y738284D01*
X219965Y694149D01*
X219979Y694059D01*
X219987Y693968D01*
X219999Y693938D01*
X220004Y693906D01*
X220047Y693826D01*
X220083Y693742D01*
X220109Y693710D01*
X220120Y693689D01*
X220143Y693667D01*
X220188Y693611D01*
X230061Y683738D01*
X230135Y683685D01*
X230204Y683625D01*
X230234Y683613D01*
X230260Y683594D01*
X230347Y683567D01*
X230432Y683533D01*
X230473Y683529D01*
X230496Y683522D01*
X230528Y683523D01*
X230599Y683515D01*
X254933Y683515D01*
X255004Y683526D01*
X255076Y683528D01*
X255125Y683546D01*
X255176Y683554D01*
X255239Y683588D01*
X255307Y683613D01*
X255347Y683645D01*
X255393Y683670D01*
X255443Y683722D01*
X255499Y683766D01*
X255527Y683810D01*
X255563Y683848D01*
X255593Y683913D01*
X255632Y683973D01*
X255644Y684024D01*
X255666Y684071D01*
X255674Y684142D01*
X255692Y684212D01*
X255688Y684264D01*
X255694Y684315D01*
X255678Y684386D01*
X255673Y684457D01*
X255652Y684505D01*
X255641Y684556D01*
X255604Y684617D01*
X255576Y684683D01*
X255532Y684739D01*
X255515Y684767D01*
X255497Y684782D01*
X255472Y684814D01*
X251713Y688573D01*
X251713Y695727D01*
X256773Y700787D01*
X262923Y700787D01*
X263013Y700801D01*
X263104Y700809D01*
X263134Y700821D01*
X263166Y700826D01*
X263246Y700869D01*
X263330Y700905D01*
X263362Y700931D01*
X263383Y700942D01*
X263405Y700965D01*
X263461Y701010D01*
X281462Y719011D01*
X281515Y719085D01*
X281575Y719154D01*
X281587Y719184D01*
X281606Y719210D01*
X281633Y719297D01*
X281667Y719382D01*
X281671Y719423D01*
X281678Y719446D01*
X281677Y719478D01*
X281685Y719549D01*
X281685Y757334D01*
X285628Y761277D01*
X285640Y761293D01*
X285656Y761305D01*
X285712Y761393D01*
X285772Y761477D01*
X285778Y761496D01*
X285789Y761512D01*
X285814Y761613D01*
X285844Y761712D01*
X285844Y761732D01*
X285849Y761751D01*
X285841Y761854D01*
X285838Y761958D01*
X285831Y761976D01*
X285830Y761996D01*
X285789Y762091D01*
X285754Y762189D01*
X285741Y762204D01*
X285733Y762222D01*
X285628Y762353D01*
X284524Y763458D01*
X283209Y766632D01*
X283209Y770068D01*
X284524Y773242D01*
X286954Y775672D01*
X290128Y776987D01*
X306772Y776987D01*
X309946Y775672D01*
X312376Y773242D01*
X313691Y770068D01*
X313691Y766632D01*
X312376Y763458D01*
X309946Y761028D01*
X306772Y759713D01*
X295877Y759713D01*
X295787Y759699D01*
X295696Y759691D01*
X295666Y759679D01*
X295634Y759674D01*
X295554Y759631D01*
X295470Y759595D01*
X295438Y759569D01*
X295417Y759558D01*
X295395Y759535D01*
X295339Y759490D01*
X290038Y754189D01*
X289985Y754115D01*
X289925Y754046D01*
X289913Y754016D01*
X289894Y753990D01*
X289867Y753903D01*
X289833Y753818D01*
X289829Y753777D01*
X289822Y753754D01*
X289823Y753722D01*
X289815Y753651D01*
X289815Y715866D01*
X269210Y695261D01*
X269157Y695187D01*
X269097Y695118D01*
X269085Y695088D01*
X269066Y695062D01*
X269039Y694975D01*
X269005Y694890D01*
X269001Y694849D01*
X268994Y694826D01*
X268995Y694794D01*
X268987Y694723D01*
X268987Y688573D01*
X265228Y684814D01*
X265187Y684756D01*
X265137Y684704D01*
X265115Y684657D01*
X265085Y684615D01*
X265064Y684546D01*
X265034Y684481D01*
X265028Y684429D01*
X265013Y684379D01*
X265014Y684308D01*
X265006Y684237D01*
X265018Y684186D01*
X265019Y684134D01*
X265044Y684066D01*
X265059Y683996D01*
X265085Y683951D01*
X265103Y683903D01*
X265148Y683847D01*
X265185Y683785D01*
X265224Y683751D01*
X265257Y683711D01*
X265317Y683672D01*
X265372Y683625D01*
X265420Y683606D01*
X265464Y683578D01*
X265533Y683560D01*
X265600Y683533D01*
X265671Y683525D01*
X265702Y683517D01*
X265726Y683519D01*
X265767Y683515D01*
X334551Y683515D01*
X334641Y683529D01*
X334732Y683537D01*
X334762Y683549D01*
X334794Y683554D01*
X334874Y683597D01*
X334958Y683633D01*
X334990Y683659D01*
X335011Y683670D01*
X335033Y683693D01*
X335089Y683738D01*
X341216Y689865D01*
X359951Y689865D01*
X360041Y689879D01*
X360132Y689887D01*
X360162Y689899D01*
X360194Y689904D01*
X360274Y689947D01*
X360358Y689983D01*
X360390Y690009D01*
X360411Y690020D01*
X360433Y690043D01*
X360489Y690088D01*
X365790Y695389D01*
X365843Y695463D01*
X365903Y695532D01*
X365915Y695562D01*
X365934Y695588D01*
X365961Y695675D01*
X365995Y695760D01*
X365999Y695801D01*
X366006Y695824D01*
X366005Y695856D01*
X366013Y695927D01*
X366013Y702077D01*
X371073Y707137D01*
X378227Y707137D01*
X383287Y702077D01*
X383287Y694923D01*
X378227Y689863D01*
X372077Y689863D01*
X371987Y689849D01*
X371896Y689841D01*
X371866Y689829D01*
X371834Y689824D01*
X371754Y689781D01*
X371670Y689745D01*
X371638Y689719D01*
X371617Y689708D01*
X371595Y689685D01*
X371539Y689640D01*
X366238Y684339D01*
X366185Y684265D01*
X366125Y684196D01*
X366113Y684166D01*
X366094Y684140D01*
X366067Y684053D01*
X366033Y683968D01*
X366029Y683927D01*
X366022Y683905D01*
X366023Y683872D01*
X366015Y683801D01*
X366015Y675215D01*
X366029Y675125D01*
X366037Y675034D01*
X366049Y675004D01*
X366054Y674972D01*
X366097Y674891D01*
X366133Y674807D01*
X366159Y674775D01*
X366170Y674755D01*
X366193Y674732D01*
X366238Y674676D01*
X370587Y670327D01*
X370587Y663173D01*
X365527Y658113D01*
X358373Y658113D01*
G37*
%LPD*%
%LPC*%
G36*
X307573Y54863D02*
X307573Y54863D01*
X302513Y59923D01*
X302513Y67077D01*
X307573Y72137D01*
X312286Y72137D01*
X312376Y72151D01*
X312467Y72159D01*
X312497Y72171D01*
X312529Y72176D01*
X312610Y72219D01*
X312693Y72255D01*
X312726Y72281D01*
X312746Y72292D01*
X312768Y72315D01*
X312824Y72360D01*
X324896Y84432D01*
X324949Y84505D01*
X325009Y84575D01*
X325021Y84605D01*
X325040Y84631D01*
X325067Y84718D01*
X325101Y84803D01*
X325105Y84844D01*
X325112Y84866D01*
X325111Y84899D01*
X325119Y84970D01*
X325119Y165608D01*
X325116Y165628D01*
X325118Y165647D01*
X325096Y165749D01*
X325080Y165851D01*
X325070Y165868D01*
X325066Y165888D01*
X325013Y165977D01*
X324964Y166068D01*
X324950Y166082D01*
X324940Y166099D01*
X324861Y166166D01*
X324786Y166238D01*
X324768Y166246D01*
X324753Y166259D01*
X324657Y166298D01*
X324563Y166341D01*
X324543Y166343D01*
X324525Y166351D01*
X324358Y166369D01*
X312503Y166369D01*
X312413Y166355D01*
X312322Y166347D01*
X312292Y166335D01*
X312260Y166330D01*
X312179Y166287D01*
X312095Y166251D01*
X312063Y166225D01*
X312043Y166214D01*
X312021Y166191D01*
X311964Y166146D01*
X309946Y164128D01*
X306772Y162813D01*
X290128Y162813D01*
X286954Y164128D01*
X284524Y166558D01*
X283209Y169732D01*
X283209Y173168D01*
X284524Y176342D01*
X286954Y178772D01*
X290128Y180087D01*
X306772Y180087D01*
X309946Y178772D01*
X311964Y176754D01*
X312038Y176701D01*
X312108Y176641D01*
X312138Y176629D01*
X312164Y176610D01*
X312251Y176583D01*
X312336Y176549D01*
X312377Y176545D01*
X312399Y176538D01*
X312431Y176539D01*
X312503Y176531D01*
X324358Y176531D01*
X324378Y176534D01*
X324397Y176532D01*
X324499Y176554D01*
X324601Y176570D01*
X324618Y176580D01*
X324638Y176584D01*
X324727Y176637D01*
X324818Y176686D01*
X324832Y176700D01*
X324849Y176710D01*
X324916Y176789D01*
X324988Y176864D01*
X324996Y176882D01*
X325009Y176897D01*
X325048Y176993D01*
X325091Y177087D01*
X325093Y177107D01*
X325101Y177125D01*
X325119Y177292D01*
X325119Y416680D01*
X325117Y416695D01*
X325118Y416708D01*
X325104Y416771D01*
X325097Y416861D01*
X325085Y416891D01*
X325080Y416923D01*
X325037Y417004D01*
X325001Y417087D01*
X324975Y417120D01*
X324964Y417140D01*
X324941Y417162D01*
X324896Y417218D01*
X309268Y432846D01*
X309195Y432899D01*
X309125Y432959D01*
X309095Y432971D01*
X309069Y432990D01*
X308982Y433017D01*
X308897Y433051D01*
X308856Y433055D01*
X308834Y433062D01*
X308801Y433061D01*
X308730Y433069D01*
X258245Y433069D01*
X255046Y436268D01*
X239418Y451896D01*
X236219Y455095D01*
X236219Y480783D01*
X236205Y480873D01*
X236197Y480964D01*
X236185Y480994D01*
X236180Y481026D01*
X236137Y481106D01*
X236101Y481190D01*
X236075Y481222D01*
X236064Y481243D01*
X236041Y481265D01*
X235996Y481321D01*
X232155Y485162D01*
X232155Y492738D01*
X234687Y495270D01*
X234729Y495328D01*
X234778Y495380D01*
X234800Y495427D01*
X234831Y495469D01*
X234852Y495538D01*
X234882Y495603D01*
X234888Y495655D01*
X234903Y495705D01*
X234901Y495776D01*
X234909Y495847D01*
X234898Y495898D01*
X234897Y495950D01*
X234872Y496018D01*
X234857Y496088D01*
X234830Y496133D01*
X234812Y496181D01*
X234767Y496237D01*
X234731Y496299D01*
X234691Y496333D01*
X234659Y496373D01*
X234598Y496412D01*
X234544Y496459D01*
X234495Y496478D01*
X234452Y496506D01*
X234382Y496524D01*
X234316Y496551D01*
X234244Y496559D01*
X234213Y496567D01*
X234190Y496565D01*
X234149Y496569D01*
X168015Y496569D01*
X167900Y496550D01*
X167784Y496533D01*
X167778Y496531D01*
X167772Y496530D01*
X167669Y496475D01*
X167564Y496422D01*
X167560Y496417D01*
X167554Y496414D01*
X167475Y496330D01*
X167392Y496246D01*
X167389Y496240D01*
X167385Y496236D01*
X167377Y496219D01*
X167311Y496099D01*
X167256Y495966D01*
X164434Y493144D01*
X160746Y491616D01*
X156754Y491616D01*
X153066Y493144D01*
X150244Y495966D01*
X148716Y499654D01*
X148716Y503646D01*
X150244Y507334D01*
X153066Y510156D01*
X156754Y511684D01*
X160746Y511684D01*
X164434Y510156D01*
X167256Y507334D01*
X167311Y507201D01*
X167373Y507101D01*
X167433Y507001D01*
X167438Y506997D01*
X167441Y506992D01*
X167531Y506917D01*
X167620Y506841D01*
X167626Y506839D01*
X167630Y506835D01*
X167738Y506793D01*
X167848Y506749D01*
X167855Y506748D01*
X167860Y506747D01*
X167878Y506746D01*
X168015Y506731D01*
X234149Y506731D01*
X234220Y506742D01*
X234291Y506744D01*
X234340Y506762D01*
X234392Y506770D01*
X234455Y506804D01*
X234522Y506829D01*
X234563Y506861D01*
X234609Y506886D01*
X234658Y506938D01*
X234714Y506982D01*
X234743Y507026D01*
X234778Y507064D01*
X234809Y507129D01*
X234847Y507189D01*
X234860Y507240D01*
X234882Y507287D01*
X234890Y507358D01*
X234907Y507428D01*
X234903Y507480D01*
X234909Y507531D01*
X234894Y507602D01*
X234888Y507673D01*
X234868Y507721D01*
X234857Y507772D01*
X234820Y507833D01*
X234792Y507899D01*
X234747Y507955D01*
X234731Y507983D01*
X234713Y507998D01*
X234687Y508030D01*
X232155Y510562D01*
X232155Y518138D01*
X235996Y521979D01*
X236044Y522045D01*
X236052Y522054D01*
X236055Y522059D01*
X236109Y522122D01*
X236121Y522152D01*
X236140Y522179D01*
X236167Y522266D01*
X236201Y522350D01*
X236205Y522391D01*
X236212Y522414D01*
X236211Y522446D01*
X236219Y522517D01*
X236219Y572008D01*
X236216Y572028D01*
X236218Y572047D01*
X236196Y572149D01*
X236180Y572251D01*
X236170Y572268D01*
X236166Y572288D01*
X236113Y572377D01*
X236064Y572468D01*
X236050Y572482D01*
X236040Y572499D01*
X235961Y572566D01*
X235886Y572638D01*
X235868Y572646D01*
X235853Y572659D01*
X235757Y572698D01*
X235663Y572741D01*
X235643Y572743D01*
X235625Y572751D01*
X235458Y572769D01*
X231515Y572769D01*
X231400Y572750D01*
X231284Y572733D01*
X231278Y572731D01*
X231272Y572730D01*
X231169Y572675D01*
X231064Y572622D01*
X231060Y572617D01*
X231054Y572614D01*
X230975Y572530D01*
X230892Y572446D01*
X230889Y572440D01*
X230885Y572436D01*
X230877Y572419D01*
X230811Y572299D01*
X230756Y572166D01*
X227934Y569344D01*
X224246Y567816D01*
X220254Y567816D01*
X216566Y569344D01*
X213744Y572166D01*
X212216Y575854D01*
X212216Y579846D01*
X213744Y583534D01*
X216566Y586356D01*
X220254Y587884D01*
X224246Y587884D01*
X227934Y586356D01*
X230756Y583534D01*
X230811Y583401D01*
X230873Y583301D01*
X230933Y583201D01*
X230938Y583197D01*
X230941Y583192D01*
X231031Y583117D01*
X231120Y583041D01*
X231126Y583039D01*
X231130Y583035D01*
X231238Y582993D01*
X231348Y582949D01*
X231355Y582948D01*
X231360Y582947D01*
X231378Y582946D01*
X231515Y582931D01*
X238880Y582931D01*
X238970Y582945D01*
X239061Y582953D01*
X239091Y582965D01*
X239123Y582970D01*
X239204Y583013D01*
X239287Y583049D01*
X239320Y583075D01*
X239340Y583086D01*
X239362Y583109D01*
X239418Y583154D01*
X251895Y595631D01*
X271951Y595631D01*
X272041Y595645D01*
X272132Y595653D01*
X272162Y595665D01*
X272194Y595670D01*
X272275Y595713D01*
X272359Y595749D01*
X272391Y595775D01*
X272411Y595786D01*
X272434Y595809D01*
X272490Y595854D01*
X275823Y599187D01*
X282977Y599187D01*
X288037Y594127D01*
X288037Y586973D01*
X282977Y581913D01*
X275823Y581913D01*
X272490Y585246D01*
X272416Y585299D01*
X272346Y585359D01*
X272316Y585371D01*
X272290Y585390D01*
X272203Y585417D01*
X272118Y585451D01*
X272077Y585455D01*
X272055Y585462D01*
X272023Y585461D01*
X271951Y585469D01*
X256420Y585469D01*
X256330Y585455D01*
X256239Y585447D01*
X256209Y585435D01*
X256177Y585430D01*
X256096Y585387D01*
X256013Y585351D01*
X255980Y585325D01*
X255960Y585314D01*
X255938Y585291D01*
X255882Y585246D01*
X246604Y575968D01*
X246551Y575895D01*
X246491Y575825D01*
X246479Y575795D01*
X246460Y575769D01*
X246433Y575682D01*
X246399Y575597D01*
X246395Y575556D01*
X246388Y575534D01*
X246389Y575501D01*
X246381Y575430D01*
X246381Y522517D01*
X246395Y522427D01*
X246403Y522336D01*
X246415Y522306D01*
X246420Y522274D01*
X246463Y522194D01*
X246499Y522110D01*
X246525Y522078D01*
X246536Y522057D01*
X246559Y522035D01*
X246604Y521979D01*
X250445Y518138D01*
X250445Y510562D01*
X246604Y506721D01*
X246551Y506647D01*
X246491Y506578D01*
X246479Y506548D01*
X246460Y506521D01*
X246433Y506434D01*
X246399Y506350D01*
X246395Y506309D01*
X246388Y506286D01*
X246389Y506254D01*
X246381Y506183D01*
X246381Y497117D01*
X246395Y497027D01*
X246403Y496936D01*
X246415Y496906D01*
X246420Y496874D01*
X246463Y496794D01*
X246499Y496710D01*
X246525Y496678D01*
X246536Y496657D01*
X246559Y496635D01*
X246604Y496579D01*
X250445Y492738D01*
X250445Y485162D01*
X246604Y481321D01*
X246551Y481247D01*
X246491Y481178D01*
X246479Y481148D01*
X246460Y481121D01*
X246433Y481034D01*
X246399Y480950D01*
X246395Y480909D01*
X246388Y480886D01*
X246389Y480854D01*
X246381Y480783D01*
X246381Y459620D01*
X246395Y459530D01*
X246403Y459439D01*
X246415Y459409D01*
X246420Y459377D01*
X246463Y459296D01*
X246499Y459212D01*
X246525Y459180D01*
X246536Y459160D01*
X246559Y459137D01*
X246604Y459082D01*
X262232Y443454D01*
X262305Y443401D01*
X262375Y443341D01*
X262405Y443329D01*
X262431Y443310D01*
X262518Y443283D01*
X262603Y443249D01*
X262644Y443245D01*
X262666Y443238D01*
X262699Y443239D01*
X262770Y443231D01*
X313255Y443231D01*
X335281Y421205D01*
X335281Y80445D01*
X320010Y65174D01*
X319957Y65101D01*
X319897Y65031D01*
X319885Y65001D01*
X319866Y64975D01*
X319839Y64888D01*
X319805Y64803D01*
X319801Y64762D01*
X319794Y64740D01*
X319795Y64707D01*
X319787Y64636D01*
X319787Y59923D01*
X314727Y54863D01*
X307573Y54863D01*
G37*
%LPD*%
%LPC*%
G36*
X52836Y497185D02*
X52836Y497185D01*
X46735Y503286D01*
X46735Y511914D01*
X52836Y518015D01*
X59664Y518015D01*
X59754Y518029D01*
X59845Y518037D01*
X59875Y518049D01*
X59907Y518054D01*
X59988Y518097D01*
X60072Y518133D01*
X60104Y518159D01*
X60124Y518170D01*
X60147Y518193D01*
X60202Y518238D01*
X166146Y624182D01*
X169345Y627381D01*
X294205Y627381D01*
X297404Y624182D01*
X306682Y614904D01*
X309881Y611705D01*
X309881Y597999D01*
X309895Y597909D01*
X309903Y597818D01*
X309915Y597788D01*
X309920Y597756D01*
X309963Y597675D01*
X309999Y597591D01*
X310025Y597559D01*
X310036Y597539D01*
X310059Y597516D01*
X310104Y597460D01*
X313437Y594127D01*
X313437Y589414D01*
X313451Y589324D01*
X313459Y589233D01*
X313471Y589203D01*
X313476Y589171D01*
X313519Y589090D01*
X313555Y589007D01*
X313581Y588974D01*
X313592Y588954D01*
X313615Y588932D01*
X313660Y588876D01*
X319382Y583154D01*
X319455Y583101D01*
X319525Y583041D01*
X319555Y583029D01*
X319581Y583010D01*
X319668Y582983D01*
X319753Y582949D01*
X319794Y582945D01*
X319816Y582938D01*
X319849Y582939D01*
X319920Y582931D01*
X352685Y582931D01*
X352801Y582950D01*
X352916Y582967D01*
X352922Y582969D01*
X352928Y582970D01*
X353031Y583025D01*
X353136Y583078D01*
X353140Y583083D01*
X353146Y583086D01*
X353225Y583170D01*
X353308Y583254D01*
X353312Y583260D01*
X353315Y583264D01*
X353323Y583281D01*
X353389Y583401D01*
X353444Y583534D01*
X356266Y586356D01*
X359954Y587884D01*
X363946Y587884D01*
X367634Y586356D01*
X370456Y583534D01*
X370511Y583401D01*
X370573Y583301D01*
X370633Y583201D01*
X370637Y583197D01*
X370641Y583192D01*
X370731Y583117D01*
X370820Y583041D01*
X370826Y583039D01*
X370830Y583035D01*
X370939Y582993D01*
X371048Y582949D01*
X371055Y582948D01*
X371060Y582947D01*
X371078Y582946D01*
X371215Y582931D01*
X403980Y582931D01*
X404070Y582945D01*
X404161Y582953D01*
X404191Y582965D01*
X404223Y582970D01*
X404304Y583013D01*
X404388Y583049D01*
X404420Y583075D01*
X404440Y583086D01*
X404463Y583109D01*
X404518Y583154D01*
X413796Y592432D01*
X413849Y592505D01*
X413909Y592575D01*
X413921Y592605D01*
X413940Y592631D01*
X413967Y592718D01*
X414001Y592803D01*
X414005Y592844D01*
X414012Y592866D01*
X414011Y592899D01*
X414019Y592970D01*
X414019Y759085D01*
X414000Y759201D01*
X413983Y759316D01*
X413981Y759322D01*
X413980Y759328D01*
X413925Y759431D01*
X413872Y759536D01*
X413867Y759540D01*
X413864Y759546D01*
X413780Y759625D01*
X413696Y759708D01*
X413690Y759712D01*
X413686Y759715D01*
X413669Y759723D01*
X413549Y759789D01*
X413416Y759844D01*
X410594Y762666D01*
X410539Y762799D01*
X410477Y762899D01*
X410417Y762999D01*
X410413Y763003D01*
X410409Y763008D01*
X410319Y763083D01*
X410230Y763159D01*
X410224Y763161D01*
X410220Y763165D01*
X410111Y763207D01*
X410002Y763251D01*
X409995Y763252D01*
X409990Y763253D01*
X409972Y763254D01*
X409835Y763269D01*
X388703Y763269D01*
X388613Y763255D01*
X388522Y763247D01*
X388492Y763235D01*
X388460Y763230D01*
X388379Y763187D01*
X388295Y763151D01*
X388263Y763125D01*
X388243Y763114D01*
X388221Y763091D01*
X388164Y763046D01*
X386146Y761028D01*
X382972Y759713D01*
X380492Y759713D01*
X380472Y759710D01*
X380453Y759712D01*
X380351Y759690D01*
X380249Y759674D01*
X380232Y759664D01*
X380212Y759660D01*
X380123Y759607D01*
X380032Y759558D01*
X380018Y759544D01*
X380001Y759534D01*
X379934Y759455D01*
X379862Y759380D01*
X379854Y759362D01*
X379841Y759347D01*
X379802Y759251D01*
X379759Y759157D01*
X379757Y759137D01*
X379749Y759119D01*
X379731Y758952D01*
X379731Y740845D01*
X370810Y731924D01*
X370757Y731851D01*
X370697Y731781D01*
X370685Y731751D01*
X370666Y731725D01*
X370639Y731638D01*
X370605Y731553D01*
X370601Y731512D01*
X370594Y731490D01*
X370595Y731457D01*
X370587Y731386D01*
X370587Y726673D01*
X365527Y721613D01*
X358373Y721613D01*
X353313Y726673D01*
X353313Y733827D01*
X358373Y738887D01*
X363086Y738887D01*
X363176Y738901D01*
X363267Y738909D01*
X363297Y738921D01*
X363329Y738926D01*
X363410Y738969D01*
X363493Y739005D01*
X363526Y739031D01*
X363546Y739042D01*
X363568Y739065D01*
X363624Y739110D01*
X369346Y744832D01*
X369399Y744905D01*
X369459Y744975D01*
X369471Y745005D01*
X369490Y745031D01*
X369517Y745118D01*
X369551Y745203D01*
X369555Y745244D01*
X369562Y745266D01*
X369561Y745299D01*
X369569Y745370D01*
X369569Y758952D01*
X369566Y758972D01*
X369568Y758991D01*
X369546Y759093D01*
X369530Y759195D01*
X369520Y759212D01*
X369516Y759232D01*
X369463Y759321D01*
X369414Y759412D01*
X369400Y759426D01*
X369390Y759443D01*
X369311Y759510D01*
X369236Y759582D01*
X369218Y759590D01*
X369203Y759603D01*
X369107Y759642D01*
X369013Y759685D01*
X368993Y759687D01*
X368975Y759695D01*
X368808Y759713D01*
X366328Y759713D01*
X363154Y761028D01*
X360724Y763458D01*
X359409Y766632D01*
X359409Y770068D01*
X360724Y773242D01*
X363154Y775672D01*
X366328Y776987D01*
X382972Y776987D01*
X386146Y775672D01*
X388164Y773654D01*
X388238Y773601D01*
X388308Y773541D01*
X388338Y773529D01*
X388364Y773510D01*
X388451Y773483D01*
X388536Y773449D01*
X388577Y773445D01*
X388599Y773438D01*
X388631Y773439D01*
X388703Y773431D01*
X409835Y773431D01*
X409951Y773450D01*
X410066Y773467D01*
X410072Y773469D01*
X410078Y773470D01*
X410181Y773525D01*
X410286Y773578D01*
X410290Y773583D01*
X410296Y773586D01*
X410375Y773670D01*
X410458Y773754D01*
X410462Y773760D01*
X410465Y773764D01*
X410473Y773781D01*
X410539Y773901D01*
X410594Y774034D01*
X413416Y776856D01*
X417104Y778384D01*
X421096Y778384D01*
X424784Y776856D01*
X427606Y774034D01*
X429134Y770346D01*
X429134Y766354D01*
X427606Y762666D01*
X424784Y759844D01*
X424651Y759789D01*
X424551Y759727D01*
X424451Y759667D01*
X424447Y759663D01*
X424442Y759659D01*
X424367Y759569D01*
X424291Y759480D01*
X424289Y759474D01*
X424285Y759470D01*
X424243Y759361D01*
X424199Y759252D01*
X424198Y759245D01*
X424197Y759240D01*
X424196Y759222D01*
X424181Y759085D01*
X424181Y588445D01*
X420982Y585246D01*
X411704Y575968D01*
X408505Y572769D01*
X371215Y572769D01*
X371099Y572750D01*
X370984Y572733D01*
X370978Y572731D01*
X370972Y572730D01*
X370869Y572675D01*
X370764Y572622D01*
X370760Y572617D01*
X370754Y572614D01*
X370675Y572530D01*
X370592Y572446D01*
X370588Y572440D01*
X370585Y572436D01*
X370577Y572419D01*
X370511Y572299D01*
X370456Y572166D01*
X367634Y569344D01*
X363946Y567816D01*
X359954Y567816D01*
X356266Y569344D01*
X353444Y572166D01*
X353389Y572299D01*
X353327Y572399D01*
X353267Y572499D01*
X353263Y572503D01*
X353259Y572508D01*
X353169Y572583D01*
X353080Y572659D01*
X353074Y572661D01*
X353070Y572665D01*
X352961Y572707D01*
X352852Y572751D01*
X352845Y572752D01*
X352840Y572753D01*
X352822Y572754D01*
X352685Y572769D01*
X315395Y572769D01*
X306474Y581690D01*
X306401Y581743D01*
X306331Y581803D01*
X306301Y581815D01*
X306275Y581834D01*
X306188Y581861D01*
X306103Y581895D01*
X306062Y581899D01*
X306040Y581906D01*
X306007Y581905D01*
X305936Y581913D01*
X301223Y581913D01*
X296163Y586973D01*
X296163Y594127D01*
X299496Y597460D01*
X299549Y597534D01*
X299609Y597604D01*
X299621Y597634D01*
X299640Y597660D01*
X299667Y597747D01*
X299701Y597832D01*
X299705Y597873D01*
X299712Y597895D01*
X299711Y597927D01*
X299719Y597999D01*
X299719Y607180D01*
X299705Y607270D01*
X299697Y607361D01*
X299685Y607391D01*
X299680Y607423D01*
X299637Y607504D01*
X299601Y607587D01*
X299575Y607620D01*
X299564Y607640D01*
X299541Y607662D01*
X299496Y607718D01*
X290218Y616996D01*
X290144Y617049D01*
X290075Y617109D01*
X290045Y617121D01*
X290019Y617140D01*
X289932Y617167D01*
X289847Y617201D01*
X289806Y617205D01*
X289784Y617212D01*
X289751Y617211D01*
X289680Y617219D01*
X173870Y617219D01*
X173780Y617205D01*
X173689Y617197D01*
X173659Y617185D01*
X173627Y617180D01*
X173546Y617137D01*
X173463Y617101D01*
X173430Y617075D01*
X173410Y617064D01*
X173388Y617041D01*
X173332Y616996D01*
X67788Y511452D01*
X67735Y511379D01*
X67675Y511309D01*
X67663Y511279D01*
X67644Y511253D01*
X67617Y511166D01*
X67583Y511081D01*
X67579Y511040D01*
X67572Y511018D01*
X67573Y510985D01*
X67565Y510914D01*
X67565Y503286D01*
X61464Y497185D01*
X52836Y497185D01*
G37*
%LPD*%
%LPC*%
G36*
X366328Y162813D02*
X366328Y162813D01*
X363154Y164128D01*
X361135Y166146D01*
X361062Y166199D01*
X360992Y166259D01*
X360962Y166271D01*
X360936Y166290D01*
X360849Y166317D01*
X360764Y166351D01*
X360723Y166355D01*
X360701Y166362D01*
X360668Y166361D01*
X360597Y166369D01*
X353495Y166369D01*
X337819Y182045D01*
X337819Y480783D01*
X337805Y480873D01*
X337797Y480964D01*
X337785Y480994D01*
X337780Y481026D01*
X337737Y481106D01*
X337701Y481190D01*
X337675Y481222D01*
X337664Y481243D01*
X337641Y481265D01*
X337596Y481321D01*
X333755Y485162D01*
X333755Y492738D01*
X337596Y496579D01*
X337649Y496653D01*
X337709Y496722D01*
X337721Y496752D01*
X337740Y496779D01*
X337767Y496866D01*
X337801Y496950D01*
X337805Y496991D01*
X337812Y497014D01*
X337811Y497046D01*
X337819Y497117D01*
X337819Y506183D01*
X337805Y506273D01*
X337797Y506364D01*
X337785Y506394D01*
X337780Y506426D01*
X337737Y506506D01*
X337701Y506590D01*
X337675Y506622D01*
X337664Y506643D01*
X337641Y506665D01*
X337596Y506721D01*
X333755Y510562D01*
X333755Y518138D01*
X339112Y523495D01*
X346688Y523495D01*
X352045Y518138D01*
X352045Y510562D01*
X349513Y508030D01*
X349471Y507972D01*
X349422Y507920D01*
X349400Y507873D01*
X349369Y507831D01*
X349348Y507762D01*
X349318Y507697D01*
X349312Y507645D01*
X349297Y507595D01*
X349299Y507524D01*
X349291Y507453D01*
X349302Y507402D01*
X349303Y507350D01*
X349328Y507282D01*
X349343Y507212D01*
X349370Y507167D01*
X349388Y507119D01*
X349433Y507063D01*
X349469Y507001D01*
X349509Y506967D01*
X349541Y506927D01*
X349602Y506888D01*
X349656Y506841D01*
X349705Y506822D01*
X349748Y506794D01*
X349818Y506776D01*
X349884Y506749D01*
X349956Y506741D01*
X349987Y506733D01*
X350010Y506735D01*
X350051Y506731D01*
X416026Y506731D01*
X416116Y506745D01*
X416207Y506753D01*
X416236Y506765D01*
X416268Y506770D01*
X416349Y506813D01*
X416433Y506849D01*
X416465Y506875D01*
X416486Y506886D01*
X416508Y506909D01*
X416564Y506954D01*
X421294Y511684D01*
X429606Y511684D01*
X435484Y505806D01*
X435484Y497494D01*
X429606Y491616D01*
X421294Y491616D01*
X416564Y496346D01*
X416490Y496399D01*
X416420Y496459D01*
X416390Y496471D01*
X416364Y496490D01*
X416277Y496517D01*
X416192Y496551D01*
X416151Y496555D01*
X416129Y496562D01*
X416097Y496561D01*
X416026Y496569D01*
X350051Y496569D01*
X349980Y496558D01*
X349909Y496556D01*
X349860Y496538D01*
X349808Y496530D01*
X349745Y496496D01*
X349678Y496471D01*
X349637Y496439D01*
X349591Y496414D01*
X349542Y496362D01*
X349486Y496318D01*
X349457Y496274D01*
X349422Y496236D01*
X349391Y496171D01*
X349353Y496111D01*
X349340Y496060D01*
X349318Y496013D01*
X349310Y495942D01*
X349293Y495872D01*
X349297Y495820D01*
X349291Y495769D01*
X349306Y495698D01*
X349312Y495627D01*
X349332Y495579D01*
X349343Y495528D01*
X349380Y495467D01*
X349408Y495401D01*
X349453Y495345D01*
X349469Y495317D01*
X349487Y495302D01*
X349513Y495270D01*
X352045Y492738D01*
X352045Y485162D01*
X348204Y481321D01*
X348151Y481247D01*
X348091Y481178D01*
X348079Y481148D01*
X348060Y481121D01*
X348033Y481034D01*
X347999Y480950D01*
X347995Y480909D01*
X347988Y480886D01*
X347989Y480854D01*
X347981Y480783D01*
X347981Y285242D01*
X347984Y285222D01*
X347982Y285203D01*
X348004Y285101D01*
X348020Y284999D01*
X348030Y284982D01*
X348034Y284962D01*
X348087Y284873D01*
X348136Y284782D01*
X348150Y284768D01*
X348160Y284751D01*
X348239Y284684D01*
X348314Y284612D01*
X348332Y284604D01*
X348347Y284591D01*
X348443Y284552D01*
X348537Y284509D01*
X348557Y284507D01*
X348575Y284499D01*
X348742Y284481D01*
X354501Y284481D01*
X354591Y284495D01*
X354682Y284503D01*
X354712Y284515D01*
X354744Y284520D01*
X354825Y284563D01*
X354909Y284599D01*
X354941Y284625D01*
X354961Y284636D01*
X354984Y284659D01*
X355040Y284704D01*
X358373Y288037D01*
X365527Y288037D01*
X370587Y282977D01*
X370587Y275823D01*
X365527Y270763D01*
X358373Y270763D01*
X355040Y274096D01*
X354966Y274149D01*
X354896Y274209D01*
X354866Y274221D01*
X354840Y274240D01*
X354753Y274267D01*
X354668Y274301D01*
X354627Y274305D01*
X354605Y274312D01*
X354573Y274311D01*
X354501Y274319D01*
X348742Y274319D01*
X348722Y274316D01*
X348703Y274318D01*
X348601Y274296D01*
X348499Y274280D01*
X348482Y274270D01*
X348462Y274266D01*
X348373Y274213D01*
X348282Y274164D01*
X348268Y274150D01*
X348251Y274140D01*
X348184Y274061D01*
X348112Y273986D01*
X348104Y273968D01*
X348091Y273953D01*
X348052Y273857D01*
X348009Y273763D01*
X348007Y273743D01*
X347999Y273725D01*
X347981Y273558D01*
X347981Y186570D01*
X347995Y186480D01*
X348003Y186389D01*
X348015Y186359D01*
X348020Y186327D01*
X348063Y186246D01*
X348099Y186163D01*
X348125Y186130D01*
X348136Y186110D01*
X348159Y186088D01*
X348204Y186032D01*
X357482Y176754D01*
X357555Y176701D01*
X357625Y176641D01*
X357655Y176629D01*
X357681Y176610D01*
X357768Y176583D01*
X357853Y176549D01*
X357894Y176545D01*
X357916Y176538D01*
X357949Y176539D01*
X358020Y176531D01*
X360597Y176531D01*
X360687Y176545D01*
X360778Y176553D01*
X360808Y176565D01*
X360840Y176570D01*
X360921Y176613D01*
X361005Y176649D01*
X361037Y176675D01*
X361057Y176686D01*
X361080Y176709D01*
X361135Y176754D01*
X363154Y178772D01*
X366328Y180087D01*
X382972Y180087D01*
X386146Y178772D01*
X388165Y176754D01*
X388238Y176701D01*
X388308Y176641D01*
X388338Y176629D01*
X388364Y176610D01*
X388451Y176583D01*
X388536Y176549D01*
X388577Y176545D01*
X388599Y176538D01*
X388632Y176539D01*
X388703Y176531D01*
X405301Y176531D01*
X405391Y176545D01*
X405482Y176553D01*
X405512Y176565D01*
X405544Y176570D01*
X405625Y176613D01*
X405709Y176649D01*
X405741Y176675D01*
X405761Y176686D01*
X405784Y176709D01*
X405840Y176754D01*
X409173Y180087D01*
X416327Y180087D01*
X421387Y175027D01*
X421387Y167873D01*
X416327Y162813D01*
X409173Y162813D01*
X405840Y166146D01*
X405766Y166199D01*
X405696Y166259D01*
X405666Y166271D01*
X405640Y166290D01*
X405553Y166317D01*
X405468Y166351D01*
X405427Y166355D01*
X405405Y166362D01*
X405373Y166361D01*
X405301Y166369D01*
X388703Y166369D01*
X388613Y166355D01*
X388522Y166347D01*
X388492Y166335D01*
X388460Y166330D01*
X388379Y166287D01*
X388295Y166251D01*
X388263Y166225D01*
X388243Y166214D01*
X388220Y166191D01*
X388165Y166146D01*
X386146Y164128D01*
X382972Y162813D01*
X366328Y162813D01*
G37*
%LPD*%
%LPC*%
G36*
X409173Y112013D02*
X409173Y112013D01*
X404113Y117073D01*
X404113Y124227D01*
X408462Y128576D01*
X408515Y128650D01*
X408575Y128720D01*
X408587Y128750D01*
X408606Y128776D01*
X408633Y128863D01*
X408667Y128948D01*
X408671Y128989D01*
X408678Y129011D01*
X408677Y129043D01*
X408685Y129115D01*
X408685Y137585D01*
X408671Y137675D01*
X408663Y137766D01*
X408651Y137796D01*
X408646Y137828D01*
X408603Y137909D01*
X408567Y137993D01*
X408541Y138025D01*
X408530Y138045D01*
X408507Y138068D01*
X408462Y138124D01*
X404113Y142473D01*
X404113Y149627D01*
X409173Y154687D01*
X416327Y154687D01*
X420676Y150338D01*
X420750Y150285D01*
X420820Y150225D01*
X420850Y150213D01*
X420876Y150194D01*
X420963Y150167D01*
X421048Y150133D01*
X421089Y150129D01*
X421111Y150122D01*
X421143Y150123D01*
X421215Y150115D01*
X439674Y150115D01*
X439694Y150118D01*
X439713Y150116D01*
X439815Y150138D01*
X439917Y150154D01*
X439934Y150164D01*
X439954Y150168D01*
X440043Y150221D01*
X440134Y150270D01*
X440148Y150284D01*
X440165Y150294D01*
X440232Y150373D01*
X440304Y150448D01*
X440312Y150466D01*
X440325Y150481D01*
X440364Y150577D01*
X440407Y150671D01*
X440409Y150691D01*
X440417Y150709D01*
X440435Y150876D01*
X440435Y220251D01*
X440421Y220341D01*
X440413Y220432D01*
X440401Y220462D01*
X440396Y220494D01*
X440353Y220574D01*
X440317Y220658D01*
X440291Y220690D01*
X440280Y220711D01*
X440257Y220733D01*
X440249Y220743D01*
X440241Y220757D01*
X440233Y220764D01*
X440212Y220789D01*
X421385Y239616D01*
X421385Y245573D01*
X421366Y245687D01*
X421349Y245804D01*
X421347Y245809D01*
X421346Y245815D01*
X421291Y245918D01*
X421238Y246023D01*
X421233Y246027D01*
X421230Y246033D01*
X421146Y246113D01*
X421062Y246195D01*
X421056Y246199D01*
X421052Y246202D01*
X421035Y246210D01*
X420915Y246276D01*
X420558Y246424D01*
X418114Y248868D01*
X418056Y248909D01*
X418004Y248959D01*
X417957Y248981D01*
X417915Y249011D01*
X417846Y249032D01*
X417781Y249062D01*
X417729Y249068D01*
X417679Y249083D01*
X417608Y249082D01*
X417537Y249089D01*
X417486Y249078D01*
X417434Y249077D01*
X417366Y249052D01*
X417296Y249037D01*
X417251Y249011D01*
X417203Y248993D01*
X417147Y248948D01*
X417085Y248911D01*
X417051Y248871D01*
X417011Y248839D01*
X416972Y248779D01*
X416925Y248724D01*
X416906Y248676D01*
X416878Y248632D01*
X416860Y248563D01*
X416833Y248496D01*
X416825Y248425D01*
X416817Y248393D01*
X416819Y248370D01*
X416815Y248329D01*
X416815Y230715D01*
X416829Y230625D01*
X416837Y230534D01*
X416849Y230504D01*
X416854Y230472D01*
X416897Y230391D01*
X416933Y230307D01*
X416959Y230275D01*
X416970Y230255D01*
X416993Y230232D01*
X417038Y230176D01*
X421387Y225827D01*
X421387Y218673D01*
X416327Y213613D01*
X409173Y213613D01*
X405414Y217372D01*
X405356Y217413D01*
X405304Y217463D01*
X405257Y217485D01*
X405215Y217515D01*
X405146Y217536D01*
X405081Y217566D01*
X405029Y217572D01*
X404979Y217587D01*
X404908Y217586D01*
X404837Y217594D01*
X404786Y217582D01*
X404734Y217581D01*
X404666Y217556D01*
X404596Y217541D01*
X404551Y217515D01*
X404503Y217497D01*
X404447Y217452D01*
X404385Y217415D01*
X404351Y217376D01*
X404311Y217343D01*
X404272Y217283D01*
X404225Y217228D01*
X404206Y217180D01*
X404178Y217136D01*
X404160Y217067D01*
X404133Y217000D01*
X404125Y216929D01*
X404117Y216898D01*
X404119Y216874D01*
X404115Y216833D01*
X404115Y211549D01*
X404129Y211459D01*
X404137Y211368D01*
X404149Y211338D01*
X404154Y211306D01*
X404197Y211226D01*
X404233Y211142D01*
X404259Y211110D01*
X404270Y211089D01*
X404293Y211067D01*
X404338Y211011D01*
X409639Y205710D01*
X409713Y205657D01*
X409782Y205597D01*
X409812Y205585D01*
X409838Y205566D01*
X409925Y205539D01*
X410010Y205505D01*
X410051Y205501D01*
X410073Y205494D01*
X410106Y205495D01*
X410177Y205487D01*
X416327Y205487D01*
X421387Y200427D01*
X421387Y193273D01*
X416327Y188213D01*
X409173Y188213D01*
X404113Y193273D01*
X404113Y199423D01*
X404099Y199513D01*
X404091Y199604D01*
X404079Y199634D01*
X404074Y199666D01*
X404031Y199746D01*
X403995Y199830D01*
X403969Y199862D01*
X403958Y199883D01*
X403935Y199905D01*
X403890Y199961D01*
X395985Y207866D01*
X395985Y393740D01*
X395971Y393831D01*
X395963Y393921D01*
X395951Y393951D01*
X395946Y393983D01*
X395903Y394064D01*
X395867Y394148D01*
X395841Y394180D01*
X395830Y394201D01*
X395807Y394223D01*
X395762Y394279D01*
X394020Y396021D01*
X392937Y398635D01*
X392937Y401465D01*
X394020Y404079D01*
X396021Y406080D01*
X398635Y407163D01*
X401465Y407163D01*
X404079Y406080D01*
X406080Y404079D01*
X407163Y401465D01*
X407163Y398635D01*
X406080Y396021D01*
X404338Y394279D01*
X404285Y394205D01*
X404225Y394135D01*
X404213Y394105D01*
X404194Y394079D01*
X404167Y393992D01*
X404133Y393907D01*
X404129Y393866D01*
X404122Y393844D01*
X404123Y393812D01*
X404115Y393740D01*
X404115Y227667D01*
X404126Y227596D01*
X404128Y227524D01*
X404146Y227475D01*
X404154Y227424D01*
X404188Y227361D01*
X404213Y227293D01*
X404245Y227253D01*
X404270Y227207D01*
X404322Y227157D01*
X404366Y227101D01*
X404410Y227073D01*
X404448Y227037D01*
X404513Y227007D01*
X404573Y226968D01*
X404624Y226956D01*
X404671Y226934D01*
X404742Y226926D01*
X404812Y226908D01*
X404864Y226912D01*
X404915Y226906D01*
X404986Y226922D01*
X405057Y226927D01*
X405105Y226948D01*
X405156Y226959D01*
X405217Y226996D01*
X405283Y227024D01*
X405339Y227068D01*
X405367Y227085D01*
X405382Y227103D01*
X405414Y227128D01*
X408462Y230176D01*
X408515Y230250D01*
X408575Y230320D01*
X408587Y230350D01*
X408606Y230376D01*
X408633Y230463D01*
X408667Y230548D01*
X408671Y230589D01*
X408678Y230611D01*
X408677Y230643D01*
X408685Y230715D01*
X408685Y381040D01*
X408671Y381131D01*
X408663Y381221D01*
X408651Y381251D01*
X408646Y381283D01*
X408603Y381364D01*
X408567Y381448D01*
X408541Y381480D01*
X408530Y381501D01*
X408507Y381523D01*
X408462Y381579D01*
X406720Y383321D01*
X405637Y385935D01*
X405637Y388765D01*
X406720Y391379D01*
X408721Y393380D01*
X411335Y394463D01*
X414165Y394463D01*
X416779Y393380D01*
X418780Y391379D01*
X419863Y388765D01*
X419863Y385935D01*
X418780Y383321D01*
X417038Y381579D01*
X416985Y381505D01*
X416925Y381435D01*
X416913Y381405D01*
X416894Y381379D01*
X416867Y381292D01*
X416833Y381207D01*
X416829Y381166D01*
X416822Y381144D01*
X416823Y381112D01*
X416815Y381040D01*
X416815Y272371D01*
X416826Y272300D01*
X416828Y272228D01*
X416846Y272179D01*
X416854Y272128D01*
X416888Y272065D01*
X416913Y271997D01*
X416945Y271957D01*
X416970Y271911D01*
X417022Y271861D01*
X417066Y271805D01*
X417110Y271777D01*
X417148Y271741D01*
X417213Y271711D01*
X417273Y271672D01*
X417324Y271660D01*
X417371Y271638D01*
X417442Y271630D01*
X417512Y271612D01*
X417564Y271616D01*
X417615Y271611D01*
X417686Y271626D01*
X417757Y271631D01*
X417805Y271652D01*
X417856Y271663D01*
X417917Y271700D01*
X417983Y271728D01*
X418039Y271772D01*
X418067Y271789D01*
X418082Y271807D01*
X418114Y271832D01*
X420558Y274276D01*
X423732Y275591D01*
X427168Y275591D01*
X430342Y274276D01*
X432772Y271846D01*
X434087Y268672D01*
X434087Y252028D01*
X432772Y248854D01*
X430342Y246424D01*
X429985Y246276D01*
X429885Y246214D01*
X429785Y246154D01*
X429781Y246150D01*
X429776Y246146D01*
X429701Y246056D01*
X429625Y245968D01*
X429623Y245962D01*
X429619Y245957D01*
X429577Y245848D01*
X429533Y245739D01*
X429532Y245732D01*
X429531Y245727D01*
X429530Y245709D01*
X429515Y245573D01*
X429515Y243299D01*
X429529Y243209D01*
X429537Y243118D01*
X429549Y243088D01*
X429554Y243056D01*
X429597Y242976D01*
X429633Y242892D01*
X429659Y242860D01*
X429670Y242839D01*
X429693Y242817D01*
X429738Y242761D01*
X448565Y223934D01*
X448565Y144366D01*
X446184Y141985D01*
X421215Y141985D01*
X421125Y141971D01*
X421034Y141963D01*
X421004Y141951D01*
X420972Y141946D01*
X420891Y141903D01*
X420807Y141867D01*
X420775Y141841D01*
X420755Y141830D01*
X420732Y141807D01*
X420676Y141762D01*
X417038Y138124D01*
X416985Y138050D01*
X416925Y137980D01*
X416913Y137950D01*
X416894Y137924D01*
X416867Y137837D01*
X416833Y137752D01*
X416829Y137711D01*
X416822Y137689D01*
X416823Y137657D01*
X416815Y137585D01*
X416815Y129115D01*
X416829Y129025D01*
X416837Y128934D01*
X416849Y128904D01*
X416854Y128872D01*
X416897Y128791D01*
X416933Y128707D01*
X416959Y128675D01*
X416970Y128655D01*
X416993Y128632D01*
X417038Y128576D01*
X421387Y124227D01*
X421387Y117073D01*
X416327Y112013D01*
X409173Y112013D01*
G37*
%LPD*%
%LPC*%
G36*
X474532Y372109D02*
X474532Y372109D01*
X471358Y373424D01*
X468928Y375854D01*
X467613Y379028D01*
X467613Y395672D01*
X468928Y398846D01*
X471358Y401276D01*
X471715Y401424D01*
X471815Y401486D01*
X471915Y401546D01*
X471919Y401550D01*
X471924Y401554D01*
X471999Y401644D01*
X472075Y401732D01*
X472077Y401738D01*
X472081Y401743D01*
X472123Y401852D01*
X472167Y401961D01*
X472168Y401968D01*
X472169Y401973D01*
X472170Y401991D01*
X472185Y402127D01*
X472185Y848901D01*
X472171Y848991D01*
X472163Y849082D01*
X472151Y849112D01*
X472146Y849144D01*
X472103Y849224D01*
X472067Y849308D01*
X472041Y849340D01*
X472030Y849361D01*
X472007Y849383D01*
X471962Y849439D01*
X430339Y891062D01*
X430265Y891115D01*
X430196Y891175D01*
X430166Y891187D01*
X430140Y891206D01*
X430053Y891233D01*
X429968Y891267D01*
X429927Y891271D01*
X429904Y891278D01*
X429872Y891277D01*
X429801Y891285D01*
X389427Y891285D01*
X389313Y891266D01*
X389196Y891249D01*
X389191Y891247D01*
X389185Y891246D01*
X389082Y891191D01*
X388977Y891138D01*
X388973Y891133D01*
X388967Y891130D01*
X388887Y891046D01*
X388805Y890962D01*
X388801Y890956D01*
X388798Y890952D01*
X388790Y890935D01*
X388724Y890815D01*
X388576Y890458D01*
X386146Y888028D01*
X382972Y886713D01*
X366328Y886713D01*
X363154Y888028D01*
X360724Y890458D01*
X359409Y893632D01*
X359409Y897068D01*
X360724Y900242D01*
X363154Y902672D01*
X366328Y903987D01*
X382972Y903987D01*
X386146Y902672D01*
X388576Y900242D01*
X388724Y899885D01*
X388786Y899785D01*
X388846Y899685D01*
X388850Y899681D01*
X388854Y899676D01*
X388944Y899601D01*
X389032Y899525D01*
X389038Y899523D01*
X389043Y899519D01*
X389152Y899477D01*
X389261Y899433D01*
X389268Y899432D01*
X389273Y899431D01*
X389291Y899430D01*
X389427Y899415D01*
X433484Y899415D01*
X480315Y852584D01*
X480315Y402127D01*
X480334Y402013D01*
X480351Y401896D01*
X480353Y401891D01*
X480354Y401885D01*
X480409Y401782D01*
X480462Y401677D01*
X480467Y401673D01*
X480470Y401667D01*
X480554Y401587D01*
X480638Y401505D01*
X480644Y401501D01*
X480648Y401498D01*
X480665Y401490D01*
X480785Y401424D01*
X481142Y401276D01*
X483572Y398846D01*
X484887Y395672D01*
X484887Y379028D01*
X483572Y375854D01*
X481142Y373424D01*
X477968Y372109D01*
X474532Y372109D01*
G37*
%LPD*%
%LPC*%
G36*
X91673Y651763D02*
X91673Y651763D01*
X86613Y656823D01*
X86613Y663977D01*
X90962Y668326D01*
X91015Y668400D01*
X91075Y668470D01*
X91087Y668500D01*
X91106Y668526D01*
X91133Y668613D01*
X91167Y668698D01*
X91171Y668739D01*
X91178Y668761D01*
X91177Y668793D01*
X91185Y668865D01*
X91185Y696501D01*
X91171Y696591D01*
X91163Y696682D01*
X91151Y696712D01*
X91146Y696744D01*
X91103Y696824D01*
X91067Y696908D01*
X91041Y696940D01*
X91030Y696961D01*
X91007Y696983D01*
X90962Y697039D01*
X81089Y706912D01*
X81015Y706965D01*
X80946Y707025D01*
X80916Y707037D01*
X80890Y707056D01*
X80803Y707083D01*
X80718Y707117D01*
X80677Y707121D01*
X80654Y707128D01*
X80622Y707127D01*
X80551Y707135D01*
X68129Y707135D01*
X68039Y707121D01*
X67948Y707113D01*
X67918Y707101D01*
X67886Y707096D01*
X67806Y707053D01*
X67722Y707017D01*
X67690Y706991D01*
X67669Y706980D01*
X67647Y706957D01*
X67591Y706912D01*
X61464Y700785D01*
X52836Y700785D01*
X46709Y706912D01*
X46635Y706965D01*
X46566Y707025D01*
X46535Y707037D01*
X46509Y707056D01*
X46422Y707083D01*
X46337Y707117D01*
X46297Y707121D01*
X46274Y707128D01*
X46242Y707127D01*
X46171Y707135D01*
X36416Y707135D01*
X21335Y722216D01*
X21335Y928784D01*
X36416Y943865D01*
X46171Y943865D01*
X46261Y943879D01*
X46352Y943887D01*
X46382Y943899D01*
X46414Y943904D01*
X46494Y943947D01*
X46578Y943983D01*
X46610Y944009D01*
X46631Y944020D01*
X46653Y944043D01*
X46709Y944088D01*
X52836Y950215D01*
X61464Y950215D01*
X67565Y944114D01*
X67565Y935486D01*
X61464Y929385D01*
X52836Y929385D01*
X46709Y935512D01*
X46635Y935565D01*
X46566Y935625D01*
X46535Y935637D01*
X46509Y935656D01*
X46422Y935683D01*
X46337Y935717D01*
X46297Y935721D01*
X46274Y935728D01*
X46242Y935727D01*
X46171Y935735D01*
X40099Y935735D01*
X40009Y935721D01*
X39918Y935713D01*
X39888Y935701D01*
X39856Y935696D01*
X39776Y935653D01*
X39692Y935617D01*
X39660Y935591D01*
X39639Y935580D01*
X39617Y935557D01*
X39561Y935512D01*
X29688Y925639D01*
X29635Y925565D01*
X29575Y925496D01*
X29563Y925466D01*
X29544Y925440D01*
X29517Y925353D01*
X29483Y925268D01*
X29479Y925227D01*
X29472Y925204D01*
X29473Y925172D01*
X29465Y925101D01*
X29465Y725899D01*
X29479Y725809D01*
X29487Y725718D01*
X29499Y725688D01*
X29504Y725656D01*
X29547Y725576D01*
X29583Y725492D01*
X29609Y725460D01*
X29620Y725439D01*
X29643Y725417D01*
X29688Y725361D01*
X39561Y715488D01*
X39635Y715435D01*
X39704Y715375D01*
X39734Y715363D01*
X39760Y715344D01*
X39847Y715317D01*
X39932Y715283D01*
X39973Y715279D01*
X39996Y715272D01*
X40028Y715273D01*
X40099Y715265D01*
X46171Y715265D01*
X46261Y715279D01*
X46352Y715287D01*
X46382Y715299D01*
X46414Y715304D01*
X46494Y715347D01*
X46578Y715383D01*
X46610Y715409D01*
X46631Y715420D01*
X46653Y715443D01*
X46709Y715488D01*
X52836Y721615D01*
X61464Y721615D01*
X67591Y715488D01*
X67665Y715435D01*
X67734Y715375D01*
X67765Y715363D01*
X67791Y715344D01*
X67878Y715317D01*
X67963Y715283D01*
X68003Y715279D01*
X68026Y715272D01*
X68058Y715273D01*
X68129Y715265D01*
X84234Y715265D01*
X99315Y700184D01*
X99315Y668865D01*
X99329Y668775D01*
X99337Y668684D01*
X99349Y668654D01*
X99354Y668622D01*
X99397Y668541D01*
X99433Y668457D01*
X99459Y668425D01*
X99470Y668405D01*
X99493Y668382D01*
X99538Y668326D01*
X103887Y663977D01*
X103887Y656823D01*
X98827Y651763D01*
X91673Y651763D01*
G37*
%LPD*%
%LPC*%
G36*
X180573Y86613D02*
X180573Y86613D01*
X175513Y91673D01*
X175513Y98827D01*
X180573Y103887D01*
X187727Y103887D01*
X192076Y99538D01*
X192150Y99485D01*
X192220Y99425D01*
X192250Y99413D01*
X192276Y99394D01*
X192363Y99367D01*
X192448Y99333D01*
X192489Y99329D01*
X192511Y99322D01*
X192543Y99323D01*
X192615Y99315D01*
X194851Y99315D01*
X194941Y99329D01*
X195032Y99337D01*
X195062Y99349D01*
X195094Y99354D01*
X195174Y99397D01*
X195258Y99433D01*
X195290Y99459D01*
X195311Y99470D01*
X195333Y99493D01*
X195389Y99538D01*
X205262Y109411D01*
X205315Y109485D01*
X205375Y109554D01*
X205387Y109584D01*
X205406Y109610D01*
X205433Y109697D01*
X205467Y109782D01*
X205471Y109823D01*
X205478Y109846D01*
X205477Y109878D01*
X205485Y109949D01*
X205485Y131351D01*
X205471Y131441D01*
X205463Y131532D01*
X205451Y131562D01*
X205446Y131594D01*
X205403Y131674D01*
X205367Y131758D01*
X205341Y131790D01*
X205330Y131811D01*
X205307Y131833D01*
X205262Y131889D01*
X195389Y141762D01*
X195315Y141815D01*
X195246Y141875D01*
X195216Y141887D01*
X195190Y141906D01*
X195103Y141933D01*
X195018Y141967D01*
X194977Y141971D01*
X194954Y141978D01*
X194922Y141977D01*
X194851Y141985D01*
X192615Y141985D01*
X192525Y141971D01*
X192434Y141963D01*
X192404Y141951D01*
X192372Y141946D01*
X192291Y141903D01*
X192207Y141867D01*
X192175Y141841D01*
X192155Y141830D01*
X192132Y141807D01*
X192076Y141762D01*
X187727Y137413D01*
X180573Y137413D01*
X175513Y142473D01*
X175513Y149627D01*
X180573Y154687D01*
X187727Y154687D01*
X192076Y150338D01*
X192150Y150285D01*
X192220Y150225D01*
X192250Y150213D01*
X192276Y150194D01*
X192363Y150167D01*
X192448Y150133D01*
X192489Y150129D01*
X192511Y150122D01*
X192543Y150123D01*
X192615Y150115D01*
X198534Y150115D01*
X211011Y137638D01*
X211085Y137585D01*
X211154Y137525D01*
X211184Y137513D01*
X211210Y137494D01*
X211297Y137467D01*
X211382Y137433D01*
X211423Y137429D01*
X211446Y137422D01*
X211478Y137423D01*
X211549Y137415D01*
X254933Y137415D01*
X255004Y137426D01*
X255076Y137428D01*
X255125Y137446D01*
X255176Y137454D01*
X255239Y137488D01*
X255307Y137513D01*
X255347Y137545D01*
X255393Y137570D01*
X255443Y137622D01*
X255499Y137666D01*
X255527Y137710D01*
X255563Y137748D01*
X255593Y137813D01*
X255632Y137873D01*
X255644Y137924D01*
X255666Y137971D01*
X255674Y138042D01*
X255692Y138112D01*
X255688Y138164D01*
X255694Y138215D01*
X255678Y138286D01*
X255673Y138357D01*
X255652Y138405D01*
X255641Y138456D01*
X255604Y138517D01*
X255576Y138583D01*
X255532Y138639D01*
X255515Y138667D01*
X255497Y138682D01*
X255472Y138714D01*
X251713Y142473D01*
X251713Y149627D01*
X256773Y154687D01*
X263927Y154687D01*
X268987Y149627D01*
X268987Y142473D01*
X265228Y138714D01*
X265187Y138656D01*
X265137Y138604D01*
X265115Y138557D01*
X265085Y138515D01*
X265064Y138446D01*
X265034Y138381D01*
X265028Y138329D01*
X265013Y138279D01*
X265014Y138208D01*
X265006Y138137D01*
X265018Y138086D01*
X265019Y138034D01*
X265044Y137966D01*
X265059Y137896D01*
X265085Y137851D01*
X265103Y137803D01*
X265148Y137747D01*
X265185Y137685D01*
X265224Y137651D01*
X265257Y137611D01*
X265317Y137572D01*
X265372Y137525D01*
X265420Y137506D01*
X265464Y137478D01*
X265533Y137460D01*
X265600Y137433D01*
X265671Y137425D01*
X265702Y137417D01*
X265726Y137419D01*
X265767Y137415D01*
X274734Y137415D01*
X285027Y127122D01*
X285043Y127110D01*
X285055Y127094D01*
X285143Y127038D01*
X285227Y126978D01*
X285246Y126972D01*
X285262Y126961D01*
X285363Y126936D01*
X285462Y126906D01*
X285482Y126906D01*
X285501Y126901D01*
X285604Y126909D01*
X285708Y126912D01*
X285726Y126919D01*
X285746Y126920D01*
X285841Y126961D01*
X285939Y126996D01*
X285954Y127009D01*
X285972Y127017D01*
X286103Y127122D01*
X286954Y127972D01*
X290128Y129287D01*
X306772Y129287D01*
X309946Y127972D01*
X312376Y125542D01*
X313691Y122368D01*
X313691Y118932D01*
X312376Y115758D01*
X309946Y113328D01*
X306772Y112013D01*
X290128Y112013D01*
X286954Y113328D01*
X284524Y115758D01*
X284321Y116249D01*
X284286Y116305D01*
X284260Y116365D01*
X284208Y116430D01*
X284191Y116458D01*
X284182Y116465D01*
X284175Y116472D01*
X284156Y116496D01*
X271589Y129062D01*
X271515Y129115D01*
X271446Y129175D01*
X271416Y129187D01*
X271390Y129206D01*
X271303Y129233D01*
X271218Y129267D01*
X271177Y129271D01*
X271154Y129278D01*
X271122Y129277D01*
X271051Y129285D01*
X265767Y129285D01*
X265696Y129274D01*
X265624Y129272D01*
X265575Y129254D01*
X265524Y129246D01*
X265461Y129212D01*
X265393Y129187D01*
X265353Y129155D01*
X265307Y129130D01*
X265257Y129078D01*
X265201Y129034D01*
X265173Y128990D01*
X265137Y128952D01*
X265107Y128887D01*
X265068Y128827D01*
X265056Y128776D01*
X265034Y128729D01*
X265026Y128658D01*
X265008Y128588D01*
X265012Y128536D01*
X265006Y128485D01*
X265022Y128414D01*
X265027Y128343D01*
X265048Y128295D01*
X265059Y128244D01*
X265096Y128183D01*
X265124Y128117D01*
X265168Y128061D01*
X265185Y128033D01*
X265203Y128018D01*
X265228Y127986D01*
X268987Y124227D01*
X268987Y117073D01*
X264638Y112724D01*
X264585Y112650D01*
X264525Y112580D01*
X264513Y112550D01*
X264494Y112524D01*
X264467Y112437D01*
X264433Y112352D01*
X264429Y112311D01*
X264422Y112289D01*
X264423Y112257D01*
X264415Y112185D01*
X264415Y103715D01*
X264429Y103625D01*
X264437Y103534D01*
X264449Y103504D01*
X264454Y103472D01*
X264497Y103391D01*
X264533Y103307D01*
X264559Y103275D01*
X264570Y103255D01*
X264593Y103232D01*
X264638Y103176D01*
X268276Y99538D01*
X268350Y99485D01*
X268420Y99425D01*
X268450Y99413D01*
X268476Y99394D01*
X268563Y99367D01*
X268648Y99333D01*
X268689Y99329D01*
X268711Y99322D01*
X268743Y99323D01*
X268815Y99315D01*
X283673Y99315D01*
X283787Y99334D01*
X283904Y99351D01*
X283909Y99353D01*
X283915Y99354D01*
X284018Y99409D01*
X284123Y99462D01*
X284127Y99467D01*
X284133Y99470D01*
X284213Y99554D01*
X284295Y99638D01*
X284299Y99644D01*
X284302Y99648D01*
X284310Y99665D01*
X284376Y99785D01*
X284524Y100142D01*
X286954Y102572D01*
X290128Y103887D01*
X306772Y103887D01*
X309946Y102572D01*
X312376Y100142D01*
X313691Y96968D01*
X313691Y93532D01*
X312376Y90358D01*
X309946Y87928D01*
X306772Y86613D01*
X290128Y86613D01*
X286954Y87928D01*
X284524Y90358D01*
X284376Y90715D01*
X284314Y90815D01*
X284254Y90915D01*
X284250Y90919D01*
X284246Y90924D01*
X284156Y90999D01*
X284068Y91075D01*
X284062Y91077D01*
X284057Y91081D01*
X283948Y91123D01*
X283839Y91167D01*
X283832Y91168D01*
X283827Y91169D01*
X283809Y91170D01*
X283673Y91185D01*
X268815Y91185D01*
X268725Y91171D01*
X268634Y91163D01*
X268604Y91151D01*
X268572Y91146D01*
X268491Y91103D01*
X268407Y91067D01*
X268375Y91041D01*
X268355Y91030D01*
X268332Y91007D01*
X268276Y90962D01*
X263927Y86613D01*
X256773Y86613D01*
X251713Y91673D01*
X251713Y98827D01*
X256062Y103176D01*
X256115Y103250D01*
X256175Y103320D01*
X256187Y103350D01*
X256206Y103376D01*
X256233Y103463D01*
X256267Y103548D01*
X256271Y103589D01*
X256278Y103611D01*
X256277Y103643D01*
X256285Y103715D01*
X256285Y112185D01*
X256283Y112198D01*
X256284Y112208D01*
X256274Y112257D01*
X256271Y112275D01*
X256263Y112366D01*
X256251Y112396D01*
X256246Y112428D01*
X256203Y112509D01*
X256167Y112593D01*
X256141Y112625D01*
X256130Y112645D01*
X256107Y112668D01*
X256062Y112724D01*
X251713Y117073D01*
X251713Y124227D01*
X255472Y127986D01*
X255513Y128044D01*
X255563Y128096D01*
X255585Y128143D01*
X255615Y128185D01*
X255636Y128254D01*
X255666Y128319D01*
X255672Y128371D01*
X255687Y128421D01*
X255686Y128492D01*
X255694Y128563D01*
X255682Y128614D01*
X255681Y128666D01*
X255656Y128734D01*
X255641Y128804D01*
X255615Y128849D01*
X255597Y128897D01*
X255552Y128953D01*
X255515Y129015D01*
X255476Y129049D01*
X255443Y129089D01*
X255383Y129128D01*
X255328Y129175D01*
X255280Y129194D01*
X255236Y129222D01*
X255167Y129240D01*
X255100Y129267D01*
X255029Y129275D01*
X254998Y129283D01*
X254974Y129281D01*
X254933Y129285D01*
X214376Y129285D01*
X214356Y129282D01*
X214337Y129284D01*
X214235Y129262D01*
X214133Y129246D01*
X214116Y129236D01*
X214096Y129232D01*
X214007Y129179D01*
X213916Y129130D01*
X213902Y129116D01*
X213885Y129106D01*
X213818Y129027D01*
X213746Y128952D01*
X213738Y128934D01*
X213725Y128919D01*
X213686Y128823D01*
X213643Y128729D01*
X213641Y128709D01*
X213633Y128691D01*
X213615Y128524D01*
X213615Y106266D01*
X198534Y91185D01*
X192615Y91185D01*
X192525Y91171D01*
X192434Y91163D01*
X192404Y91151D01*
X192372Y91146D01*
X192291Y91103D01*
X192207Y91067D01*
X192175Y91041D01*
X192155Y91030D01*
X192132Y91007D01*
X192076Y90962D01*
X187727Y86613D01*
X180573Y86613D01*
G37*
%LPD*%
%LPC*%
G36*
X66564Y119887D02*
X66564Y119887D01*
X60216Y122517D01*
X55357Y127376D01*
X52727Y133724D01*
X52727Y171076D01*
X55357Y177424D01*
X60216Y182283D01*
X65315Y184395D01*
X65415Y184457D01*
X65515Y184517D01*
X65519Y184522D01*
X65524Y184525D01*
X65599Y184615D01*
X65675Y184704D01*
X65677Y184710D01*
X65681Y184715D01*
X65723Y184823D01*
X65767Y184932D01*
X65768Y184940D01*
X65769Y184944D01*
X65770Y184962D01*
X65785Y185099D01*
X65785Y185834D01*
X80866Y200915D01*
X175685Y200915D01*
X175775Y200929D01*
X175866Y200937D01*
X175896Y200949D01*
X175928Y200954D01*
X176009Y200997D01*
X176093Y201033D01*
X176125Y201059D01*
X176145Y201070D01*
X176168Y201093D01*
X176224Y201138D01*
X180573Y205487D01*
X187727Y205487D01*
X192787Y200427D01*
X192787Y193273D01*
X187727Y188213D01*
X180573Y188213D01*
X176224Y192562D01*
X176150Y192615D01*
X176080Y192675D01*
X176050Y192687D01*
X176024Y192706D01*
X175937Y192733D01*
X175852Y192767D01*
X175811Y192771D01*
X175789Y192778D01*
X175757Y192777D01*
X175685Y192785D01*
X84549Y192785D01*
X84459Y192771D01*
X84368Y192763D01*
X84338Y192751D01*
X84306Y192746D01*
X84226Y192703D01*
X84142Y192667D01*
X84110Y192641D01*
X84089Y192630D01*
X84067Y192607D01*
X84011Y192562D01*
X76310Y184862D01*
X76283Y184824D01*
X76249Y184793D01*
X76212Y184725D01*
X76166Y184662D01*
X76153Y184618D01*
X76131Y184578D01*
X76117Y184501D01*
X76094Y184427D01*
X76095Y184381D01*
X76087Y184336D01*
X76098Y184259D01*
X76100Y184181D01*
X76116Y184138D01*
X76123Y184092D01*
X76158Y184023D01*
X76185Y183950D01*
X76214Y183914D01*
X76234Y183873D01*
X76290Y183819D01*
X76339Y183758D01*
X76377Y183733D01*
X76410Y183701D01*
X76530Y183635D01*
X76545Y183625D01*
X76550Y183624D01*
X76557Y183620D01*
X79784Y182283D01*
X84643Y177424D01*
X87273Y171076D01*
X87273Y133724D01*
X84643Y127376D01*
X79784Y122517D01*
X73436Y119887D01*
X66564Y119887D01*
G37*
%LPD*%
%LPC*%
G36*
X294873Y689863D02*
X294873Y689863D01*
X289813Y694923D01*
X289813Y702077D01*
X294873Y707137D01*
X302027Y707137D01*
X306376Y702788D01*
X306450Y702735D01*
X306520Y702675D01*
X306550Y702663D01*
X306576Y702644D01*
X306663Y702617D01*
X306748Y702583D01*
X306789Y702579D01*
X306811Y702572D01*
X306843Y702573D01*
X306915Y702565D01*
X309151Y702565D01*
X309241Y702579D01*
X309332Y702587D01*
X309362Y702599D01*
X309394Y702604D01*
X309474Y702647D01*
X309558Y702683D01*
X309590Y702709D01*
X309611Y702720D01*
X309633Y702743D01*
X309689Y702788D01*
X319562Y712661D01*
X319615Y712735D01*
X319675Y712804D01*
X319687Y712834D01*
X319706Y712860D01*
X319733Y712947D01*
X319767Y713032D01*
X319771Y713073D01*
X319778Y713096D01*
X319777Y713128D01*
X319785Y713199D01*
X319785Y724115D01*
X319774Y724186D01*
X319772Y724257D01*
X319754Y724306D01*
X319746Y724358D01*
X319712Y724421D01*
X319687Y724488D01*
X319655Y724529D01*
X319630Y724575D01*
X319578Y724624D01*
X319534Y724680D01*
X319490Y724709D01*
X319452Y724744D01*
X319387Y724775D01*
X319327Y724813D01*
X319276Y724826D01*
X319229Y724848D01*
X319158Y724856D01*
X319088Y724873D01*
X319036Y724869D01*
X318985Y724875D01*
X318914Y724860D01*
X318843Y724854D01*
X318795Y724834D01*
X318744Y724823D01*
X318683Y724786D01*
X318617Y724758D01*
X318561Y724713D01*
X318533Y724697D01*
X318518Y724679D01*
X318486Y724653D01*
X314938Y721105D01*
X312673Y721105D01*
X312673Y729488D01*
X312670Y729508D01*
X312672Y729527D01*
X312650Y729629D01*
X312633Y729731D01*
X312624Y729748D01*
X312620Y729768D01*
X312567Y729857D01*
X312518Y729948D01*
X312504Y729962D01*
X312494Y729979D01*
X312415Y730046D01*
X312340Y730117D01*
X312322Y730126D01*
X312307Y730139D01*
X312211Y730177D01*
X312117Y730221D01*
X312097Y730223D01*
X312079Y730231D01*
X311912Y730249D01*
X311149Y730249D01*
X311149Y730251D01*
X311912Y730251D01*
X311932Y730254D01*
X311951Y730252D01*
X312053Y730274D01*
X312155Y730291D01*
X312172Y730300D01*
X312192Y730304D01*
X312281Y730357D01*
X312372Y730406D01*
X312386Y730420D01*
X312403Y730430D01*
X312470Y730509D01*
X312541Y730584D01*
X312550Y730602D01*
X312563Y730617D01*
X312602Y730713D01*
X312645Y730807D01*
X312647Y730827D01*
X312655Y730845D01*
X312673Y731012D01*
X312673Y739395D01*
X314938Y739395D01*
X318486Y735847D01*
X318544Y735805D01*
X318596Y735756D01*
X318617Y735746D01*
X318621Y735742D01*
X318644Y735733D01*
X318685Y735703D01*
X318754Y735682D01*
X318819Y735652D01*
X318871Y735646D01*
X318921Y735631D01*
X318992Y735633D01*
X319063Y735625D01*
X319114Y735636D01*
X319166Y735637D01*
X319234Y735662D01*
X319304Y735677D01*
X319349Y735704D01*
X319397Y735722D01*
X319453Y735767D01*
X319515Y735803D01*
X319549Y735843D01*
X319589Y735875D01*
X319628Y735936D01*
X319653Y735964D01*
X319654Y735965D01*
X319675Y735990D01*
X319694Y736039D01*
X319722Y736082D01*
X319740Y736151D01*
X319757Y736188D01*
X319758Y736197D01*
X319767Y736218D01*
X319775Y736290D01*
X319783Y736321D01*
X319781Y736344D01*
X319785Y736385D01*
X319785Y804451D01*
X319771Y804541D01*
X319763Y804632D01*
X319751Y804662D01*
X319746Y804694D01*
X319703Y804774D01*
X319667Y804858D01*
X319641Y804890D01*
X319630Y804911D01*
X319607Y804933D01*
X319562Y804989D01*
X311873Y812678D01*
X311857Y812690D01*
X311845Y812706D01*
X311757Y812762D01*
X311673Y812822D01*
X311654Y812828D01*
X311638Y812839D01*
X311537Y812864D01*
X311438Y812894D01*
X311418Y812894D01*
X311399Y812899D01*
X311296Y812891D01*
X311193Y812888D01*
X311174Y812881D01*
X311154Y812880D01*
X311059Y812839D01*
X310961Y812804D01*
X310946Y812791D01*
X310928Y812783D01*
X310797Y812678D01*
X309946Y811828D01*
X306772Y810513D01*
X290128Y810513D01*
X286954Y811828D01*
X284524Y814258D01*
X284376Y814615D01*
X284314Y814715D01*
X284254Y814815D01*
X284250Y814819D01*
X284246Y814824D01*
X284156Y814899D01*
X284068Y814975D01*
X284062Y814977D01*
X284057Y814981D01*
X283948Y815023D01*
X283839Y815067D01*
X283832Y815068D01*
X283827Y815069D01*
X283809Y815070D01*
X283673Y815085D01*
X268815Y815085D01*
X268725Y815071D01*
X268634Y815063D01*
X268604Y815051D01*
X268572Y815046D01*
X268491Y815003D01*
X268407Y814967D01*
X268375Y814941D01*
X268355Y814930D01*
X268332Y814907D01*
X268276Y814862D01*
X263927Y810513D01*
X256773Y810513D01*
X252424Y814862D01*
X252350Y814915D01*
X252280Y814975D01*
X252250Y814987D01*
X252224Y815006D01*
X252137Y815033D01*
X252052Y815067D01*
X252011Y815071D01*
X251989Y815078D01*
X251957Y815077D01*
X251885Y815085D01*
X233266Y815085D01*
X212661Y835690D01*
X212587Y835743D01*
X212518Y835803D01*
X212488Y835815D01*
X212462Y835834D01*
X212375Y835861D01*
X212290Y835895D01*
X212249Y835899D01*
X212226Y835906D01*
X212194Y835905D01*
X212123Y835913D01*
X205973Y835913D01*
X200913Y840973D01*
X200913Y848127D01*
X205973Y853187D01*
X213127Y853187D01*
X218187Y848127D01*
X218187Y841977D01*
X218201Y841887D01*
X218209Y841796D01*
X218221Y841766D01*
X218226Y841734D01*
X218269Y841654D01*
X218305Y841570D01*
X218331Y841538D01*
X218342Y841517D01*
X218365Y841495D01*
X218410Y841439D01*
X236411Y823438D01*
X236485Y823385D01*
X236554Y823325D01*
X236584Y823313D01*
X236610Y823294D01*
X236697Y823267D01*
X236782Y823233D01*
X236823Y823229D01*
X236846Y823222D01*
X236878Y823223D01*
X236949Y823215D01*
X251885Y823215D01*
X251975Y823229D01*
X252066Y823237D01*
X252096Y823249D01*
X252128Y823254D01*
X252209Y823297D01*
X252293Y823333D01*
X252325Y823359D01*
X252345Y823370D01*
X252368Y823393D01*
X252424Y823438D01*
X256773Y827787D01*
X263927Y827787D01*
X268276Y823438D01*
X268350Y823385D01*
X268420Y823325D01*
X268450Y823313D01*
X268476Y823294D01*
X268563Y823267D01*
X268648Y823233D01*
X268689Y823229D01*
X268711Y823222D01*
X268743Y823223D01*
X268815Y823215D01*
X283673Y823215D01*
X283787Y823234D01*
X283904Y823251D01*
X283909Y823253D01*
X283915Y823254D01*
X284018Y823309D01*
X284123Y823362D01*
X284127Y823367D01*
X284133Y823370D01*
X284213Y823454D01*
X284295Y823538D01*
X284299Y823544D01*
X284302Y823548D01*
X284310Y823565D01*
X284376Y823685D01*
X284524Y824042D01*
X286954Y826472D01*
X290128Y827787D01*
X306772Y827787D01*
X309946Y826472D01*
X312376Y824042D01*
X312579Y823551D01*
X312614Y823495D01*
X312640Y823435D01*
X312692Y823370D01*
X312709Y823342D01*
X312724Y823329D01*
X312744Y823304D01*
X327915Y808134D01*
X327915Y709516D01*
X312834Y694435D01*
X306915Y694435D01*
X306825Y694421D01*
X306734Y694413D01*
X306704Y694401D01*
X306672Y694396D01*
X306591Y694353D01*
X306507Y694317D01*
X306475Y694291D01*
X306455Y694280D01*
X306432Y694257D01*
X306376Y694212D01*
X302027Y689863D01*
X294873Y689863D01*
G37*
%LPD*%
%LPC*%
G36*
X256773Y708913D02*
X256773Y708913D01*
X251713Y713973D01*
X251713Y721127D01*
X255472Y724886D01*
X255513Y724944D01*
X255563Y724996D01*
X255585Y725043D01*
X255615Y725085D01*
X255636Y725154D01*
X255666Y725219D01*
X255672Y725271D01*
X255687Y725321D01*
X255686Y725392D01*
X255694Y725463D01*
X255682Y725514D01*
X255681Y725566D01*
X255656Y725634D01*
X255641Y725704D01*
X255615Y725749D01*
X255597Y725797D01*
X255552Y725853D01*
X255515Y725915D01*
X255476Y725949D01*
X255443Y725989D01*
X255383Y726028D01*
X255328Y726075D01*
X255280Y726094D01*
X255236Y726122D01*
X255167Y726140D01*
X255100Y726167D01*
X255029Y726175D01*
X254998Y726183D01*
X254974Y726181D01*
X254933Y726185D01*
X239616Y726185D01*
X224535Y741266D01*
X224535Y782734D01*
X239616Y797815D01*
X251885Y797815D01*
X251975Y797829D01*
X252066Y797837D01*
X252096Y797849D01*
X252128Y797854D01*
X252209Y797897D01*
X252293Y797933D01*
X252325Y797959D01*
X252345Y797970D01*
X252368Y797993D01*
X252424Y798038D01*
X256773Y802387D01*
X263927Y802387D01*
X268276Y798038D01*
X268350Y797985D01*
X268420Y797925D01*
X268450Y797913D01*
X268476Y797894D01*
X268563Y797867D01*
X268648Y797833D01*
X268689Y797829D01*
X268711Y797822D01*
X268743Y797823D01*
X268815Y797815D01*
X283673Y797815D01*
X283787Y797834D01*
X283904Y797851D01*
X283909Y797853D01*
X283915Y797854D01*
X284018Y797909D01*
X284123Y797962D01*
X284127Y797967D01*
X284133Y797970D01*
X284213Y798054D01*
X284295Y798138D01*
X284299Y798144D01*
X284302Y798148D01*
X284310Y798165D01*
X284376Y798285D01*
X284524Y798642D01*
X286954Y801072D01*
X290128Y802387D01*
X306772Y802387D01*
X309946Y801072D01*
X312376Y798642D01*
X313691Y795468D01*
X313691Y792032D01*
X312376Y788858D01*
X309946Y786428D01*
X306772Y785113D01*
X290128Y785113D01*
X286954Y786428D01*
X284524Y788858D01*
X284376Y789215D01*
X284314Y789315D01*
X284254Y789415D01*
X284250Y789419D01*
X284246Y789424D01*
X284156Y789499D01*
X284068Y789575D01*
X284062Y789577D01*
X284057Y789581D01*
X283948Y789623D01*
X283839Y789667D01*
X283832Y789668D01*
X283827Y789669D01*
X283809Y789670D01*
X283673Y789685D01*
X268815Y789685D01*
X268725Y789671D01*
X268634Y789663D01*
X268604Y789651D01*
X268572Y789646D01*
X268491Y789603D01*
X268407Y789567D01*
X268375Y789541D01*
X268355Y789530D01*
X268351Y789526D01*
X268350Y789526D01*
X268331Y789506D01*
X268276Y789462D01*
X263927Y785113D01*
X256773Y785113D01*
X252424Y789462D01*
X252350Y789515D01*
X252280Y789575D01*
X252250Y789587D01*
X252224Y789606D01*
X252137Y789633D01*
X252052Y789667D01*
X252011Y789671D01*
X251989Y789678D01*
X251957Y789677D01*
X251885Y789685D01*
X243299Y789685D01*
X243209Y789671D01*
X243118Y789663D01*
X243088Y789651D01*
X243056Y789646D01*
X242976Y789603D01*
X242892Y789567D01*
X242860Y789541D01*
X242839Y789530D01*
X242835Y789526D01*
X242834Y789526D01*
X242816Y789506D01*
X242761Y789462D01*
X232888Y779589D01*
X232835Y779515D01*
X232775Y779446D01*
X232763Y779416D01*
X232744Y779390D01*
X232717Y779303D01*
X232683Y779218D01*
X232679Y779177D01*
X232672Y779154D01*
X232673Y779122D01*
X232665Y779051D01*
X232665Y744949D01*
X232679Y744859D01*
X232687Y744768D01*
X232699Y744738D01*
X232704Y744706D01*
X232747Y744626D01*
X232783Y744542D01*
X232809Y744510D01*
X232820Y744489D01*
X232843Y744467D01*
X232888Y744411D01*
X242761Y734538D01*
X242835Y734485D01*
X242904Y734425D01*
X242934Y734413D01*
X242960Y734394D01*
X243047Y734367D01*
X243132Y734333D01*
X243173Y734329D01*
X243196Y734322D01*
X243228Y734323D01*
X243299Y734315D01*
X254933Y734315D01*
X255004Y734326D01*
X255076Y734328D01*
X255125Y734346D01*
X255176Y734354D01*
X255239Y734388D01*
X255307Y734413D01*
X255347Y734445D01*
X255393Y734470D01*
X255443Y734522D01*
X255499Y734566D01*
X255527Y734610D01*
X255563Y734648D01*
X255593Y734713D01*
X255632Y734773D01*
X255644Y734824D01*
X255666Y734871D01*
X255674Y734942D01*
X255692Y735012D01*
X255688Y735064D01*
X255694Y735115D01*
X255678Y735186D01*
X255673Y735257D01*
X255652Y735305D01*
X255641Y735356D01*
X255604Y735417D01*
X255576Y735483D01*
X255532Y735539D01*
X255515Y735567D01*
X255497Y735582D01*
X255472Y735614D01*
X251713Y739373D01*
X251713Y746527D01*
X256773Y751587D01*
X263927Y751587D01*
X268987Y746527D01*
X268987Y739373D01*
X264638Y735024D01*
X264585Y734950D01*
X264525Y734880D01*
X264513Y734850D01*
X264494Y734824D01*
X264467Y734737D01*
X264433Y734652D01*
X264429Y734611D01*
X264422Y734589D01*
X264423Y734557D01*
X264415Y734485D01*
X264415Y726015D01*
X264429Y725925D01*
X264437Y725834D01*
X264449Y725804D01*
X264454Y725772D01*
X264497Y725691D01*
X264533Y725607D01*
X264559Y725575D01*
X264570Y725555D01*
X264593Y725532D01*
X264638Y725476D01*
X268987Y721127D01*
X268987Y713973D01*
X263927Y708913D01*
X256773Y708913D01*
G37*
%LPD*%
%LPC*%
G36*
X180573Y213613D02*
X180573Y213613D01*
X175513Y218673D01*
X175513Y225827D01*
X180573Y230887D01*
X187727Y230887D01*
X192076Y226538D01*
X192150Y226485D01*
X192220Y226425D01*
X192250Y226413D01*
X192276Y226394D01*
X192363Y226367D01*
X192448Y226333D01*
X192489Y226329D01*
X192511Y226322D01*
X192543Y226323D01*
X192615Y226315D01*
X194851Y226315D01*
X194941Y226329D01*
X195032Y226337D01*
X195062Y226349D01*
X195094Y226354D01*
X195174Y226397D01*
X195258Y226433D01*
X195290Y226459D01*
X195311Y226470D01*
X195333Y226493D01*
X195389Y226538D01*
X217962Y249111D01*
X218015Y249185D01*
X218075Y249254D01*
X218087Y249284D01*
X218106Y249310D01*
X218133Y249397D01*
X218167Y249482D01*
X218171Y249523D01*
X218178Y249546D01*
X218177Y249578D01*
X218185Y249649D01*
X218185Y275310D01*
X218171Y275400D01*
X218163Y275491D01*
X218151Y275520D01*
X218146Y275552D01*
X218103Y275633D01*
X218067Y275717D01*
X218041Y275749D01*
X218030Y275770D01*
X218007Y275792D01*
X217962Y275848D01*
X212216Y281594D01*
X212216Y289906D01*
X218094Y295784D01*
X226406Y295784D01*
X232284Y289906D01*
X232284Y281594D01*
X226538Y275848D01*
X226485Y275774D01*
X226425Y275704D01*
X226413Y275674D01*
X226394Y275648D01*
X226367Y275561D01*
X226333Y275476D01*
X226329Y275435D01*
X226322Y275413D01*
X226323Y275381D01*
X226315Y275310D01*
X226315Y252476D01*
X226318Y252456D01*
X226316Y252437D01*
X226338Y252335D01*
X226354Y252233D01*
X226364Y252216D01*
X226368Y252196D01*
X226421Y252107D01*
X226470Y252016D01*
X226484Y252002D01*
X226494Y251985D01*
X226573Y251918D01*
X226648Y251846D01*
X226666Y251838D01*
X226681Y251825D01*
X226777Y251786D01*
X226871Y251743D01*
X226891Y251741D01*
X226909Y251733D01*
X227076Y251715D01*
X251885Y251715D01*
X251975Y251729D01*
X252066Y251737D01*
X252096Y251749D01*
X252128Y251754D01*
X252209Y251797D01*
X252293Y251833D01*
X252325Y251859D01*
X252345Y251870D01*
X252368Y251893D01*
X252424Y251938D01*
X256773Y256287D01*
X263927Y256287D01*
X268276Y251938D01*
X268350Y251885D01*
X268420Y251825D01*
X268450Y251813D01*
X268476Y251794D01*
X268563Y251767D01*
X268648Y251733D01*
X268689Y251729D01*
X268711Y251722D01*
X268743Y251723D01*
X268815Y251715D01*
X283673Y251715D01*
X283787Y251734D01*
X283904Y251751D01*
X283909Y251753D01*
X283915Y251754D01*
X284018Y251809D01*
X284123Y251862D01*
X284127Y251867D01*
X284133Y251870D01*
X284213Y251954D01*
X284295Y252038D01*
X284299Y252044D01*
X284302Y252048D01*
X284310Y252065D01*
X284376Y252185D01*
X284524Y252542D01*
X286954Y254972D01*
X290128Y256287D01*
X306772Y256287D01*
X309946Y254972D01*
X312376Y252542D01*
X313691Y249368D01*
X313691Y245932D01*
X312376Y242758D01*
X309946Y240328D01*
X306772Y239013D01*
X290128Y239013D01*
X286954Y240328D01*
X284524Y242758D01*
X284376Y243115D01*
X284315Y243214D01*
X284254Y243315D01*
X284250Y243319D01*
X284246Y243324D01*
X284156Y243399D01*
X284068Y243475D01*
X284062Y243477D01*
X284057Y243481D01*
X283948Y243523D01*
X283839Y243567D01*
X283832Y243568D01*
X283827Y243569D01*
X283809Y243570D01*
X283673Y243585D01*
X268815Y243585D01*
X268725Y243571D01*
X268634Y243563D01*
X268604Y243551D01*
X268572Y243546D01*
X268491Y243503D01*
X268407Y243467D01*
X268375Y243441D01*
X268355Y243430D01*
X268332Y243407D01*
X268276Y243362D01*
X263927Y239013D01*
X256773Y239013D01*
X252424Y243362D01*
X252350Y243415D01*
X252280Y243475D01*
X252250Y243487D01*
X252224Y243506D01*
X252137Y243533D01*
X252052Y243567D01*
X252011Y243571D01*
X251989Y243578D01*
X251957Y243577D01*
X251885Y243585D01*
X224249Y243585D01*
X224159Y243571D01*
X224068Y243563D01*
X224038Y243551D01*
X224006Y243546D01*
X223926Y243503D01*
X223842Y243467D01*
X223810Y243441D01*
X223789Y243430D01*
X223767Y243407D01*
X223711Y243362D01*
X198534Y218185D01*
X192615Y218185D01*
X192525Y218171D01*
X192434Y218163D01*
X192404Y218151D01*
X192372Y218146D01*
X192291Y218103D01*
X192207Y218067D01*
X192175Y218041D01*
X192155Y218030D01*
X192132Y218007D01*
X192076Y217962D01*
X187727Y213613D01*
X180573Y213613D01*
G37*
%LPD*%
%LPC*%
G36*
X124564Y234187D02*
X124564Y234187D01*
X118216Y236817D01*
X113357Y241676D01*
X110727Y248024D01*
X110727Y285376D01*
X113357Y291724D01*
X118216Y296583D01*
X124564Y299213D01*
X131436Y299213D01*
X137784Y296583D01*
X142643Y291724D01*
X145273Y285376D01*
X145273Y248024D01*
X142643Y241676D01*
X137784Y236817D01*
X131436Y234187D01*
X124564Y234187D01*
G37*
%LPD*%
%LPC*%
G36*
X66564Y234187D02*
X66564Y234187D01*
X60216Y236817D01*
X55357Y241676D01*
X52727Y248024D01*
X52727Y285376D01*
X55357Y291724D01*
X60216Y296583D01*
X66564Y299213D01*
X73436Y299213D01*
X79784Y296583D01*
X84643Y291724D01*
X87273Y285376D01*
X87273Y248024D01*
X84643Y241676D01*
X79784Y236817D01*
X73436Y234187D01*
X66564Y234187D01*
G37*
%LPD*%
%LPC*%
G36*
X124564Y119887D02*
X124564Y119887D01*
X118216Y122517D01*
X113357Y127376D01*
X110727Y133724D01*
X110727Y171076D01*
X113357Y177424D01*
X118216Y182283D01*
X124564Y184913D01*
X131436Y184913D01*
X137784Y182283D01*
X142643Y177424D01*
X145273Y171076D01*
X145273Y133724D01*
X142643Y127376D01*
X137784Y122517D01*
X131436Y119887D01*
X124564Y119887D01*
G37*
%LPD*%
%LPC*%
G36*
X256773Y861313D02*
X256773Y861313D01*
X252424Y865662D01*
X252350Y865715D01*
X252280Y865775D01*
X252250Y865787D01*
X252224Y865806D01*
X252137Y865833D01*
X252052Y865867D01*
X252011Y865871D01*
X251989Y865878D01*
X251957Y865877D01*
X251885Y865885D01*
X233266Y865885D01*
X212661Y886490D01*
X212587Y886543D01*
X212518Y886603D01*
X212488Y886615D01*
X212462Y886634D01*
X212375Y886661D01*
X212290Y886695D01*
X212249Y886699D01*
X212227Y886706D01*
X212194Y886705D01*
X212123Y886713D01*
X205973Y886713D01*
X200913Y891773D01*
X200913Y898927D01*
X205973Y903987D01*
X213127Y903987D01*
X218187Y898927D01*
X218187Y892777D01*
X218201Y892687D01*
X218209Y892596D01*
X218221Y892566D01*
X218226Y892534D01*
X218269Y892454D01*
X218305Y892370D01*
X218331Y892338D01*
X218342Y892317D01*
X218365Y892295D01*
X218410Y892239D01*
X236411Y874238D01*
X236485Y874185D01*
X236554Y874125D01*
X236584Y874113D01*
X236610Y874094D01*
X236697Y874067D01*
X236782Y874033D01*
X236823Y874029D01*
X236846Y874022D01*
X236878Y874023D01*
X236949Y874015D01*
X251885Y874015D01*
X251975Y874029D01*
X252066Y874037D01*
X252096Y874049D01*
X252128Y874054D01*
X252209Y874097D01*
X252293Y874133D01*
X252325Y874159D01*
X252345Y874170D01*
X252368Y874193D01*
X252424Y874238D01*
X256773Y878587D01*
X263927Y878587D01*
X268276Y874238D01*
X268350Y874185D01*
X268420Y874125D01*
X268450Y874113D01*
X268476Y874094D01*
X268563Y874067D01*
X268648Y874033D01*
X268689Y874029D01*
X268711Y874022D01*
X268743Y874023D01*
X268815Y874015D01*
X283673Y874015D01*
X283787Y874034D01*
X283904Y874051D01*
X283909Y874053D01*
X283915Y874054D01*
X284018Y874109D01*
X284123Y874162D01*
X284127Y874167D01*
X284133Y874170D01*
X284213Y874254D01*
X284295Y874338D01*
X284299Y874344D01*
X284302Y874348D01*
X284310Y874365D01*
X284376Y874485D01*
X284524Y874842D01*
X286954Y877272D01*
X290128Y878587D01*
X306772Y878587D01*
X309946Y877272D01*
X312376Y874842D01*
X313691Y871668D01*
X313691Y868232D01*
X312376Y865058D01*
X309946Y862628D01*
X306772Y861313D01*
X290128Y861313D01*
X286954Y862628D01*
X284524Y865058D01*
X284376Y865415D01*
X284314Y865515D01*
X284254Y865615D01*
X284250Y865619D01*
X284246Y865624D01*
X284156Y865699D01*
X284068Y865775D01*
X284062Y865777D01*
X284057Y865781D01*
X283948Y865823D01*
X283839Y865867D01*
X283832Y865868D01*
X283827Y865869D01*
X283809Y865870D01*
X283673Y865885D01*
X268815Y865885D01*
X268725Y865871D01*
X268634Y865863D01*
X268604Y865851D01*
X268572Y865846D01*
X268491Y865803D01*
X268407Y865767D01*
X268375Y865741D01*
X268355Y865730D01*
X268332Y865707D01*
X268276Y865662D01*
X263927Y861313D01*
X256773Y861313D01*
G37*
%LPD*%
%LPC*%
G36*
X52836Y725785D02*
X52836Y725785D01*
X46735Y731886D01*
X46735Y740514D01*
X52836Y746615D01*
X61464Y746615D01*
X67191Y740888D01*
X67265Y740835D01*
X67334Y740775D01*
X67365Y740763D01*
X67391Y740744D01*
X67478Y740717D01*
X67563Y740683D01*
X67603Y740679D01*
X67626Y740672D01*
X67658Y740673D01*
X67729Y740665D01*
X86785Y740665D01*
X86875Y740679D01*
X86966Y740687D01*
X86996Y740699D01*
X87028Y740704D01*
X87109Y740747D01*
X87193Y740783D01*
X87225Y740809D01*
X87245Y740820D01*
X87268Y740843D01*
X87324Y740888D01*
X90962Y744526D01*
X91015Y744600D01*
X91075Y744670D01*
X91087Y744700D01*
X91106Y744726D01*
X91133Y744813D01*
X91167Y744898D01*
X91171Y744939D01*
X91178Y744961D01*
X91177Y744993D01*
X91185Y745065D01*
X91185Y783310D01*
X91171Y783400D01*
X91163Y783491D01*
X91151Y783520D01*
X91146Y783552D01*
X91103Y783633D01*
X91067Y783717D01*
X91041Y783749D01*
X91030Y783770D01*
X91007Y783792D01*
X90962Y783848D01*
X85216Y789594D01*
X85216Y797906D01*
X91094Y803784D01*
X99406Y803784D01*
X105284Y797906D01*
X105284Y789594D01*
X99538Y783848D01*
X99485Y783774D01*
X99425Y783704D01*
X99413Y783674D01*
X99394Y783648D01*
X99367Y783561D01*
X99333Y783476D01*
X99329Y783435D01*
X99322Y783413D01*
X99323Y783381D01*
X99315Y783310D01*
X99315Y745065D01*
X99329Y744975D01*
X99337Y744884D01*
X99349Y744854D01*
X99354Y744822D01*
X99397Y744741D01*
X99433Y744657D01*
X99459Y744625D01*
X99470Y744605D01*
X99493Y744582D01*
X99538Y744526D01*
X103887Y740177D01*
X103887Y733023D01*
X98827Y727963D01*
X91673Y727963D01*
X87324Y732312D01*
X87250Y732365D01*
X87180Y732425D01*
X87150Y732437D01*
X87124Y732456D01*
X87037Y732483D01*
X86952Y732517D01*
X86911Y732521D01*
X86889Y732528D01*
X86857Y732527D01*
X86785Y732535D01*
X68326Y732535D01*
X68306Y732532D01*
X68287Y732534D01*
X68185Y732512D01*
X68083Y732496D01*
X68066Y732486D01*
X68046Y732482D01*
X67957Y732429D01*
X67866Y732380D01*
X67852Y732366D01*
X67835Y732356D01*
X67768Y732277D01*
X67696Y732202D01*
X67688Y732184D01*
X67675Y732169D01*
X67636Y732073D01*
X67593Y731979D01*
X67591Y731959D01*
X67583Y731941D01*
X67579Y731900D01*
X61464Y725785D01*
X52836Y725785D01*
G37*
%LPD*%
%LPC*%
G36*
X398078Y61213D02*
X398078Y61213D01*
X394904Y62528D01*
X392474Y64958D01*
X391159Y68132D01*
X391159Y71568D01*
X392474Y74742D01*
X394904Y77172D01*
X398078Y78487D01*
X407924Y78487D01*
X407944Y78490D01*
X407963Y78488D01*
X408065Y78510D01*
X408167Y78526D01*
X408184Y78536D01*
X408204Y78540D01*
X408293Y78593D01*
X408384Y78642D01*
X408398Y78656D01*
X408415Y78666D01*
X408482Y78745D01*
X408554Y78820D01*
X408562Y78838D01*
X408575Y78853D01*
X408614Y78949D01*
X408657Y79043D01*
X408659Y79063D01*
X408667Y79081D01*
X408685Y79248D01*
X408685Y86785D01*
X408671Y86875D01*
X408663Y86966D01*
X408651Y86996D01*
X408646Y87028D01*
X408603Y87109D01*
X408567Y87193D01*
X408541Y87225D01*
X408530Y87245D01*
X408507Y87268D01*
X408462Y87324D01*
X404824Y90962D01*
X404750Y91015D01*
X404680Y91075D01*
X404650Y91087D01*
X404624Y91106D01*
X404537Y91133D01*
X404452Y91167D01*
X404411Y91171D01*
X404389Y91178D01*
X404357Y91177D01*
X404285Y91185D01*
X389427Y91185D01*
X389313Y91166D01*
X389196Y91149D01*
X389191Y91147D01*
X389185Y91146D01*
X389082Y91091D01*
X388977Y91038D01*
X388973Y91033D01*
X388967Y91030D01*
X388887Y90946D01*
X388805Y90862D01*
X388801Y90856D01*
X388798Y90852D01*
X388790Y90835D01*
X388724Y90715D01*
X388576Y90358D01*
X386146Y87928D01*
X382972Y86613D01*
X366328Y86613D01*
X363154Y87928D01*
X360724Y90358D01*
X359409Y93532D01*
X359409Y96968D01*
X360724Y100142D01*
X363154Y102572D01*
X366328Y103887D01*
X382972Y103887D01*
X386146Y102572D01*
X388576Y100142D01*
X388724Y99785D01*
X388786Y99685D01*
X388846Y99585D01*
X388850Y99581D01*
X388854Y99576D01*
X388944Y99501D01*
X389032Y99425D01*
X389038Y99423D01*
X389043Y99419D01*
X389152Y99377D01*
X389261Y99333D01*
X389268Y99332D01*
X389273Y99331D01*
X389291Y99330D01*
X389427Y99315D01*
X404285Y99315D01*
X404375Y99329D01*
X404466Y99337D01*
X404496Y99349D01*
X404528Y99354D01*
X404609Y99397D01*
X404693Y99433D01*
X404725Y99459D01*
X404745Y99470D01*
X404768Y99493D01*
X404824Y99538D01*
X409173Y103887D01*
X416327Y103887D01*
X421387Y98827D01*
X421387Y91673D01*
X417038Y87324D01*
X416985Y87250D01*
X416925Y87180D01*
X416913Y87150D01*
X416894Y87124D01*
X416867Y87037D01*
X416833Y86952D01*
X416829Y86911D01*
X416822Y86889D01*
X416823Y86857D01*
X416815Y86785D01*
X416815Y78129D01*
X416833Y78014D01*
X416851Y77898D01*
X416853Y77892D01*
X416854Y77886D01*
X416909Y77783D01*
X416962Y77678D01*
X416967Y77674D01*
X416970Y77668D01*
X417055Y77588D01*
X417138Y77506D01*
X417144Y77502D01*
X417148Y77499D01*
X417165Y77491D01*
X417285Y77425D01*
X417896Y77172D01*
X420326Y74742D01*
X421641Y71568D01*
X421641Y68132D01*
X420326Y64958D01*
X417896Y62528D01*
X414722Y61213D01*
X398078Y61213D01*
G37*
%LPD*%
%LPC*%
G36*
X205973Y912113D02*
X205973Y912113D01*
X200913Y917173D01*
X200913Y924327D01*
X205973Y929387D01*
X212123Y929387D01*
X212213Y929401D01*
X212304Y929409D01*
X212334Y929421D01*
X212366Y929426D01*
X212446Y929469D01*
X212530Y929505D01*
X212562Y929531D01*
X212583Y929542D01*
X212605Y929565D01*
X212661Y929610D01*
X230662Y947611D01*
X233266Y950215D01*
X283673Y950215D01*
X283787Y950234D01*
X283904Y950251D01*
X283909Y950253D01*
X283915Y950254D01*
X284018Y950309D01*
X284123Y950362D01*
X284127Y950367D01*
X284133Y950370D01*
X284213Y950454D01*
X284295Y950538D01*
X284299Y950544D01*
X284302Y950548D01*
X284310Y950565D01*
X284376Y950685D01*
X284524Y951042D01*
X286954Y953472D01*
X290128Y954787D01*
X306772Y954787D01*
X309946Y953472D01*
X312376Y951042D01*
X313691Y947868D01*
X313691Y944432D01*
X312376Y941258D01*
X309946Y938828D01*
X306772Y937513D01*
X290128Y937513D01*
X286954Y938828D01*
X284524Y941258D01*
X284376Y941615D01*
X284314Y941715D01*
X284254Y941815D01*
X284250Y941819D01*
X284246Y941824D01*
X284156Y941899D01*
X284068Y941975D01*
X284062Y941977D01*
X284057Y941981D01*
X283948Y942023D01*
X283839Y942067D01*
X283832Y942068D01*
X283827Y942069D01*
X283809Y942070D01*
X283673Y942085D01*
X236949Y942085D01*
X236859Y942071D01*
X236768Y942063D01*
X236738Y942051D01*
X236706Y942046D01*
X236626Y942003D01*
X236542Y941967D01*
X236510Y941941D01*
X236489Y941930D01*
X236467Y941907D01*
X236411Y941862D01*
X218410Y923861D01*
X218357Y923787D01*
X218297Y923718D01*
X218285Y923688D01*
X218266Y923662D01*
X218239Y923575D01*
X218205Y923490D01*
X218201Y923449D01*
X218194Y923427D01*
X218195Y923394D01*
X218187Y923323D01*
X218187Y917173D01*
X213127Y912113D01*
X205973Y912113D01*
G37*
%LPD*%
%LPC*%
G36*
X271635Y278637D02*
X271635Y278637D01*
X269021Y279720D01*
X267020Y281721D01*
X265937Y284335D01*
X265937Y287165D01*
X267020Y289779D01*
X268762Y291521D01*
X268815Y291595D01*
X268875Y291665D01*
X268887Y291695D01*
X268906Y291721D01*
X268933Y291808D01*
X268967Y291893D01*
X268971Y291934D01*
X268978Y291956D01*
X268977Y291988D01*
X268985Y292060D01*
X268985Y406440D01*
X268971Y406531D01*
X268963Y406621D01*
X268951Y406651D01*
X268946Y406683D01*
X268903Y406764D01*
X268867Y406848D01*
X268841Y406880D01*
X268830Y406901D01*
X268807Y406923D01*
X268762Y406979D01*
X267020Y408721D01*
X265937Y411335D01*
X265937Y414165D01*
X267020Y416779D01*
X269021Y418780D01*
X271635Y419863D01*
X274465Y419863D01*
X277079Y418780D01*
X279080Y416779D01*
X280163Y414165D01*
X280163Y411335D01*
X279080Y408721D01*
X277338Y406979D01*
X277285Y406905D01*
X277225Y406835D01*
X277213Y406805D01*
X277194Y406779D01*
X277167Y406692D01*
X277133Y406607D01*
X277129Y406566D01*
X277122Y406544D01*
X277123Y406512D01*
X277115Y406440D01*
X277115Y292060D01*
X277129Y291969D01*
X277137Y291879D01*
X277149Y291849D01*
X277154Y291817D01*
X277197Y291736D01*
X277233Y291652D01*
X277259Y291620D01*
X277270Y291599D01*
X277293Y291577D01*
X277338Y291521D01*
X279080Y289779D01*
X280163Y287165D01*
X280163Y284335D01*
X279080Y281721D01*
X277079Y279720D01*
X274465Y278637D01*
X271635Y278637D01*
G37*
%LPD*%
%LPC*%
G36*
X366328Y785113D02*
X366328Y785113D01*
X363154Y786428D01*
X360724Y788858D01*
X359409Y792032D01*
X359409Y795468D01*
X360724Y798642D01*
X363154Y801072D01*
X366328Y802387D01*
X382972Y802387D01*
X386146Y801072D01*
X388576Y798642D01*
X388724Y798285D01*
X388786Y798185D01*
X388846Y798085D01*
X388850Y798081D01*
X388854Y798076D01*
X388944Y798001D01*
X389032Y797925D01*
X389038Y797923D01*
X389043Y797919D01*
X389152Y797877D01*
X389261Y797833D01*
X389268Y797832D01*
X389273Y797831D01*
X389291Y797830D01*
X389427Y797815D01*
X404401Y797815D01*
X404491Y797829D01*
X404582Y797837D01*
X404612Y797849D01*
X404644Y797854D01*
X404724Y797897D01*
X404808Y797933D01*
X404840Y797959D01*
X404861Y797970D01*
X404883Y797993D01*
X404939Y798038D01*
X414812Y807911D01*
X414865Y807985D01*
X414925Y808054D01*
X414937Y808084D01*
X414956Y808110D01*
X414983Y808197D01*
X415017Y808282D01*
X415021Y808323D01*
X415028Y808346D01*
X415027Y808378D01*
X415035Y808449D01*
X415035Y822165D01*
X415016Y822279D01*
X414999Y822396D01*
X414997Y822401D01*
X414996Y822407D01*
X414941Y822510D01*
X414888Y822615D01*
X414883Y822619D01*
X414880Y822625D01*
X414796Y822705D01*
X414712Y822787D01*
X414706Y822791D01*
X414702Y822794D01*
X414685Y822802D01*
X414565Y822868D01*
X413416Y823344D01*
X410594Y826166D01*
X409066Y829854D01*
X409066Y833846D01*
X410594Y837534D01*
X413416Y840356D01*
X417104Y841884D01*
X421096Y841884D01*
X424784Y840356D01*
X427606Y837534D01*
X429134Y833846D01*
X429134Y829854D01*
X427606Y826166D01*
X424784Y823344D01*
X423635Y822868D01*
X423535Y822806D01*
X423435Y822746D01*
X423431Y822742D01*
X423426Y822738D01*
X423351Y822649D01*
X423275Y822559D01*
X423273Y822554D01*
X423269Y822549D01*
X423227Y822441D01*
X423183Y822331D01*
X423182Y822324D01*
X423181Y822319D01*
X423180Y822301D01*
X423165Y822165D01*
X423165Y804766D01*
X408084Y789685D01*
X389427Y789685D01*
X389313Y789666D01*
X389196Y789649D01*
X389191Y789647D01*
X389185Y789646D01*
X389082Y789591D01*
X388977Y789538D01*
X388973Y789533D01*
X388967Y789530D01*
X388887Y789446D01*
X388805Y789362D01*
X388801Y789356D01*
X388798Y789352D01*
X388790Y789335D01*
X388724Y789215D01*
X388576Y788858D01*
X386146Y786428D01*
X382972Y785113D01*
X366328Y785113D01*
G37*
%LPD*%
%LPC*%
G36*
X256773Y188213D02*
X256773Y188213D01*
X251713Y193273D01*
X251713Y200427D01*
X256062Y204776D01*
X256115Y204850D01*
X256175Y204920D01*
X256187Y204950D01*
X256206Y204976D01*
X256233Y205063D01*
X256267Y205148D01*
X256271Y205189D01*
X256278Y205211D01*
X256277Y205243D01*
X256285Y205315D01*
X256285Y213785D01*
X256271Y213875D01*
X256263Y213966D01*
X256251Y213996D01*
X256246Y214028D01*
X256203Y214109D01*
X256167Y214193D01*
X256141Y214225D01*
X256130Y214245D01*
X256107Y214268D01*
X256062Y214324D01*
X251713Y218673D01*
X251713Y225827D01*
X256773Y230887D01*
X263927Y230887D01*
X268276Y226538D01*
X268350Y226485D01*
X268420Y226425D01*
X268450Y226413D01*
X268476Y226394D01*
X268563Y226367D01*
X268648Y226333D01*
X268689Y226329D01*
X268711Y226322D01*
X268743Y226323D01*
X268815Y226315D01*
X283673Y226315D01*
X283787Y226334D01*
X283904Y226351D01*
X283909Y226353D01*
X283915Y226354D01*
X284018Y226409D01*
X284123Y226462D01*
X284127Y226467D01*
X284133Y226470D01*
X284213Y226554D01*
X284295Y226638D01*
X284299Y226644D01*
X284302Y226648D01*
X284310Y226665D01*
X284376Y226785D01*
X284524Y227142D01*
X286954Y229572D01*
X290128Y230887D01*
X306772Y230887D01*
X309946Y229572D01*
X312376Y227142D01*
X313691Y223968D01*
X313691Y220532D01*
X312376Y217358D01*
X309946Y214928D01*
X306772Y213613D01*
X290128Y213613D01*
X286954Y214928D01*
X284524Y217358D01*
X284376Y217715D01*
X284314Y217815D01*
X284254Y217915D01*
X284250Y217919D01*
X284246Y217924D01*
X284156Y217999D01*
X284068Y218075D01*
X284062Y218077D01*
X284057Y218081D01*
X283948Y218123D01*
X283839Y218167D01*
X283832Y218168D01*
X283827Y218169D01*
X283809Y218170D01*
X283673Y218185D01*
X268815Y218185D01*
X268725Y218171D01*
X268634Y218163D01*
X268604Y218151D01*
X268572Y218146D01*
X268491Y218103D01*
X268407Y218067D01*
X268375Y218041D01*
X268355Y218030D01*
X268332Y218007D01*
X268276Y217962D01*
X264638Y214324D01*
X264585Y214250D01*
X264525Y214180D01*
X264513Y214150D01*
X264494Y214124D01*
X264467Y214037D01*
X264433Y213952D01*
X264429Y213911D01*
X264422Y213889D01*
X264423Y213857D01*
X264415Y213785D01*
X264415Y205315D01*
X264429Y205225D01*
X264437Y205134D01*
X264449Y205104D01*
X264454Y205072D01*
X264497Y204991D01*
X264533Y204907D01*
X264559Y204875D01*
X264570Y204855D01*
X264593Y204832D01*
X264638Y204776D01*
X268987Y200427D01*
X268987Y193273D01*
X263927Y188213D01*
X256773Y188213D01*
G37*
%LPD*%
%LPC*%
G36*
X474532Y245109D02*
X474532Y245109D01*
X471358Y246424D01*
X468928Y248854D01*
X467613Y252028D01*
X467613Y268672D01*
X468928Y271846D01*
X471358Y274276D01*
X471715Y274424D01*
X471815Y274486D01*
X471915Y274546D01*
X471919Y274550D01*
X471924Y274554D01*
X471999Y274644D01*
X472075Y274732D01*
X472077Y274738D01*
X472081Y274743D01*
X472123Y274852D01*
X472167Y274961D01*
X472168Y274968D01*
X472169Y274973D01*
X472170Y274991D01*
X472185Y275127D01*
X472185Y296373D01*
X472166Y296487D01*
X472149Y296604D01*
X472147Y296609D01*
X472146Y296615D01*
X472091Y296718D01*
X472038Y296823D01*
X472033Y296827D01*
X472030Y296833D01*
X471946Y296913D01*
X471862Y296995D01*
X471856Y296999D01*
X471852Y297002D01*
X471835Y297010D01*
X471715Y297076D01*
X471358Y297224D01*
X468928Y299654D01*
X467613Y302828D01*
X467613Y319472D01*
X468928Y322646D01*
X471358Y325076D01*
X474532Y326391D01*
X477968Y326391D01*
X481142Y325076D01*
X483572Y322646D01*
X484887Y319472D01*
X484887Y302828D01*
X483572Y299654D01*
X481142Y297224D01*
X480785Y297076D01*
X480685Y297014D01*
X480585Y296954D01*
X480581Y296950D01*
X480576Y296946D01*
X480501Y296856D01*
X480425Y296768D01*
X480423Y296762D01*
X480419Y296757D01*
X480377Y296648D01*
X480333Y296539D01*
X480332Y296532D01*
X480331Y296527D01*
X480330Y296509D01*
X480315Y296373D01*
X480315Y275127D01*
X480334Y275013D01*
X480351Y274896D01*
X480353Y274891D01*
X480354Y274885D01*
X480409Y274782D01*
X480462Y274677D01*
X480467Y274673D01*
X480470Y274667D01*
X480554Y274587D01*
X480638Y274505D01*
X480644Y274501D01*
X480648Y274498D01*
X480665Y274490D01*
X480785Y274424D01*
X481142Y274276D01*
X483572Y271846D01*
X484887Y268672D01*
X484887Y252028D01*
X483572Y248854D01*
X481142Y246424D01*
X477968Y245109D01*
X474532Y245109D01*
G37*
%LPD*%
%LPC*%
G36*
X110144Y929766D02*
X110144Y929766D01*
X104266Y935644D01*
X104266Y943770D01*
X104252Y943860D01*
X104244Y943951D01*
X104232Y943981D01*
X104227Y944013D01*
X104184Y944093D01*
X104148Y944177D01*
X104122Y944209D01*
X104111Y944230D01*
X104088Y944252D01*
X104043Y944308D01*
X87439Y960912D01*
X87365Y960965D01*
X87296Y961025D01*
X87266Y961037D01*
X87240Y961056D01*
X87153Y961083D01*
X87068Y961117D01*
X87027Y961121D01*
X87004Y961128D01*
X86972Y961127D01*
X86901Y961135D01*
X68326Y961135D01*
X68306Y961132D01*
X68287Y961134D01*
X68185Y961112D01*
X68083Y961096D01*
X68066Y961086D01*
X68046Y961082D01*
X67957Y961029D01*
X67866Y960980D01*
X67852Y960966D01*
X67835Y960956D01*
X67768Y960877D01*
X67696Y960802D01*
X67688Y960784D01*
X67675Y960769D01*
X67636Y960673D01*
X67593Y960579D01*
X67591Y960559D01*
X67583Y960541D01*
X67579Y960500D01*
X61464Y954385D01*
X52836Y954385D01*
X46735Y960486D01*
X46735Y969114D01*
X52836Y975215D01*
X61464Y975215D01*
X67191Y969488D01*
X67265Y969435D01*
X67334Y969375D01*
X67365Y969363D01*
X67391Y969344D01*
X67478Y969317D01*
X67563Y969283D01*
X67603Y969279D01*
X67626Y969272D01*
X67658Y969273D01*
X67729Y969265D01*
X90584Y969265D01*
X109792Y950057D01*
X109866Y950004D01*
X109935Y949944D01*
X109965Y949932D01*
X109991Y949913D01*
X110078Y949886D01*
X110163Y949852D01*
X110204Y949848D01*
X110227Y949841D01*
X110259Y949842D01*
X110330Y949834D01*
X118456Y949834D01*
X124334Y943956D01*
X124334Y935644D01*
X118456Y929766D01*
X110144Y929766D01*
G37*
%LPD*%
%LPC*%
G36*
X144054Y650366D02*
X144054Y650366D01*
X140366Y651894D01*
X137544Y654716D01*
X136016Y658404D01*
X136016Y662396D01*
X137544Y666084D01*
X140366Y668906D01*
X141515Y669382D01*
X141615Y669444D01*
X141715Y669504D01*
X141719Y669508D01*
X141724Y669512D01*
X141799Y669602D01*
X141875Y669691D01*
X141877Y669696D01*
X141881Y669701D01*
X141923Y669810D01*
X141967Y669919D01*
X141968Y669926D01*
X141969Y669931D01*
X141970Y669949D01*
X141985Y670085D01*
X141985Y681134D01*
X175290Y714439D01*
X175343Y714513D01*
X175403Y714582D01*
X175415Y714612D01*
X175434Y714638D01*
X175461Y714725D01*
X175495Y714810D01*
X175499Y714851D01*
X175506Y714874D01*
X175505Y714906D01*
X175513Y714977D01*
X175513Y721127D01*
X180573Y726187D01*
X187727Y726187D01*
X192787Y721127D01*
X192787Y713973D01*
X187727Y708913D01*
X181577Y708913D01*
X181487Y708899D01*
X181396Y708891D01*
X181366Y708879D01*
X181334Y708874D01*
X181254Y708831D01*
X181170Y708795D01*
X181138Y708769D01*
X181117Y708758D01*
X181095Y708735D01*
X181039Y708690D01*
X150338Y677989D01*
X150285Y677915D01*
X150225Y677846D01*
X150213Y677816D01*
X150194Y677790D01*
X150167Y677703D01*
X150133Y677618D01*
X150129Y677577D01*
X150122Y677554D01*
X150123Y677522D01*
X150115Y677451D01*
X150115Y670085D01*
X150134Y669971D01*
X150151Y669854D01*
X150153Y669849D01*
X150154Y669843D01*
X150209Y669740D01*
X150262Y669635D01*
X150267Y669631D01*
X150270Y669625D01*
X150354Y669545D01*
X150438Y669463D01*
X150444Y669459D01*
X150448Y669456D01*
X150465Y669448D01*
X150585Y669382D01*
X151734Y668906D01*
X154556Y666084D01*
X156084Y662396D01*
X156084Y658404D01*
X154556Y654716D01*
X151734Y651894D01*
X148046Y650366D01*
X144054Y650366D01*
G37*
%LPD*%
%LPC*%
G36*
X366328Y937513D02*
X366328Y937513D01*
X363154Y938828D01*
X360724Y941258D01*
X359409Y944432D01*
X359409Y947868D01*
X360724Y951042D01*
X363154Y953472D01*
X366328Y954787D01*
X382972Y954787D01*
X386146Y953472D01*
X388576Y951042D01*
X388724Y950685D01*
X388786Y950585D01*
X388846Y950485D01*
X388850Y950481D01*
X388854Y950476D01*
X388944Y950401D01*
X389032Y950325D01*
X389038Y950323D01*
X389043Y950319D01*
X389152Y950277D01*
X389261Y950233D01*
X389268Y950232D01*
X389273Y950231D01*
X389291Y950230D01*
X389427Y950215D01*
X404285Y950215D01*
X404375Y950229D01*
X404466Y950237D01*
X404496Y950249D01*
X404528Y950254D01*
X404609Y950297D01*
X404693Y950333D01*
X404725Y950359D01*
X404745Y950370D01*
X404768Y950393D01*
X404824Y950438D01*
X409173Y954787D01*
X416327Y954787D01*
X421387Y949727D01*
X421387Y942573D01*
X416327Y937513D01*
X409173Y937513D01*
X404824Y941862D01*
X404750Y941915D01*
X404680Y941975D01*
X404650Y941987D01*
X404624Y942006D01*
X404537Y942033D01*
X404452Y942067D01*
X404411Y942071D01*
X404389Y942078D01*
X404357Y942077D01*
X404285Y942085D01*
X389427Y942085D01*
X389313Y942066D01*
X389196Y942049D01*
X389191Y942047D01*
X389185Y942046D01*
X389082Y941991D01*
X388977Y941938D01*
X388973Y941933D01*
X388967Y941930D01*
X388887Y941846D01*
X388805Y941762D01*
X388801Y941756D01*
X388798Y941752D01*
X388790Y941735D01*
X388724Y941615D01*
X388576Y941258D01*
X386146Y938828D01*
X382972Y937513D01*
X366328Y937513D01*
G37*
%LPD*%
%LPC*%
G36*
X256773Y912113D02*
X256773Y912113D01*
X251713Y917173D01*
X251713Y924327D01*
X256773Y929387D01*
X263927Y929387D01*
X268276Y925038D01*
X268350Y924985D01*
X268420Y924925D01*
X268450Y924913D01*
X268476Y924894D01*
X268563Y924867D01*
X268648Y924833D01*
X268689Y924829D01*
X268711Y924822D01*
X268743Y924823D01*
X268815Y924815D01*
X283673Y924815D01*
X283787Y924834D01*
X283904Y924851D01*
X283909Y924853D01*
X283915Y924854D01*
X284018Y924909D01*
X284123Y924962D01*
X284127Y924967D01*
X284133Y924970D01*
X284213Y925054D01*
X284295Y925138D01*
X284299Y925144D01*
X284302Y925148D01*
X284310Y925165D01*
X284376Y925285D01*
X284524Y925642D01*
X286954Y928072D01*
X290128Y929387D01*
X306772Y929387D01*
X309946Y928072D01*
X312376Y925642D01*
X313691Y922468D01*
X313691Y919032D01*
X312376Y915858D01*
X309946Y913428D01*
X306772Y912113D01*
X290128Y912113D01*
X286954Y913428D01*
X284524Y915858D01*
X284376Y916215D01*
X284314Y916315D01*
X284254Y916415D01*
X284250Y916419D01*
X284246Y916424D01*
X284156Y916499D01*
X284068Y916575D01*
X284062Y916577D01*
X284057Y916581D01*
X283948Y916623D01*
X283839Y916667D01*
X283832Y916668D01*
X283827Y916669D01*
X283809Y916670D01*
X283673Y916685D01*
X268815Y916685D01*
X268725Y916671D01*
X268634Y916663D01*
X268604Y916651D01*
X268572Y916646D01*
X268491Y916603D01*
X268407Y916567D01*
X268375Y916541D01*
X268355Y916530D01*
X268332Y916507D01*
X268276Y916462D01*
X263927Y912113D01*
X256773Y912113D01*
G37*
%LPD*%
%LPC*%
G36*
X256773Y886713D02*
X256773Y886713D01*
X251713Y891773D01*
X251713Y898927D01*
X256773Y903987D01*
X263927Y903987D01*
X268276Y899638D01*
X268350Y899585D01*
X268420Y899525D01*
X268450Y899513D01*
X268476Y899494D01*
X268563Y899467D01*
X268648Y899433D01*
X268689Y899429D01*
X268711Y899422D01*
X268743Y899423D01*
X268815Y899415D01*
X283673Y899415D01*
X283787Y899434D01*
X283904Y899451D01*
X283909Y899453D01*
X283915Y899454D01*
X284018Y899509D01*
X284123Y899562D01*
X284127Y899567D01*
X284133Y899570D01*
X284213Y899654D01*
X284295Y899738D01*
X284299Y899744D01*
X284302Y899748D01*
X284310Y899765D01*
X284376Y899885D01*
X284524Y900242D01*
X286954Y902672D01*
X290128Y903987D01*
X306772Y903987D01*
X309946Y902672D01*
X312376Y900242D01*
X313691Y897068D01*
X313691Y893632D01*
X312376Y890458D01*
X309946Y888028D01*
X306772Y886713D01*
X290128Y886713D01*
X286954Y888028D01*
X284524Y890458D01*
X284376Y890815D01*
X284314Y890915D01*
X284254Y891015D01*
X284250Y891019D01*
X284246Y891024D01*
X284156Y891099D01*
X284068Y891175D01*
X284062Y891177D01*
X284057Y891181D01*
X283948Y891223D01*
X283839Y891267D01*
X283832Y891268D01*
X283827Y891269D01*
X283809Y891270D01*
X283673Y891285D01*
X268815Y891285D01*
X268725Y891271D01*
X268634Y891263D01*
X268604Y891251D01*
X268572Y891246D01*
X268491Y891203D01*
X268407Y891167D01*
X268375Y891141D01*
X268355Y891130D01*
X268332Y891107D01*
X268276Y891062D01*
X263927Y886713D01*
X256773Y886713D01*
G37*
%LPD*%
%LPC*%
G36*
X366328Y912113D02*
X366328Y912113D01*
X363154Y913428D01*
X360724Y915858D01*
X359409Y919032D01*
X359409Y922468D01*
X360724Y925642D01*
X363154Y928072D01*
X366328Y929387D01*
X382972Y929387D01*
X386146Y928072D01*
X388576Y925642D01*
X388724Y925285D01*
X388786Y925185D01*
X388846Y925085D01*
X388850Y925081D01*
X388854Y925076D01*
X388944Y925001D01*
X389032Y924925D01*
X389038Y924923D01*
X389043Y924919D01*
X389152Y924877D01*
X389261Y924833D01*
X389268Y924832D01*
X389273Y924831D01*
X389291Y924830D01*
X389427Y924815D01*
X404285Y924815D01*
X404375Y924829D01*
X404466Y924837D01*
X404496Y924849D01*
X404528Y924854D01*
X404609Y924897D01*
X404693Y924933D01*
X404725Y924959D01*
X404745Y924970D01*
X404768Y924993D01*
X404824Y925038D01*
X409173Y929387D01*
X416327Y929387D01*
X421387Y924327D01*
X421387Y917173D01*
X416327Y912113D01*
X409173Y912113D01*
X404824Y916462D01*
X404750Y916515D01*
X404680Y916575D01*
X404650Y916587D01*
X404624Y916606D01*
X404537Y916633D01*
X404452Y916667D01*
X404411Y916671D01*
X404389Y916678D01*
X404357Y916677D01*
X404285Y916685D01*
X389427Y916685D01*
X389313Y916666D01*
X389196Y916649D01*
X389191Y916647D01*
X389185Y916646D01*
X389082Y916591D01*
X388977Y916538D01*
X388973Y916533D01*
X388967Y916530D01*
X388887Y916446D01*
X388805Y916362D01*
X388801Y916356D01*
X388798Y916352D01*
X388790Y916335D01*
X388724Y916215D01*
X388576Y915858D01*
X386146Y913428D01*
X382972Y912113D01*
X366328Y912113D01*
G37*
%LPD*%
%LPC*%
G36*
X256773Y835913D02*
X256773Y835913D01*
X251713Y840973D01*
X251713Y848127D01*
X256773Y853187D01*
X263927Y853187D01*
X268276Y848838D01*
X268350Y848785D01*
X268420Y848725D01*
X268450Y848713D01*
X268476Y848694D01*
X268563Y848667D01*
X268648Y848633D01*
X268689Y848629D01*
X268711Y848622D01*
X268743Y848623D01*
X268815Y848615D01*
X283673Y848615D01*
X283787Y848634D01*
X283904Y848651D01*
X283909Y848653D01*
X283915Y848654D01*
X284018Y848709D01*
X284123Y848762D01*
X284127Y848767D01*
X284133Y848770D01*
X284213Y848854D01*
X284295Y848938D01*
X284299Y848944D01*
X284302Y848948D01*
X284310Y848965D01*
X284376Y849085D01*
X284524Y849442D01*
X286954Y851872D01*
X290128Y853187D01*
X306772Y853187D01*
X309946Y851872D01*
X312376Y849442D01*
X313691Y846268D01*
X313691Y842832D01*
X312376Y839658D01*
X309946Y837228D01*
X306772Y835913D01*
X290128Y835913D01*
X286954Y837228D01*
X284524Y839658D01*
X284376Y840015D01*
X284314Y840115D01*
X284254Y840215D01*
X284250Y840219D01*
X284246Y840224D01*
X284156Y840299D01*
X284068Y840375D01*
X284062Y840377D01*
X284057Y840381D01*
X283948Y840423D01*
X283839Y840467D01*
X283832Y840468D01*
X283827Y840469D01*
X283809Y840470D01*
X283673Y840485D01*
X268815Y840485D01*
X268725Y840471D01*
X268634Y840463D01*
X268604Y840451D01*
X268572Y840446D01*
X268491Y840403D01*
X268407Y840367D01*
X268375Y840341D01*
X268355Y840330D01*
X268332Y840307D01*
X268276Y840262D01*
X263927Y835913D01*
X256773Y835913D01*
G37*
%LPD*%
%LPC*%
G36*
X366328Y861313D02*
X366328Y861313D01*
X363154Y862628D01*
X360724Y865058D01*
X359409Y868232D01*
X359409Y871668D01*
X360724Y874842D01*
X363154Y877272D01*
X366328Y878587D01*
X382972Y878587D01*
X386146Y877272D01*
X388576Y874842D01*
X389891Y871668D01*
X389891Y868232D01*
X388576Y865058D01*
X386146Y862628D01*
X382972Y861313D01*
X366328Y861313D01*
G37*
%LPD*%
%LPC*%
G36*
X366328Y213613D02*
X366328Y213613D01*
X363154Y214928D01*
X360724Y217358D01*
X359409Y220532D01*
X359409Y223968D01*
X360724Y227142D01*
X363154Y229572D01*
X366328Y230887D01*
X382972Y230887D01*
X386146Y229572D01*
X388576Y227142D01*
X389891Y223968D01*
X389891Y220532D01*
X388576Y217358D01*
X386146Y214928D01*
X382972Y213613D01*
X366328Y213613D01*
G37*
%LPD*%
%LPC*%
G36*
X366328Y188213D02*
X366328Y188213D01*
X363154Y189528D01*
X360724Y191958D01*
X359409Y195132D01*
X359409Y198568D01*
X360724Y201742D01*
X363154Y204172D01*
X366328Y205487D01*
X382972Y205487D01*
X386146Y204172D01*
X388576Y201742D01*
X389891Y198568D01*
X389891Y195132D01*
X388576Y191958D01*
X386146Y189528D01*
X382972Y188213D01*
X366328Y188213D01*
G37*
%LPD*%
%LPC*%
G36*
X366328Y112013D02*
X366328Y112013D01*
X363154Y113328D01*
X360724Y115758D01*
X359409Y118932D01*
X359409Y122368D01*
X360724Y125542D01*
X363154Y127972D01*
X366328Y129287D01*
X382972Y129287D01*
X386146Y127972D01*
X388576Y125542D01*
X389891Y122368D01*
X389891Y118932D01*
X388576Y115758D01*
X386146Y113328D01*
X382972Y112013D01*
X366328Y112013D01*
G37*
%LPD*%
%LPC*%
G36*
X366328Y239013D02*
X366328Y239013D01*
X363154Y240328D01*
X360724Y242758D01*
X359409Y245932D01*
X359409Y249368D01*
X360724Y252542D01*
X363154Y254972D01*
X366328Y256287D01*
X382972Y256287D01*
X386146Y254972D01*
X388576Y252542D01*
X389891Y249368D01*
X389891Y245932D01*
X388576Y242758D01*
X386146Y240328D01*
X382972Y239013D01*
X366328Y239013D01*
G37*
%LPD*%
%LPC*%
G36*
X18523Y268223D02*
X18523Y268223D01*
X18523Y299674D01*
X20476Y299416D01*
X22728Y298813D01*
X24881Y297921D01*
X26900Y296756D01*
X28749Y295337D01*
X30397Y293689D01*
X31816Y291840D01*
X32981Y289821D01*
X33873Y287668D01*
X34476Y285416D01*
X34781Y283105D01*
X34781Y268223D01*
X18523Y268223D01*
G37*
%LPD*%
%LPC*%
G36*
X18523Y153923D02*
X18523Y153923D01*
X18523Y185374D01*
X20476Y185116D01*
X22728Y184513D01*
X24881Y183621D01*
X26900Y182456D01*
X28749Y181037D01*
X30397Y179389D01*
X31816Y177540D01*
X32981Y175521D01*
X33873Y173368D01*
X34476Y171116D01*
X34781Y168805D01*
X34781Y153923D01*
X18523Y153923D01*
G37*
%LPD*%
%LPC*%
G36*
X18523Y39623D02*
X18523Y39623D01*
X18523Y71074D01*
X20476Y70816D01*
X22728Y70213D01*
X24881Y69321D01*
X26900Y68156D01*
X28749Y66737D01*
X30397Y65089D01*
X31816Y63240D01*
X32981Y61221D01*
X33873Y59068D01*
X34476Y56816D01*
X34781Y54505D01*
X34781Y39623D01*
X18523Y39623D01*
G37*
%LPD*%
%LPC*%
G36*
X18523Y150877D02*
X18523Y150877D01*
X34781Y150877D01*
X34781Y135995D01*
X34476Y133684D01*
X33873Y131432D01*
X32981Y129279D01*
X31816Y127260D01*
X30397Y125411D01*
X28749Y123763D01*
X26900Y122344D01*
X24881Y121179D01*
X22728Y120287D01*
X20476Y119684D01*
X18523Y119426D01*
X18523Y150877D01*
G37*
%LPD*%
%LPC*%
G36*
X18523Y265177D02*
X18523Y265177D01*
X34781Y265177D01*
X34781Y250295D01*
X34476Y247984D01*
X33873Y245732D01*
X32981Y243579D01*
X31816Y241560D01*
X30397Y239711D01*
X28749Y238063D01*
X26900Y236644D01*
X24881Y235479D01*
X22728Y234587D01*
X20476Y233984D01*
X18523Y233726D01*
X18523Y265177D01*
G37*
%LPD*%
%LPC*%
G36*
X47926Y675785D02*
X47926Y675785D01*
X46735Y676976D01*
X46735Y695424D01*
X47926Y696615D01*
X66374Y696615D01*
X67565Y695424D01*
X67565Y676976D01*
X66374Y675785D01*
X47926Y675785D01*
G37*
%LPD*%
%LPC*%
G36*
X52836Y472185D02*
X52836Y472185D01*
X46735Y478286D01*
X46735Y486914D01*
X52836Y493015D01*
X61464Y493015D01*
X67565Y486914D01*
X67565Y478286D01*
X61464Y472185D01*
X52836Y472185D01*
G37*
%LPD*%
%LPC*%
G36*
X141894Y624966D02*
X141894Y624966D01*
X136016Y630844D01*
X136016Y639156D01*
X141894Y645034D01*
X150206Y645034D01*
X156084Y639156D01*
X156084Y630844D01*
X150206Y624966D01*
X141894Y624966D01*
G37*
%LPD*%
%LPC*%
G36*
X220254Y301116D02*
X220254Y301116D01*
X216566Y302644D01*
X213744Y305466D01*
X212216Y309154D01*
X212216Y313146D01*
X213744Y316834D01*
X216566Y319656D01*
X220254Y321184D01*
X224246Y321184D01*
X227934Y319656D01*
X230756Y316834D01*
X232284Y313146D01*
X232284Y309154D01*
X230756Y305466D01*
X227934Y302644D01*
X224246Y301116D01*
X220254Y301116D01*
G37*
%LPD*%
%LPC*%
G36*
X358373Y334263D02*
X358373Y334263D01*
X353313Y339323D01*
X353313Y346477D01*
X358373Y351537D01*
X365527Y351537D01*
X370587Y346477D01*
X370587Y339323D01*
X365527Y334263D01*
X358373Y334263D01*
G37*
%LPD*%
%LPC*%
G36*
X371073Y302513D02*
X371073Y302513D01*
X366013Y307573D01*
X366013Y314727D01*
X371073Y319787D01*
X378227Y319787D01*
X383287Y314727D01*
X383287Y307573D01*
X378227Y302513D01*
X371073Y302513D01*
G37*
%LPD*%
%LPC*%
G36*
X256773Y759713D02*
X256773Y759713D01*
X251713Y764773D01*
X251713Y771927D01*
X256773Y776987D01*
X263927Y776987D01*
X268987Y771927D01*
X268987Y764773D01*
X263927Y759713D01*
X256773Y759713D01*
G37*
%LPD*%
%LPC*%
G36*
X205973Y785113D02*
X205973Y785113D01*
X200913Y790173D01*
X200913Y797327D01*
X205973Y802387D01*
X213127Y802387D01*
X218187Y797327D01*
X218187Y790173D01*
X213127Y785113D01*
X205973Y785113D01*
G37*
%LPD*%
%LPC*%
G36*
X294873Y302513D02*
X294873Y302513D01*
X289813Y307573D01*
X289813Y314727D01*
X294873Y319787D01*
X302027Y319787D01*
X307087Y314727D01*
X307087Y307573D01*
X302027Y302513D01*
X294873Y302513D01*
G37*
%LPD*%
%LPC*%
G36*
X299973Y147573D02*
X299973Y147573D01*
X299973Y155195D01*
X305955Y155195D01*
X307721Y154843D01*
X309386Y154154D01*
X310884Y153153D01*
X312157Y151880D01*
X313158Y150382D01*
X313847Y148717D01*
X314075Y147573D01*
X299973Y147573D01*
G37*
%LPD*%
%LPC*%
G36*
X299973Y198373D02*
X299973Y198373D01*
X299973Y205995D01*
X305955Y205995D01*
X307721Y205643D01*
X309386Y204954D01*
X310884Y203953D01*
X312157Y202680D01*
X313158Y201182D01*
X313847Y199517D01*
X314075Y198373D01*
X299973Y198373D01*
G37*
%LPD*%
%LPC*%
G36*
X376173Y147573D02*
X376173Y147573D01*
X376173Y155195D01*
X382155Y155195D01*
X383921Y154843D01*
X385586Y154154D01*
X387084Y153153D01*
X388357Y151880D01*
X389358Y150382D01*
X390047Y148717D01*
X390275Y147573D01*
X376173Y147573D01*
G37*
%LPD*%
%LPC*%
G36*
X376173Y820673D02*
X376173Y820673D01*
X376173Y828295D01*
X382155Y828295D01*
X383921Y827943D01*
X385586Y827254D01*
X387084Y826253D01*
X388357Y824980D01*
X389358Y823482D01*
X390047Y821817D01*
X390275Y820673D01*
X376173Y820673D01*
G37*
%LPD*%
%LPC*%
G36*
X376173Y846073D02*
X376173Y846073D01*
X376173Y853695D01*
X382155Y853695D01*
X383921Y853343D01*
X385586Y852654D01*
X387084Y851653D01*
X388357Y850380D01*
X389358Y848882D01*
X390047Y847217D01*
X390275Y846073D01*
X376173Y846073D01*
G37*
%LPD*%
%LPC*%
G36*
X282825Y198373D02*
X282825Y198373D01*
X283053Y199517D01*
X283742Y201182D01*
X284743Y202680D01*
X286016Y203953D01*
X287514Y204954D01*
X289179Y205643D01*
X290945Y205995D01*
X296927Y205995D01*
X296927Y198373D01*
X282825Y198373D01*
G37*
%LPD*%
%LPC*%
G36*
X282825Y147573D02*
X282825Y147573D01*
X283053Y148717D01*
X283742Y150382D01*
X284743Y151880D01*
X286016Y153153D01*
X287514Y154154D01*
X289179Y154843D01*
X290945Y155195D01*
X296927Y155195D01*
X296927Y147573D01*
X282825Y147573D01*
G37*
%LPD*%
%LPC*%
G36*
X359025Y147573D02*
X359025Y147573D01*
X359253Y148717D01*
X359942Y150382D01*
X360943Y151880D01*
X362216Y153153D01*
X363714Y154154D01*
X365379Y154843D01*
X367145Y155195D01*
X373127Y155195D01*
X373127Y147573D01*
X359025Y147573D01*
G37*
%LPD*%
%LPC*%
G36*
X359025Y820673D02*
X359025Y820673D01*
X359253Y821817D01*
X359942Y823482D01*
X360943Y824980D01*
X362216Y826253D01*
X363714Y827254D01*
X365379Y827943D01*
X367145Y828295D01*
X373127Y828295D01*
X373127Y820673D01*
X359025Y820673D01*
G37*
%LPD*%
%LPC*%
G36*
X359025Y846073D02*
X359025Y846073D01*
X359253Y847217D01*
X359942Y848882D01*
X360943Y850380D01*
X362216Y851653D01*
X363714Y852654D01*
X365379Y853343D01*
X367145Y853695D01*
X373127Y853695D01*
X373127Y846073D01*
X359025Y846073D01*
G37*
%LPD*%
%LPC*%
G36*
X376173Y810005D02*
X376173Y810005D01*
X376173Y817627D01*
X390275Y817627D01*
X390047Y816483D01*
X389358Y814818D01*
X388357Y813320D01*
X387084Y812047D01*
X385586Y811046D01*
X383921Y810357D01*
X382155Y810005D01*
X376173Y810005D01*
G37*
%LPD*%
%LPC*%
G36*
X376173Y136905D02*
X376173Y136905D01*
X376173Y144527D01*
X390275Y144527D01*
X390047Y143383D01*
X389358Y141718D01*
X388357Y140220D01*
X387084Y138947D01*
X385586Y137946D01*
X383921Y137257D01*
X382155Y136905D01*
X376173Y136905D01*
G37*
%LPD*%
%LPC*%
G36*
X299973Y187705D02*
X299973Y187705D01*
X299973Y195327D01*
X314075Y195327D01*
X313847Y194183D01*
X313158Y192518D01*
X312157Y191020D01*
X310884Y189747D01*
X309386Y188746D01*
X307721Y188057D01*
X305955Y187705D01*
X299973Y187705D01*
G37*
%LPD*%
%LPC*%
G36*
X376173Y835405D02*
X376173Y835405D01*
X376173Y843027D01*
X390275Y843027D01*
X390047Y841883D01*
X389358Y840218D01*
X388357Y838720D01*
X387084Y837447D01*
X385586Y836446D01*
X383921Y835757D01*
X382155Y835405D01*
X376173Y835405D01*
G37*
%LPD*%
%LPC*%
G36*
X299973Y136905D02*
X299973Y136905D01*
X299973Y144527D01*
X314075Y144527D01*
X313847Y143383D01*
X313158Y141718D01*
X312157Y140220D01*
X310884Y138947D01*
X309386Y137946D01*
X307721Y137257D01*
X305955Y136905D01*
X299973Y136905D01*
G37*
%LPD*%
%LPC*%
G36*
X290945Y187705D02*
X290945Y187705D01*
X289179Y188057D01*
X287514Y188746D01*
X286016Y189747D01*
X284743Y191020D01*
X283742Y192518D01*
X283053Y194183D01*
X282825Y195327D01*
X296927Y195327D01*
X296927Y187705D01*
X290945Y187705D01*
G37*
%LPD*%
%LPC*%
G36*
X290945Y136905D02*
X290945Y136905D01*
X289179Y137257D01*
X287514Y137946D01*
X286016Y138947D01*
X284743Y140220D01*
X283742Y141718D01*
X283053Y143383D01*
X282825Y144527D01*
X296927Y144527D01*
X296927Y136905D01*
X290945Y136905D01*
G37*
%LPD*%
%LPC*%
G36*
X367145Y810005D02*
X367145Y810005D01*
X365379Y810357D01*
X363714Y811046D01*
X362216Y812047D01*
X360943Y813320D01*
X359942Y814818D01*
X359253Y816483D01*
X359025Y817627D01*
X373127Y817627D01*
X373127Y810005D01*
X367145Y810005D01*
G37*
%LPD*%
%LPC*%
G36*
X367145Y136905D02*
X367145Y136905D01*
X365379Y137257D01*
X363714Y137946D01*
X362216Y138947D01*
X360943Y140220D01*
X359942Y141718D01*
X359253Y143383D01*
X359025Y144527D01*
X373127Y144527D01*
X373127Y136905D01*
X367145Y136905D01*
G37*
%LPD*%
%LPC*%
G36*
X367145Y835405D02*
X367145Y835405D01*
X365379Y835757D01*
X363714Y836446D01*
X362216Y837447D01*
X360943Y838720D01*
X359942Y840218D01*
X359253Y841883D01*
X359025Y843027D01*
X373127Y843027D01*
X373127Y835405D01*
X367145Y835405D01*
G37*
%LPD*%
%LPC*%
G36*
X58673Y916323D02*
X58673Y916323D01*
X58673Y925723D01*
X65866Y925723D01*
X66513Y925550D01*
X67092Y925215D01*
X67565Y924742D01*
X67900Y924163D01*
X68073Y923516D01*
X68073Y916323D01*
X58673Y916323D01*
G37*
%LPD*%
%LPC*%
G36*
X58673Y459123D02*
X58673Y459123D01*
X58673Y468523D01*
X65866Y468523D01*
X66513Y468350D01*
X67092Y468015D01*
X67565Y467542D01*
X67900Y466963D01*
X68073Y466316D01*
X68073Y459123D01*
X58673Y459123D01*
G37*
%LPD*%
%LPC*%
G36*
X46227Y916323D02*
X46227Y916323D01*
X46227Y923516D01*
X46400Y924163D01*
X46735Y924742D01*
X47208Y925215D01*
X47787Y925550D01*
X48434Y925723D01*
X55627Y925723D01*
X55627Y916323D01*
X46227Y916323D01*
G37*
%LPD*%
%LPC*%
G36*
X58673Y903877D02*
X58673Y903877D01*
X58673Y913277D01*
X68073Y913277D01*
X68073Y906084D01*
X67900Y905437D01*
X67565Y904858D01*
X67092Y904385D01*
X66513Y904050D01*
X65866Y903877D01*
X58673Y903877D01*
G37*
%LPD*%
%LPC*%
G36*
X58673Y446677D02*
X58673Y446677D01*
X58673Y456077D01*
X68073Y456077D01*
X68073Y448884D01*
X67900Y448237D01*
X67565Y447658D01*
X67092Y447185D01*
X66513Y446850D01*
X65866Y446677D01*
X58673Y446677D01*
G37*
%LPD*%
%LPC*%
G36*
X46227Y459123D02*
X46227Y459123D01*
X46227Y466316D01*
X46400Y466963D01*
X46735Y467542D01*
X47208Y468015D01*
X47787Y468350D01*
X48434Y468523D01*
X55627Y468523D01*
X55627Y459123D01*
X46227Y459123D01*
G37*
%LPD*%
%LPC*%
G36*
X48434Y446677D02*
X48434Y446677D01*
X47787Y446850D01*
X47208Y447185D01*
X46735Y447658D01*
X46400Y448237D01*
X46227Y448884D01*
X46227Y456077D01*
X55627Y456077D01*
X55627Y446677D01*
X48434Y446677D01*
G37*
%LPD*%
%LPC*%
G36*
X48434Y903877D02*
X48434Y903877D01*
X47787Y904050D01*
X47208Y904385D01*
X46735Y904858D01*
X46400Y905437D01*
X46227Y906084D01*
X46227Y913277D01*
X55627Y913277D01*
X55627Y903877D01*
X48434Y903877D01*
G37*
%LPD*%
%LPC*%
G36*
X134873Y503173D02*
X134873Y503173D01*
X134873Y512192D01*
X137717Y512192D01*
X143892Y506017D01*
X143892Y503173D01*
X134873Y503173D01*
G37*
%LPD*%
%LPC*%
G36*
X446023Y833373D02*
X446023Y833373D01*
X446023Y842392D01*
X448867Y842392D01*
X455042Y836217D01*
X455042Y833373D01*
X446023Y833373D01*
G37*
%LPD*%
%LPC*%
G36*
X363473Y604773D02*
X363473Y604773D01*
X363473Y613792D01*
X366317Y613792D01*
X372492Y607617D01*
X372492Y604773D01*
X363473Y604773D01*
G37*
%LPD*%
%LPC*%
G36*
X446023Y769873D02*
X446023Y769873D01*
X446023Y778892D01*
X448867Y778892D01*
X455042Y772717D01*
X455042Y769873D01*
X446023Y769873D01*
G37*
%LPD*%
%LPC*%
G36*
X223773Y604773D02*
X223773Y604773D01*
X223773Y613792D01*
X226617Y613792D01*
X232792Y607617D01*
X232792Y604773D01*
X223773Y604773D01*
G37*
%LPD*%
%LPC*%
G36*
X433958Y769873D02*
X433958Y769873D01*
X433958Y772717D01*
X440133Y778892D01*
X442977Y778892D01*
X442977Y769873D01*
X433958Y769873D01*
G37*
%LPD*%
%LPC*%
G36*
X433958Y833373D02*
X433958Y833373D01*
X433958Y836217D01*
X440133Y842392D01*
X442977Y842392D01*
X442977Y833373D01*
X433958Y833373D01*
G37*
%LPD*%
%LPC*%
G36*
X122808Y503173D02*
X122808Y503173D01*
X122808Y506017D01*
X128983Y512192D01*
X131827Y512192D01*
X131827Y503173D01*
X122808Y503173D01*
G37*
%LPD*%
%LPC*%
G36*
X351408Y604773D02*
X351408Y604773D01*
X351408Y607617D01*
X357583Y613792D01*
X360427Y613792D01*
X360427Y604773D01*
X351408Y604773D01*
G37*
%LPD*%
%LPC*%
G36*
X211708Y604773D02*
X211708Y604773D01*
X211708Y607617D01*
X217883Y613792D01*
X220727Y613792D01*
X220727Y604773D01*
X211708Y604773D01*
G37*
%LPD*%
%LPC*%
G36*
X363473Y592708D02*
X363473Y592708D01*
X363473Y601727D01*
X372492Y601727D01*
X372492Y598883D01*
X366317Y592708D01*
X363473Y592708D01*
G37*
%LPD*%
%LPC*%
G36*
X223773Y592708D02*
X223773Y592708D01*
X223773Y601727D01*
X232792Y601727D01*
X232792Y598883D01*
X226617Y592708D01*
X223773Y592708D01*
G37*
%LPD*%
%LPC*%
G36*
X134873Y491108D02*
X134873Y491108D01*
X134873Y500127D01*
X143892Y500127D01*
X143892Y497283D01*
X137717Y491108D01*
X134873Y491108D01*
G37*
%LPD*%
%LPC*%
G36*
X446023Y757808D02*
X446023Y757808D01*
X446023Y766827D01*
X455042Y766827D01*
X455042Y763983D01*
X448867Y757808D01*
X446023Y757808D01*
G37*
%LPD*%
%LPC*%
G36*
X446023Y821308D02*
X446023Y821308D01*
X446023Y830327D01*
X455042Y830327D01*
X455042Y827483D01*
X448867Y821308D01*
X446023Y821308D01*
G37*
%LPD*%
%LPC*%
G36*
X217883Y592708D02*
X217883Y592708D01*
X211708Y598883D01*
X211708Y601727D01*
X220727Y601727D01*
X220727Y592708D01*
X217883Y592708D01*
G37*
%LPD*%
%LPC*%
G36*
X440133Y821308D02*
X440133Y821308D01*
X433958Y827483D01*
X433958Y830327D01*
X442977Y830327D01*
X442977Y821308D01*
X440133Y821308D01*
G37*
%LPD*%
%LPC*%
G36*
X128983Y491108D02*
X128983Y491108D01*
X122808Y497283D01*
X122808Y500127D01*
X131827Y500127D01*
X131827Y491108D01*
X128983Y491108D01*
G37*
%LPD*%
%LPC*%
G36*
X357583Y592708D02*
X357583Y592708D01*
X351408Y598883D01*
X351408Y601727D01*
X360427Y601727D01*
X360427Y592708D01*
X357583Y592708D01*
G37*
%LPD*%
%LPC*%
G36*
X440133Y757808D02*
X440133Y757808D01*
X433958Y763983D01*
X433958Y766827D01*
X442977Y766827D01*
X442977Y757808D01*
X440133Y757808D01*
G37*
%LPD*%
%LPC*%
G36*
X452373Y503173D02*
X452373Y503173D01*
X452373Y512082D01*
X453318Y511932D01*
X454897Y511419D01*
X456375Y510666D01*
X457717Y509691D01*
X458891Y508517D01*
X459866Y507175D01*
X460619Y505697D01*
X461132Y504118D01*
X461282Y503173D01*
X452373Y503173D01*
G37*
%LPD*%
%LPC*%
G36*
X452373Y500127D02*
X452373Y500127D01*
X461282Y500127D01*
X461132Y499182D01*
X460619Y497603D01*
X459866Y496125D01*
X458891Y494783D01*
X457717Y493609D01*
X456375Y492634D01*
X454897Y491881D01*
X453318Y491368D01*
X452373Y491218D01*
X452373Y500127D01*
G37*
%LPD*%
%LPC*%
G36*
X440418Y503173D02*
X440418Y503173D01*
X440568Y504118D01*
X441081Y505697D01*
X441834Y507175D01*
X442809Y508517D01*
X443983Y509691D01*
X445325Y510666D01*
X446803Y511419D01*
X448382Y511932D01*
X449327Y512082D01*
X449327Y503173D01*
X440418Y503173D01*
G37*
%LPD*%
%LPC*%
G36*
X448382Y491368D02*
X448382Y491368D01*
X446803Y491881D01*
X445325Y492634D01*
X443983Y493609D01*
X442809Y494783D01*
X441834Y496125D01*
X441081Y497603D01*
X440568Y499182D01*
X440418Y500127D01*
X449327Y500127D01*
X449327Y491218D01*
X448382Y491368D01*
G37*
%LPD*%
%LPC*%
G36*
X293623Y490473D02*
X293623Y490473D01*
X293623Y498603D01*
X296098Y498603D01*
X301753Y492948D01*
X301753Y490473D01*
X293623Y490473D01*
G37*
%LPD*%
%LPC*%
G36*
X319023Y515873D02*
X319023Y515873D01*
X319023Y524003D01*
X321498Y524003D01*
X327153Y518348D01*
X327153Y515873D01*
X319023Y515873D01*
G37*
%LPD*%
%LPC*%
G36*
X319023Y490473D02*
X319023Y490473D01*
X319023Y498603D01*
X321498Y498603D01*
X327153Y492948D01*
X327153Y490473D01*
X319023Y490473D01*
G37*
%LPD*%
%LPC*%
G36*
X293623Y515873D02*
X293623Y515873D01*
X293623Y524003D01*
X296098Y524003D01*
X301753Y518348D01*
X301753Y515873D01*
X293623Y515873D01*
G37*
%LPD*%
%LPC*%
G36*
X268223Y515873D02*
X268223Y515873D01*
X268223Y524003D01*
X270698Y524003D01*
X276353Y518348D01*
X276353Y515873D01*
X268223Y515873D01*
G37*
%LPD*%
%LPC*%
G36*
X268223Y490473D02*
X268223Y490473D01*
X268223Y498603D01*
X270698Y498603D01*
X276353Y492948D01*
X276353Y490473D01*
X268223Y490473D01*
G37*
%LPD*%
%LPC*%
G36*
X307847Y490473D02*
X307847Y490473D01*
X307847Y492948D01*
X313502Y498603D01*
X315977Y498603D01*
X315977Y490473D01*
X307847Y490473D01*
G37*
%LPD*%
%LPC*%
G36*
X307847Y515873D02*
X307847Y515873D01*
X307847Y518348D01*
X313502Y524003D01*
X315977Y524003D01*
X315977Y515873D01*
X307847Y515873D01*
G37*
%LPD*%
%LPC*%
G36*
X282447Y515873D02*
X282447Y515873D01*
X282447Y518348D01*
X288102Y524003D01*
X290577Y524003D01*
X290577Y515873D01*
X282447Y515873D01*
G37*
%LPD*%
%LPC*%
G36*
X257047Y515873D02*
X257047Y515873D01*
X257047Y518348D01*
X262702Y524003D01*
X265177Y524003D01*
X265177Y515873D01*
X257047Y515873D01*
G37*
%LPD*%
%LPC*%
G36*
X282447Y490473D02*
X282447Y490473D01*
X282447Y492948D01*
X288102Y498603D01*
X290577Y498603D01*
X290577Y490473D01*
X282447Y490473D01*
G37*
%LPD*%
%LPC*%
G36*
X257047Y490473D02*
X257047Y490473D01*
X257047Y492948D01*
X262702Y498603D01*
X265177Y498603D01*
X265177Y490473D01*
X257047Y490473D01*
G37*
%LPD*%
%LPC*%
G36*
X293623Y504697D02*
X293623Y504697D01*
X293623Y512827D01*
X301753Y512827D01*
X301753Y510352D01*
X296098Y504697D01*
X293623Y504697D01*
G37*
%LPD*%
%LPC*%
G36*
X268223Y504697D02*
X268223Y504697D01*
X268223Y512827D01*
X276353Y512827D01*
X276353Y510352D01*
X270698Y504697D01*
X268223Y504697D01*
G37*
%LPD*%
%LPC*%
G36*
X319023Y504697D02*
X319023Y504697D01*
X319023Y512827D01*
X327153Y512827D01*
X327153Y510352D01*
X321498Y504697D01*
X319023Y504697D01*
G37*
%LPD*%
%LPC*%
G36*
X268223Y479297D02*
X268223Y479297D01*
X268223Y487427D01*
X276353Y487427D01*
X276353Y484952D01*
X270698Y479297D01*
X268223Y479297D01*
G37*
%LPD*%
%LPC*%
G36*
X293623Y479297D02*
X293623Y479297D01*
X293623Y487427D01*
X301753Y487427D01*
X301753Y484952D01*
X296098Y479297D01*
X293623Y479297D01*
G37*
%LPD*%
%LPC*%
G36*
X319023Y479297D02*
X319023Y479297D01*
X319023Y487427D01*
X327153Y487427D01*
X327153Y484952D01*
X321498Y479297D01*
X319023Y479297D01*
G37*
%LPD*%
%LPC*%
G36*
X313502Y479297D02*
X313502Y479297D01*
X307847Y484952D01*
X307847Y487427D01*
X315977Y487427D01*
X315977Y479297D01*
X313502Y479297D01*
G37*
%LPD*%
%LPC*%
G36*
X288102Y504697D02*
X288102Y504697D01*
X282447Y510352D01*
X282447Y512827D01*
X290577Y512827D01*
X290577Y504697D01*
X288102Y504697D01*
G37*
%LPD*%
%LPC*%
G36*
X288102Y479297D02*
X288102Y479297D01*
X282447Y484952D01*
X282447Y487427D01*
X290577Y487427D01*
X290577Y479297D01*
X288102Y479297D01*
G37*
%LPD*%
%LPC*%
G36*
X313502Y504697D02*
X313502Y504697D01*
X307847Y510352D01*
X307847Y512827D01*
X315977Y512827D01*
X315977Y504697D01*
X313502Y504697D01*
G37*
%LPD*%
%LPC*%
G36*
X262702Y479297D02*
X262702Y479297D01*
X257047Y484952D01*
X257047Y487427D01*
X265177Y487427D01*
X265177Y479297D01*
X262702Y479297D01*
G37*
%LPD*%
%LPC*%
G36*
X262702Y504697D02*
X262702Y504697D01*
X257047Y510352D01*
X257047Y512827D01*
X265177Y512827D01*
X265177Y504697D01*
X262702Y504697D01*
G37*
%LPD*%
%LPC*%
G36*
X185673Y947673D02*
X185673Y947673D01*
X185673Y955295D01*
X187938Y955295D01*
X193295Y949938D01*
X193295Y947673D01*
X185673Y947673D01*
G37*
%LPD*%
%LPC*%
G36*
X363473Y65023D02*
X363473Y65023D01*
X363473Y72645D01*
X365738Y72645D01*
X371095Y67288D01*
X371095Y65023D01*
X363473Y65023D01*
G37*
%LPD*%
%LPC*%
G36*
X312673Y280923D02*
X312673Y280923D01*
X312673Y288545D01*
X314938Y288545D01*
X320295Y283188D01*
X320295Y280923D01*
X312673Y280923D01*
G37*
%LPD*%
%LPC*%
G36*
X293623Y573023D02*
X293623Y573023D01*
X293623Y580645D01*
X295888Y580645D01*
X301245Y575288D01*
X301245Y573023D01*
X293623Y573023D01*
G37*
%LPD*%
%LPC*%
G36*
X465073Y947673D02*
X465073Y947673D01*
X465073Y955295D01*
X467338Y955295D01*
X472695Y949938D01*
X472695Y947673D01*
X465073Y947673D01*
G37*
%LPD*%
%LPC*%
G36*
X185673Y249173D02*
X185673Y249173D01*
X185673Y256795D01*
X187938Y256795D01*
X193295Y251438D01*
X193295Y249173D01*
X185673Y249173D01*
G37*
%LPD*%
%LPC*%
G36*
X312673Y344423D02*
X312673Y344423D01*
X312673Y352045D01*
X314938Y352045D01*
X320295Y346688D01*
X320295Y344423D01*
X312673Y344423D01*
G37*
%LPD*%
%LPC*%
G36*
X465073Y922273D02*
X465073Y922273D01*
X465073Y929895D01*
X467338Y929895D01*
X472695Y924538D01*
X472695Y922273D01*
X465073Y922273D01*
G37*
%LPD*%
%LPC*%
G36*
X175005Y249173D02*
X175005Y249173D01*
X175005Y251438D01*
X180362Y256795D01*
X182627Y256795D01*
X182627Y249173D01*
X175005Y249173D01*
G37*
%LPD*%
%LPC*%
G36*
X479805Y122173D02*
X479805Y122173D01*
X479805Y124438D01*
X485162Y129795D01*
X487427Y129795D01*
X487427Y122173D01*
X479805Y122173D01*
G37*
%LPD*%
%LPC*%
G36*
X302005Y731773D02*
X302005Y731773D01*
X302005Y734038D01*
X307362Y739395D01*
X309627Y739395D01*
X309627Y731773D01*
X302005Y731773D01*
G37*
%LPD*%
%LPC*%
G36*
X302005Y280923D02*
X302005Y280923D01*
X302005Y283188D01*
X307362Y288545D01*
X309627Y288545D01*
X309627Y280923D01*
X302005Y280923D01*
G37*
%LPD*%
%LPC*%
G36*
X352805Y65023D02*
X352805Y65023D01*
X352805Y67288D01*
X358162Y72645D01*
X360427Y72645D01*
X360427Y65023D01*
X352805Y65023D01*
G37*
%LPD*%
%LPC*%
G36*
X454405Y922273D02*
X454405Y922273D01*
X454405Y924538D01*
X459762Y929895D01*
X462027Y929895D01*
X462027Y922273D01*
X454405Y922273D01*
G37*
%LPD*%
%LPC*%
G36*
X454405Y947673D02*
X454405Y947673D01*
X454405Y949938D01*
X459762Y955295D01*
X462027Y955295D01*
X462027Y947673D01*
X454405Y947673D01*
G37*
%LPD*%
%LPC*%
G36*
X282955Y573023D02*
X282955Y573023D01*
X282955Y575288D01*
X288312Y580645D01*
X290577Y580645D01*
X290577Y573023D01*
X282955Y573023D01*
G37*
%LPD*%
%LPC*%
G36*
X302005Y344423D02*
X302005Y344423D01*
X302005Y346688D01*
X307362Y352045D01*
X309627Y352045D01*
X309627Y344423D01*
X302005Y344423D01*
G37*
%LPD*%
%LPC*%
G36*
X293623Y562355D02*
X293623Y562355D01*
X293623Y569977D01*
X301245Y569977D01*
X301245Y567712D01*
X295888Y562355D01*
X293623Y562355D01*
G37*
%LPD*%
%LPC*%
G36*
X465073Y937005D02*
X465073Y937005D01*
X465073Y944627D01*
X472695Y944627D01*
X472695Y942362D01*
X467338Y937005D01*
X465073Y937005D01*
G37*
%LPD*%
%LPC*%
G36*
X185673Y937005D02*
X185673Y937005D01*
X185673Y944627D01*
X193295Y944627D01*
X193295Y942362D01*
X187938Y937005D01*
X185673Y937005D01*
G37*
%LPD*%
%LPC*%
G36*
X185673Y238505D02*
X185673Y238505D01*
X185673Y246127D01*
X193295Y246127D01*
X193295Y243862D01*
X187938Y238505D01*
X185673Y238505D01*
G37*
%LPD*%
%LPC*%
G36*
X175005Y947673D02*
X175005Y947673D01*
X175005Y949938D01*
X180362Y955295D01*
X182627Y955295D01*
X182627Y947673D01*
X175005Y947673D01*
G37*
%LPD*%
%LPC*%
G36*
X465073Y911605D02*
X465073Y911605D01*
X465073Y919227D01*
X472695Y919227D01*
X472695Y916962D01*
X467338Y911605D01*
X465073Y911605D01*
G37*
%LPD*%
%LPC*%
G36*
X312673Y270255D02*
X312673Y270255D01*
X312673Y277877D01*
X320295Y277877D01*
X320295Y275612D01*
X314938Y270255D01*
X312673Y270255D01*
G37*
%LPD*%
%LPC*%
G36*
X312673Y333755D02*
X312673Y333755D01*
X312673Y341377D01*
X320295Y341377D01*
X320295Y339112D01*
X314938Y333755D01*
X312673Y333755D01*
G37*
%LPD*%
%LPC*%
G36*
X312673Y657605D02*
X312673Y657605D01*
X312673Y665227D01*
X320295Y665227D01*
X320295Y662962D01*
X314938Y657605D01*
X312673Y657605D01*
G37*
%LPD*%
%LPC*%
G36*
X363473Y54355D02*
X363473Y54355D01*
X363473Y61977D01*
X371095Y61977D01*
X371095Y59712D01*
X365738Y54355D01*
X363473Y54355D01*
G37*
%LPD*%
%LPC*%
G36*
X180362Y937005D02*
X180362Y937005D01*
X175005Y942362D01*
X175005Y944627D01*
X182627Y944627D01*
X182627Y937005D01*
X180362Y937005D01*
G37*
%LPD*%
%LPC*%
G36*
X307362Y657605D02*
X307362Y657605D01*
X302005Y662962D01*
X302005Y665227D01*
X309627Y665227D01*
X309627Y657605D01*
X307362Y657605D01*
G37*
%LPD*%
%LPC*%
G36*
X459762Y937005D02*
X459762Y937005D01*
X454405Y942362D01*
X454405Y944627D01*
X462027Y944627D01*
X462027Y937005D01*
X459762Y937005D01*
G37*
%LPD*%
%LPC*%
G36*
X358162Y54355D02*
X358162Y54355D01*
X352805Y59712D01*
X352805Y61977D01*
X360427Y61977D01*
X360427Y54355D01*
X358162Y54355D01*
G37*
%LPD*%
%LPC*%
G36*
X180362Y238505D02*
X180362Y238505D01*
X175005Y243862D01*
X175005Y246127D01*
X182627Y246127D01*
X182627Y238505D01*
X180362Y238505D01*
G37*
%LPD*%
%LPC*%
G36*
X485162Y111505D02*
X485162Y111505D01*
X479805Y116862D01*
X479805Y119127D01*
X487427Y119127D01*
X487427Y111505D01*
X485162Y111505D01*
G37*
%LPD*%
%LPC*%
G36*
X307362Y721105D02*
X307362Y721105D01*
X302005Y726462D01*
X302005Y728727D01*
X309627Y728727D01*
X309627Y721105D01*
X307362Y721105D01*
G37*
%LPD*%
%LPC*%
G36*
X307362Y270255D02*
X307362Y270255D01*
X302005Y275612D01*
X302005Y277877D01*
X309627Y277877D01*
X309627Y270255D01*
X307362Y270255D01*
G37*
%LPD*%
%LPC*%
G36*
X307362Y333755D02*
X307362Y333755D01*
X302005Y339112D01*
X302005Y341377D01*
X309627Y341377D01*
X309627Y333755D01*
X307362Y333755D01*
G37*
%LPD*%
%LPC*%
G36*
X288312Y562355D02*
X288312Y562355D01*
X282955Y567712D01*
X282955Y569977D01*
X290577Y569977D01*
X290577Y562355D01*
X288312Y562355D01*
G37*
%LPD*%
%LPC*%
G36*
X459762Y911605D02*
X459762Y911605D01*
X454405Y916962D01*
X454405Y919227D01*
X462027Y919227D01*
X462027Y911605D01*
X459762Y911605D01*
G37*
%LPD*%
%LPC*%
G36*
X298449Y196849D02*
X298449Y196849D01*
X298449Y196851D01*
X298451Y196851D01*
X298451Y196849D01*
X298449Y196849D01*
G37*
%LPD*%
%LPC*%
G36*
X374649Y844549D02*
X374649Y844549D01*
X374649Y844551D01*
X374651Y844551D01*
X374651Y844549D01*
X374649Y844549D01*
G37*
%LPD*%
%LPC*%
G36*
X57149Y914799D02*
X57149Y914799D01*
X57149Y914801D01*
X57151Y914801D01*
X57151Y914799D01*
X57149Y914799D01*
G37*
%LPD*%
%LPC*%
G36*
X311149Y279399D02*
X311149Y279399D01*
X311149Y279401D01*
X311151Y279401D01*
X311151Y279399D01*
X311149Y279399D01*
G37*
%LPD*%
%LPC*%
G36*
X444499Y831849D02*
X444499Y831849D01*
X444499Y831851D01*
X444501Y831851D01*
X444501Y831849D01*
X444499Y831849D01*
G37*
%LPD*%
%LPC*%
G36*
X463549Y920749D02*
X463549Y920749D01*
X463549Y920751D01*
X463551Y920751D01*
X463551Y920749D01*
X463549Y920749D01*
G37*
%LPD*%
%LPC*%
G36*
X222249Y603249D02*
X222249Y603249D01*
X222249Y603251D01*
X222251Y603251D01*
X222251Y603249D01*
X222249Y603249D01*
G37*
%LPD*%
%LPC*%
G36*
X292099Y571499D02*
X292099Y571499D01*
X292099Y571501D01*
X292101Y571501D01*
X292101Y571499D01*
X292099Y571499D01*
G37*
%LPD*%
%LPC*%
G36*
X374649Y819149D02*
X374649Y819149D01*
X374649Y819151D01*
X374651Y819151D01*
X374651Y819149D01*
X374649Y819149D01*
G37*
%LPD*%
%LPC*%
G36*
X184149Y247649D02*
X184149Y247649D01*
X184149Y247651D01*
X184151Y247651D01*
X184151Y247649D01*
X184149Y247649D01*
G37*
%LPD*%
%LPC*%
G36*
X317499Y514349D02*
X317499Y514349D01*
X317499Y514351D01*
X317501Y514351D01*
X317501Y514349D01*
X317499Y514349D01*
G37*
%LPD*%
%LPC*%
G36*
X374649Y146049D02*
X374649Y146049D01*
X374649Y146051D01*
X374651Y146051D01*
X374651Y146049D01*
X374649Y146049D01*
G37*
%LPD*%
%LPC*%
G36*
X298449Y146049D02*
X298449Y146049D01*
X298449Y146051D01*
X298451Y146051D01*
X298451Y146049D01*
X298449Y146049D01*
G37*
%LPD*%
%LPC*%
G36*
X292099Y514349D02*
X292099Y514349D01*
X292099Y514351D01*
X292101Y514351D01*
X292101Y514349D01*
X292099Y514349D01*
G37*
%LPD*%
%LPC*%
G36*
X184149Y946149D02*
X184149Y946149D01*
X184149Y946151D01*
X184151Y946151D01*
X184151Y946149D01*
X184149Y946149D01*
G37*
%LPD*%
%LPC*%
G36*
X463549Y946149D02*
X463549Y946149D01*
X463549Y946151D01*
X463551Y946151D01*
X463551Y946149D01*
X463549Y946149D01*
G37*
%LPD*%
%LPC*%
G36*
X444499Y768349D02*
X444499Y768349D01*
X444499Y768351D01*
X444501Y768351D01*
X444501Y768349D01*
X444499Y768349D01*
G37*
%LPD*%
%LPC*%
G36*
X311149Y342899D02*
X311149Y342899D01*
X311149Y342901D01*
X311151Y342901D01*
X311151Y342899D01*
X311149Y342899D01*
G37*
%LPD*%
%LPC*%
G36*
X266699Y514349D02*
X266699Y514349D01*
X266699Y514351D01*
X266701Y514351D01*
X266701Y514349D01*
X266699Y514349D01*
G37*
%LPD*%
%LPC*%
G36*
X361949Y603249D02*
X361949Y603249D01*
X361949Y603251D01*
X361951Y603251D01*
X361951Y603249D01*
X361949Y603249D01*
G37*
%LPD*%
%LPC*%
G36*
X133349Y501649D02*
X133349Y501649D01*
X133349Y501651D01*
X133351Y501651D01*
X133351Y501649D01*
X133349Y501649D01*
G37*
%LPD*%
%LPC*%
G36*
X57149Y457599D02*
X57149Y457599D01*
X57149Y457601D01*
X57151Y457601D01*
X57151Y457599D01*
X57149Y457599D01*
G37*
%LPD*%
%LPC*%
G36*
X266699Y488949D02*
X266699Y488949D01*
X266699Y488951D01*
X266701Y488951D01*
X266701Y488949D01*
X266699Y488949D01*
G37*
%LPD*%
%LPC*%
G36*
X292099Y488949D02*
X292099Y488949D01*
X292099Y488951D01*
X292101Y488951D01*
X292101Y488949D01*
X292099Y488949D01*
G37*
%LPD*%
%LPC*%
G36*
X361949Y63499D02*
X361949Y63499D01*
X361949Y63501D01*
X361951Y63501D01*
X361951Y63499D01*
X361949Y63499D01*
G37*
%LPD*%
%LPC*%
G36*
X317499Y488949D02*
X317499Y488949D01*
X317499Y488951D01*
X317501Y488951D01*
X317501Y488949D01*
X317499Y488949D01*
G37*
%LPD*%
%LPC*%
G36*
X450849Y501649D02*
X450849Y501649D01*
X450849Y501651D01*
X450851Y501651D01*
X450851Y501649D01*
X450849Y501649D01*
G37*
%LPD*%
D10*
X381254Y768350D02*
X368046Y768350D01*
X368046Y793750D02*
X381254Y793750D01*
X381254Y920750D02*
X368046Y920750D01*
X368046Y946150D02*
X381254Y946150D01*
X381254Y819150D02*
X368046Y819150D01*
X368046Y844550D02*
X381254Y844550D01*
X381254Y895350D02*
X368046Y895350D01*
X368046Y869950D02*
X381254Y869950D01*
X305054Y946150D02*
X291846Y946150D01*
X291846Y920750D02*
X305054Y920750D01*
X305054Y895350D02*
X291846Y895350D01*
X291846Y869950D02*
X305054Y869950D01*
X305054Y844550D02*
X291846Y844550D01*
X291846Y819150D02*
X305054Y819150D01*
X305054Y793750D02*
X291846Y793750D01*
X291846Y768350D02*
X305054Y768350D01*
X305054Y247650D02*
X291846Y247650D01*
X291846Y222250D02*
X305054Y222250D01*
X305054Y95250D02*
X291846Y95250D01*
X368046Y95250D02*
X381254Y95250D01*
X305054Y196850D02*
X291846Y196850D01*
X291846Y171450D02*
X305054Y171450D01*
X305054Y120650D02*
X291846Y120650D01*
X291846Y146050D02*
X305054Y146050D01*
X368046Y120650D02*
X381254Y120650D01*
X381254Y146050D02*
X368046Y146050D01*
X368046Y171450D02*
X381254Y171450D01*
X381254Y196850D02*
X368046Y196850D01*
X368046Y222250D02*
X381254Y222250D01*
X381254Y247650D02*
X368046Y247650D01*
D11*
X57150Y457600D03*
D12*
X57150Y482600D03*
X57150Y507600D03*
D11*
X57150Y914800D03*
D12*
X57150Y939800D03*
X57150Y964800D03*
D11*
X57150Y686200D03*
D12*
X57150Y711200D03*
X57150Y736200D03*
D13*
X70000Y53340D02*
X70000Y22860D01*
X17000Y22860D02*
X17000Y53340D01*
X128000Y53340D02*
X128000Y22860D01*
X70000Y137160D02*
X70000Y167640D01*
X17000Y167640D02*
X17000Y137160D01*
X128000Y137160D02*
X128000Y167640D01*
X70000Y251460D02*
X70000Y281940D01*
X17000Y281940D02*
X17000Y251460D01*
X128000Y251460D02*
X128000Y281940D01*
D14*
X412750Y946150D03*
X463550Y946150D03*
X412750Y920750D03*
X463550Y920750D03*
X209550Y920750D03*
X260350Y920750D03*
D15*
X260350Y895350D03*
X209550Y895350D03*
D16*
X444500Y768350D03*
D17*
X419100Y768350D03*
D15*
X260350Y844550D03*
X209550Y844550D03*
X260350Y793750D03*
X209550Y793750D03*
X361950Y730250D03*
X311150Y730250D03*
D16*
X444500Y831850D03*
D17*
X419100Y831850D03*
D15*
X260350Y869950D03*
X184150Y869950D03*
D18*
X184150Y895350D03*
X184150Y946150D03*
D15*
X260350Y819150D03*
X184150Y819150D03*
X260350Y768350D03*
X184150Y768350D03*
X361950Y666750D03*
X311150Y666750D03*
X374650Y698500D03*
X298450Y698500D03*
D19*
X114300Y939800D03*
D17*
X139700Y939800D03*
D14*
X184150Y717550D03*
X260350Y717550D03*
D20*
X146050Y635000D03*
D17*
X146050Y660400D03*
D14*
X184150Y742950D03*
X260350Y742950D03*
X184150Y692150D03*
X260350Y692150D03*
D19*
X95250Y793750D03*
D17*
X120650Y793750D03*
D18*
X95250Y660400D03*
X95250Y736600D03*
D15*
X361950Y342900D03*
X311150Y342900D03*
D14*
X298450Y311150D03*
X374650Y311150D03*
D20*
X222250Y285750D03*
D17*
X222250Y311150D03*
D15*
X260350Y247650D03*
X184150Y247650D03*
X260350Y222250D03*
X184150Y222250D03*
D14*
X184150Y196850D03*
X260350Y196850D03*
D15*
X260350Y95250D03*
X184150Y95250D03*
D14*
X184150Y120650D03*
X260350Y120650D03*
X184150Y146050D03*
X260350Y146050D03*
D10*
X399796Y69850D02*
X413004Y69850D01*
X475996Y69850D02*
X489204Y69850D01*
X476250Y253746D02*
X476250Y266954D01*
X425450Y266954D02*
X425450Y253746D01*
X450850Y253746D02*
X450850Y266954D01*
D15*
X488950Y222250D03*
X412750Y222250D03*
X488950Y196850D03*
X412750Y196850D03*
X488950Y171450D03*
X412750Y171450D03*
D14*
X412750Y146050D03*
X488950Y146050D03*
X412750Y120650D03*
X488950Y120650D03*
X412750Y95250D03*
X488950Y95250D03*
D10*
X476250Y304546D02*
X476250Y317754D01*
X476250Y380746D02*
X476250Y393954D01*
D15*
X304800Y590550D03*
X292100Y571500D03*
X279400Y590550D03*
D19*
X425450Y501650D03*
D17*
X450850Y501650D03*
D19*
X133350Y501650D03*
D17*
X158750Y501650D03*
D21*
X241300Y488950D03*
X241300Y514350D03*
X266700Y488950D03*
X266700Y514350D03*
X292100Y488950D03*
X292100Y514350D03*
X317500Y488950D03*
X317500Y514350D03*
X342900Y488950D03*
X342900Y514350D03*
D14*
X311150Y63500D03*
X361950Y63500D03*
D15*
X361950Y279400D03*
X311150Y279400D03*
D22*
X222250Y603250D03*
D17*
X222250Y577850D03*
D22*
X361950Y603250D03*
D17*
X361950Y577850D03*
D23*
X374650Y946150D02*
X412750Y946150D01*
X412750Y920750D02*
X374650Y920750D01*
X298450Y920750D02*
X260350Y920750D01*
X234950Y946150D02*
X209550Y920750D01*
X234950Y946150D02*
X298450Y946150D01*
X298450Y895350D02*
X260350Y895350D01*
X260350Y869950D02*
X298450Y869950D01*
X260350Y869950D02*
X234950Y869950D01*
X209550Y895350D01*
X260350Y844550D02*
X298450Y844550D01*
X298450Y793750D02*
X260350Y793750D01*
X260350Y742950D02*
X260350Y717550D01*
X260350Y730250D01*
X241300Y730250D01*
X228600Y742950D01*
X228600Y781050D01*
X241300Y793750D01*
X260350Y793750D01*
X260350Y819150D02*
X298450Y819150D01*
X260350Y819150D02*
X234950Y819150D01*
X209550Y844550D01*
X298450Y698500D02*
X311150Y698500D01*
X323850Y711200D01*
X323850Y806450D01*
X311150Y819150D01*
X298450Y819150D01*
X285750Y717550D02*
X260350Y692150D01*
X285750Y717550D02*
X285750Y755650D01*
X298450Y768350D01*
D24*
X361950Y730250D02*
X374650Y742950D01*
X374650Y768350D01*
X419100Y768350D01*
X304800Y590550D02*
X317500Y577850D01*
X361950Y577850D01*
X406400Y577850D01*
X419100Y590550D01*
X419100Y768350D01*
X292100Y622300D02*
X304800Y609600D01*
X304800Y590550D01*
X171450Y622300D02*
X57150Y508000D01*
X57150Y507600D01*
X171450Y622300D02*
X292100Y622300D01*
D23*
X374650Y793750D02*
X406400Y793750D01*
X419100Y806450D01*
X419100Y831850D01*
X476250Y850900D02*
X476250Y387350D01*
X476250Y850900D02*
X431800Y895350D01*
X374650Y895350D01*
X184150Y895350D02*
X184150Y869950D01*
X184150Y819150D02*
X184150Y768350D01*
X184150Y819150D02*
X184150Y869950D01*
X361950Y685800D02*
X374650Y698500D01*
X152400Y927100D02*
X139700Y939800D01*
X152400Y927100D02*
X152400Y774700D01*
X171450Y755650D01*
X196850Y755650D01*
X215900Y736600D01*
X215900Y692150D01*
X228600Y679450D01*
X336550Y679450D01*
X342900Y685800D01*
X361950Y685800D01*
X361950Y666750D01*
X57550Y965200D02*
X57150Y964800D01*
X57550Y965200D02*
X88900Y965200D01*
X114300Y939800D01*
X146050Y679450D02*
X146050Y660400D01*
X146050Y679450D02*
X184150Y717550D01*
X273050Y412750D02*
X273050Y285750D01*
D25*
X273050Y412750D03*
X273050Y285750D03*
D23*
X196850Y692150D02*
X184150Y692150D01*
X196850Y692150D02*
X203200Y698500D01*
X203200Y736600D01*
X196850Y742950D01*
X184150Y742950D01*
X133350Y742950D01*
X120650Y755650D01*
X120650Y793750D01*
X95250Y793750D02*
X95250Y736600D01*
X57550Y736600D02*
X57150Y736200D01*
X57550Y736600D02*
X95250Y736600D01*
X82550Y711200D02*
X57150Y711200D01*
X82550Y711200D02*
X95250Y698500D01*
X95250Y660400D01*
X57150Y711200D02*
X38100Y711200D01*
X25400Y723900D01*
X25400Y927100D01*
X38100Y939800D01*
X57150Y939800D01*
X184150Y222250D02*
X196850Y222250D01*
X222250Y247650D01*
X260350Y247650D01*
X298450Y247650D01*
X222250Y247650D02*
X222250Y285750D01*
X260350Y222250D02*
X260350Y196850D01*
X260350Y222250D02*
X298450Y222250D01*
X196850Y95250D02*
X184150Y95250D01*
X196850Y95250D02*
X209550Y107950D01*
X209550Y133350D01*
X196850Y146050D01*
X184150Y146050D01*
X285750Y120650D02*
X298450Y120650D01*
X285750Y120650D02*
X273050Y133350D01*
X209550Y133350D01*
X260350Y95250D02*
X298450Y95250D01*
X260350Y95250D02*
X260350Y120650D01*
X400050Y209550D02*
X400050Y400050D01*
X400050Y209550D02*
X412750Y196850D01*
D25*
X400050Y400050D03*
D23*
X488950Y222250D02*
X488950Y196850D01*
X488950Y171450D01*
X488950Y146050D01*
D24*
X412750Y171450D02*
X374650Y171450D01*
X342900Y501650D02*
X342900Y514350D01*
X342900Y501650D02*
X342900Y488950D01*
X355600Y171450D02*
X374650Y171450D01*
X355600Y171450D02*
X342900Y184150D01*
X342900Y279400D01*
X342900Y501650D02*
X425450Y501650D01*
X361950Y279400D02*
X342900Y279400D01*
X342900Y488950D01*
D23*
X374650Y95250D02*
X412750Y95250D01*
X412750Y76200D01*
X406400Y69850D01*
X412750Y120650D02*
X412750Y146050D01*
X425450Y241300D02*
X425450Y260350D01*
X444500Y222250D02*
X444500Y146050D01*
X412750Y146050D01*
X444500Y222250D02*
X425450Y241300D01*
X450850Y260350D02*
X457200Y260350D01*
X457200Y146050D01*
X469900Y133350D01*
X469900Y114300D01*
X488950Y95250D01*
X476250Y260350D02*
X476250Y311150D01*
D24*
X241300Y488950D02*
X241300Y501650D01*
X241300Y514350D01*
X330200Y171450D02*
X330200Y82550D01*
X311150Y63500D01*
X298450Y171450D02*
X330200Y171450D01*
X330200Y419100D02*
X311150Y438150D01*
X260350Y438150D01*
X330200Y419100D02*
X330200Y171450D01*
X260350Y438150D02*
X241300Y457200D01*
X241300Y488950D01*
X241300Y501650D02*
X158750Y501650D01*
X254000Y590550D02*
X279400Y590550D01*
X254000Y590550D02*
X241300Y577850D01*
X241300Y514350D01*
X241300Y577850D02*
X222250Y577850D01*
D23*
X184150Y196850D02*
X82550Y196850D01*
X69850Y184150D01*
X69850Y152550D01*
X70000Y152400D01*
X184150Y120650D02*
X185420Y120650D01*
X184150Y120650D02*
X171450Y120650D01*
X133350Y82550D01*
X82550Y82550D01*
X69850Y69850D01*
X69850Y38250D01*
X70000Y38100D01*
X412750Y222250D02*
X412750Y387350D01*
D25*
X412750Y387350D03*
M02*
