M48
;GenerationSoftware,Autodesk,EAGLE,9.6.2*%
;CreationDate,2022-05-04T14:27:18Z*%
FMAT,2
ICI,OFF
METRIC,TZ,000.000
T5C0.610
T4C0.813
T3C0.914
T2C1.100
T1C2.032
%
G90
M71
T1
X12800Y26670
X1700Y26670
X7000Y26670
X12800Y15240
X1700Y15240
X7000Y15240
X12800Y3810
X1700Y3810
X7000Y3810
T2
X5715Y73620
X5715Y71120
X5715Y68620
X5715Y96480
X5715Y93980
X5715Y91480
X5715Y50760
X5715Y48260
X5715Y45760
T3
X34290Y51435
X34290Y48895
X31750Y51435
X31750Y48895
X29210Y51435
X29210Y48895
X26670Y51435
X26670Y48895
X24130Y51435
X24130Y48895
T4
X37465Y12065
X37465Y14605
X37465Y17145
X37465Y19685
X37465Y22225
X37465Y24765
X29845Y14605
X29845Y12065
X29845Y17145
X29845Y19685
X37465Y9525
X29845Y9525
X29845Y22225
X29845Y24765
X29845Y76835
X29845Y79375
X29845Y81915
X29845Y84455
X29845Y86995
X29845Y89535
X29845Y92075
X29845Y94615
X37465Y86995
X37465Y89535
X41275Y94615
X46355Y94615
X41275Y92075
X46355Y92075
X20955Y92075
X26035Y92075
X26035Y89535
X20955Y89535
X44450Y76835
X41910Y76835
X26035Y84455
X20955Y84455
X26035Y79375
X20955Y79375
X36195Y73025
X31115Y73025
X44450Y83185
X41910Y83185
X26035Y86995
X18415Y86995
X18415Y89535
X18415Y94615
X26035Y81915
X18415Y81915
X26035Y76835
X18415Y76835
X36195Y66675
X36195Y57785
X37465Y69850
X29845Y69850
X11430Y93980
X13970Y93980
X18415Y71755
X26035Y71755
X14605Y63500
X14605Y66040
X18415Y74295
X26035Y74295
X18415Y69215
X26035Y69215
X9525Y79375
X12065Y79375
X9525Y66040
X9525Y73660
X36195Y34290
X31115Y34290
X29845Y31115
X37465Y31115
X22225Y28575
X22225Y31115
X26035Y24765
X18415Y24765
X26035Y22225
X18415Y22225
X18415Y19685
X26035Y19685
X26035Y9525
X18415Y9525
X18415Y12065
X26035Y12065
X18415Y14605
X26035Y14605
X40640Y6985
X48260Y6985
X47625Y26035
X42545Y26035
X45085Y26035
X48895Y22225
X41275Y22225
X48895Y19685
X41275Y19685
X48895Y17145
X41275Y17145
X41275Y14605
X48895Y14605
X41275Y12065
X48895Y12065
X41275Y9525
X48895Y9525
X47625Y31115
X47625Y38735
X30480Y59055
X29210Y57150
X27940Y59055
X42545Y50165
X45085Y50165
X13335Y50165
X15875Y50165
X37465Y84455
X37465Y81915
X37465Y94615
X37465Y92075
X37465Y79375
X37465Y76835
X36195Y60325
X22225Y57785
X22225Y60325
X31115Y66675
X31115Y6350
X36195Y6350
X36195Y27940
X31115Y27940
T5
X27305Y28575
X40005Y40005
X41275Y38735
X27305Y41275
M30